<svg xmlns="http://www.w3.org/2000/svg" viewBox="0 0 202 218" id="el_UF2ynOfZuL"><style>@-webkit-keyframes el_G_O7t4mYvB_GE9zkxgfU_Animation{66.67%{-webkit-transform: translate(0px, 0px);transform: translate(0px, 0px);}83.33%{-webkit-transform: translate(0px, 5px);transform: translate(0px, 5px);}100%{-webkit-transform: translate(0px, 0px);transform: translate(0px, 0px);}0%{-webkit-transform: translate(0px, 0px);transform: translate(0px, 0px);}}@keyframes el_G_O7t4mYvB_GE9zkxgfU_Animation{66.67%{-webkit-transform: translate(0px, 0px);transform: translate(0px, 0px);}83.33%{-webkit-transform: translate(0px, 5px);transform: translate(0px, 5px);}100%{-webkit-transform: translate(0px, 0px);transform: translate(0px, 0px);}0%{-webkit-transform: translate(0px, 0px);transform: translate(0px, 0px);}}@-webkit-keyframes el_ko5CvDFs7F_q358seYpf_Animation{0%{-webkit-transform: translate(0px, 0px);transform: translate(0px, 0px);}16.67%{-webkit-transform: translate(0px, 10px);transform: translate(0px, 10px);}33.33%{-webkit-transform: translate(0px, 0px);transform: translate(0px, 0px);}100%{-webkit-transform: translate(0px, 0px);transform: translate(0px, 0px);}}@keyframes el_ko5CvDFs7F_q358seYpf_Animation{0%{-webkit-transform: translate(0px, 0px);transform: translate(0px, 0px);}16.67%{-webkit-transform: translate(0px, 10px);transform: translate(0px, 10px);}33.33%{-webkit-transform: translate(0px, 0px);transform: translate(0px, 0px);}100%{-webkit-transform: translate(0px, 0px);transform: translate(0px, 0px);}}#el_UF2ynOfZuL *{-webkit-animation-duration: 3s;animation-duration: 3s;-webkit-animation-iteration-count: infinite;animation-iteration-count: infinite;-webkit-animation-timing-function: cubic-bezier(0, 0, 1, 1);animation-timing-function: cubic-bezier(0, 0, 1, 1);}#el_wo0Y-oew8p{-webkit-transform: translate(573.092px, -136.983px);transform: translate(573.092px, -136.983px);}#el_ko5CvDFs7F{fill: #828685;-webkit-transform: translate(-573.092px, 212.839px);transform: translate(-573.092px, 212.839px);}#el_bPKIiP5nwS{stroke: none;}#el_-lwhrqz1iR{stroke: none;fill: #707070;}#el_G_O7t4mYvB{fill: #828685;-webkit-transform: translate(-438.626px, 136.983px);transform: translate(-438.626px, 136.983px);}#el_fDBmpYFZ9mn{stroke: none;}#el_Wn3iuM3KaII{stroke: none;fill: #707070;}#el_m6-7h1zqlZk{fill: none;stroke: #707070;stroke-width: 5px;-webkit-transform: translate(3.246px, -7.426px);transform: translate(3.246px, -7.426px);}#el_ko5CvDFs7F_q358seYpf{-webkit-animation-name: el_ko5CvDFs7F_q358seYpf_Animation;animation-name: el_ko5CvDFs7F_q358seYpf_Animation;-webkit-transform-origin: 50% 50%;transform-origin: 50% 50%;transform-box: fill-box;-webkit-transform: translate(0px, 0px);transform: translate(0px, 0px);}#el_G_O7t4mYvB_GE9zkxgfU{-webkit-animation-name: el_G_O7t4mYvB_GE9zkxgfU_Animation;animation-name: el_G_O7t4mYvB_GE9zkxgfU_Animation;-webkit-transform-origin: 50% 50%;transform-origin: 50% 50%;transform-box: fill-box;-webkit-transform: translate(0px, 0px);transform: translate(0px, 0px);}#el_m6-7h1zqlZk_qrhlwLJPW{-webkit-transform-origin: 50% 50%;transform-origin: 50% 50%;transform-box: fill-box;-webkit-transform: translate(0px, 0px);transform: translate(0px, 0px);}</style>
  <defs>
    
  </defs>
  <g id="el_wo0Y-oew8p" data-name="组 4">
    <g id="el_ko5CvDFs7F_q358seYpf" data-animator-group="true" data-animator-type="0"><g id="el_ko5CvDFs7F" data-name="减去 3">
      <path d="M 52.49971389770508 137.1621704101562 C 48.70474243164062 132.8517456054688 38.20895385742188 120.6750030517578 27.86997222900391 106.3900604248047 C 20.3082332611084 95.94219970703125 14.28937244415283 86.40810394287109 9.980632781982422 78.05261993408203 C 4.685072422027588 67.78350067138672 1.999992609024048 59.3546028137207 1.999992609024048 53.00006484985352 C 1.999992609024048 46.11182403564453 3.335812568664551 39.43084335327148 5.970372676849365 33.14272308349609 C 8.514972686767578 27.06940269470215 12.15787220001221 21.61488342285156 16.79785346984863 16.93064308166504 C 21.43655204772949 12.24782371520996 26.83725166320801 8.571663856506348 32.84997177124023 6.004283428192139 C 39.07267379760742 3.347243547439575 45.68379211425781 2.000003576278687 52.49969100952148 2.000003576278687 C 59.31581115722656 2.000003576278687 65.92711639404297 3.347243547439575 72.14993286132812 6.004283428192139 C 78.16279602050781 8.571683883666992 83.56359100341797 12.24784374237061 88.20235443115234 16.9306640625 C 92.84236907958984 21.61484336853027 96.48531341552734 27.06936264038086 99.02993011474609 33.14272308349609 C 101.6644897460938 39.43084335327148 103.0003128051758 46.1118049621582 103.0003128051758 53.00006484985352 C 103.0003128051758 59.35458374023438 100.3151931762695 67.78348541259766 95.01953125 78.05261993408203 C 90.710693359375 86.40816497802734 84.69173431396484 95.9422607421875 77.12985229492188 106.3900451660156 C 66.78961944580078 120.6764907836914 56.2944450378418 132.8521728515625 52.49971389770508 137.1621704101562 Z M 52.49969100952148 31.00028419494629 C 49.19311141967773 31.00028419494629 45.98437118530273 31.64834403991699 42.96259307861328 32.92648315429688 C 40.0449333190918 34.1605224609375 37.42499160766602 35.92680358886719 35.17561340332031 38.17624282836914 C 32.92627334594727 40.42556381225586 31.15999221801758 43.04546356201172 29.92587280273438 45.96316528320312 C 28.64775276184082 48.98496246337891 27.99969291687012 52.19372177124023 27.99969291687012 55.50028228759766 C 27.99969291687012 58.80684280395508 28.64775276184082 62.01558303833008 29.92587280273438 65.03736114501953 C 31.15997314453125 67.95506286621094 32.92623138427734 70.57498168945312 35.17561340332031 72.82436370849609 C 37.42501068115234 75.07376098632812 40.0449333190918 76.84002685546875 42.96261215209961 78.07410430908203 C 45.98439407348633 79.35222625732422 49.19313430786133 80.00028228759766 52.49969100952148 80.00028228759766 C 55.80625152587891 80.00028228759766 59.01499176025391 79.35222625732422 62.03677368164062 78.07410430908203 C 64.95439147949219 76.84004211425781 67.57431030273438 75.07378387451172 69.82375335693359 72.82438659667969 C 72.07318878173828 70.57494354248047 73.83945465087891 67.95500183105469 75.07350921630859 65.03736114501953 C 76.35161590576172 62.01560211181641 76.99967193603516 58.80686187744141 76.99967193603516 55.50028228759766 C 76.99967193603516 52.19370269775391 76.35161590576172 48.98494338989258 75.07350921630859 45.96318435668945 C 73.83940887451172 43.04546356201172 72.07313537597656 40.42556381225586 69.82375335693359 38.17622375488281 C 67.57431030273438 35.92678451538086 64.95439147949219 34.16050338745117 62.03677368164062 32.92646408081055 C 59.01501083374023 31.64834403991699 55.8062744140625 31.00028419494629 52.49969100952148 31.00028419494629 Z" id="el_bPKIiP5nwS"/>
      <path d="M 52.49959945678711 134.1222229003906 C 57.10032653808594 128.8227233886719 66.38307952880859 117.8270721435547 75.50969696044922 105.217414855957 C 83.01296234130859 94.85060119628906 88.97896575927734 85.40262603759766 93.24196624755859 77.13595581054688 C 95.84712982177734 72.08412170410156 97.82669067382812 67.43753814697266 99.12567138671875 63.32529067993164 C 100.3695907592773 59.38741302490234 101.0002975463867 55.91351699829102 101.0002975463867 53.00008010864258 C 101.0002975463867 46.37855911254883 99.71673583984375 39.95760345458984 97.18529510498047 33.91558074951172 C 94.74036407470703 28.08014297485352 91.23998260498047 22.8391227722168 86.78146362304688 18.33818435668945 C 82.32553100585938 13.83989334106445 77.13852691650391 10.3090181350708 71.36457061767578 7.843643665313721 C 65.39138031005859 5.293185234069824 59.04431915283203 3.999997615814209 52.49969482421875 3.999997615814209 C 45.95527648925781 3.999997615814209 39.60840225219727 5.293185234069824 33.63536071777344 7.843643665313721 C 27.86154747009277 10.30899810791016 22.67465209960938 13.83987236022949 18.21875762939453 18.33814430236816 C 13.76025676727295 22.83916473388672 10.25992298126221 28.08016395568848 7.815006732940674 33.91556167602539 C 5.2835693359375 39.95760345458984 4.000006675720215 46.37858200073242 4.000006675720215 53.00008010864258 C 4.000006675720215 55.91351699829102 4.630714893341064 59.38743591308594 5.874589920043945 63.32530975341797 C 7.173569202423096 67.43758392333984 9.153090476989746 72.08416748046875 11.75819396972656 77.13597869873047 C 16.02113151550293 85.40262603759766 21.98702812194824 94.85057830810547 29.49015235900879 105.2174377441406 C 38.62031936645508 117.8322448730469 47.90015411376953 128.8243865966797 52.49959945678711 134.1222229003906 M 52.49969482421875 29.00028991699219 C 56.07540130615234 29.00028991699219 59.5462760925293 29.70151901245117 62.81588363647461 31.0844554901123 C 65.97190093994141 32.41933059692383 68.80550384521484 34.32954025268555 71.23800659179688 36.76199722290039 C 73.67042541503906 39.19443511962891 75.58063507080078 42.02803802490234 76.91552734375 45.18405914306641 C 78.2984619140625 48.45368576049805 78.99967193603516 51.924560546875 78.99967193603516 55.50028991699219 C 78.99967193603516 59.07601928710938 78.2984619140625 62.54689407348633 76.91552734375 65.81643676757812 C 75.58067321777344 68.97243499755859 73.67048645019531 71.80603790283203 71.23794555664062 74.23863983154297 C 68.805419921875 76.67108154296875 65.97181701660156 78.58126831054688 62.81590270996094 79.91609954833984 C 59.54631805419922 81.29905700683594 56.07544326782227 82.00026702880859 52.49969482421875 82.00026702880859 C 48.92394256591797 82.00026702880859 45.45306777954102 81.29905700683594 42.18352890014648 79.91612243652344 C 39.0274658203125 78.58124542236328 36.1938591003418 76.67103576660156 33.76140213012695 74.23860168457031 C 31.3289852142334 71.80616760253906 29.41877746582031 68.97255706787109 28.08388137817383 65.81647491455078 C 26.70092391967773 62.54685211181641 25.99969482421875 59.07599639892578 25.99969482421875 55.50028991699219 C 25.99969482421875 51.92457962036133 26.70090293884277 48.45370483398438 28.08388137817383 45.18405914306641 C 29.41881942749023 42.0279541015625 31.32902717590332 39.19437408447266 33.76138305664062 36.76203918457031 C 36.19377899169922 34.32958221435547 39.02740097045898 32.41937255859375 42.18348693847656 31.08447647094727 C 45.45310974121094 29.70151901245117 48.92398452758789 29.00028991699219 52.49969482421875 29.00028991699219 M 52.49969482421875 140.1722869873047 L 52.49894332885742 140.1714782714844 C 52.36734008789062 140.0262298583984 39.18929672241211 125.4406814575195 26.24981880187988 107.5626831054688 C 18.62940216064453 97.03379058837891 12.55761051177979 87.41358184814453 8.203069686889648 78.96929168701172 C 2.759923458099365 68.41395568847656 6.754557489330182e-06 59.67664337158203 6.754557489330182e-06 53.00008010864258 C 6.754557489330182e-06 45.84503936767578 1.388090133666992 38.90403747558594 4.125735759735107 32.36985015869141 C 6.769986152648926 26.05868530273438 10.55544471740723 20.39064407348633 15.37694454193115 15.52316474914551 C 20.19846534729004 10.65578937530518 25.81300735473633 6.834331035614014 32.06459045410156 4.164956092834473 C 38.53696441650391 1.401289343833923 45.41230010986328 -2.339681032026419e-06 52.49969482421875 -2.339681032026419e-06 C 59.58727645874023 -2.339681032026419e-06 66.46279907226562 1.401289343833923 72.93531799316406 4.164956092834473 C 79.18702697753906 6.834331035614014 84.80167388916016 10.65578937530518 89.62323760986328 15.52316474914551 C 94.44480133056641 20.39060211181641 98.23030090332031 26.05866432189941 100.8745727539062 32.36985015869141 C 103.6121978759766 38.90397644042969 105.0002975463867 45.84499740600586 105.0002975463867 53.00008010864258 C 105.0002975463867 59.6766242980957 102.2403411865234 68.41393280029297 96.79708862304688 78.96929168701172 C 92.44248962402344 87.41358184814453 86.37059020996094 97.03379058837891 78.75000762939453 107.5626831054688 C 65.81663513183594 125.4319381713867 52.6320915222168 140.0261688232422 52.50044250488281 140.1714782714844 L 52.49969482421875 140.1722869873047 Z M 52.49969482421875 33.00028991699219 C 49.46219253540039 33.00028991699219 46.51559066772461 33.59520721435547 43.74171447753906 34.76847839355469 C 41.06244277954102 35.90170669555664 38.65617370605469 37.5240592956543 36.58983993530273 39.59043502807617 C 34.52348709106445 41.65676879882812 32.90115356445312 44.06299591064453 31.76788139343262 46.74229049682617 C 30.59458923339844 49.51622772216797 29.99969482421875 52.46281051635742 29.99969482421875 55.50028991699219 C 29.99969482421875 58.53772735595703 30.59458923339844 61.48432922363281 31.76788139343262 64.25824737548828 C 32.90113067626953 66.93753814697266 34.52346420288086 69.34378814697266 36.58983993530273 71.41016387939453 C 38.65623474121094 73.4765625 41.06248474121094 75.09889221191406 43.74171447753906 76.23210144042969 C 46.51559066772461 77.40537261962891 49.46219253540039 78.00026702880859 52.49969482421875 78.00026702880859 C 55.53717422485352 78.00026702880859 58.48379898071289 77.40537261962891 61.25767517089844 76.23210144042969 C 63.93684005737305 75.09891510009766 66.34309387207031 73.47657775878906 68.40956878662109 71.41016387939453 C 70.47594451904297 69.34375 72.09829711914062 66.9375 73.23150634765625 64.25824737548828 C 74.40477752685547 61.48437118530273 74.99967193603516 58.53776931762695 74.99967193603516 55.50028991699219 C 74.99967193603516 52.46278762817383 74.40477752685547 49.51618576049805 73.23150634765625 46.74229049682617 C 72.09827423095703 44.06303787231445 70.47594451904297 41.65681076049805 68.40956878662109 39.59043502807617 C 66.34315490722656 37.52404022216797 63.93688201904297 35.90168380737305 61.25767517089844 34.76847839355469 C 58.48379898071289 33.59520721435547 55.53717422485352 33.00028991699219 52.49969482421875 33.00028991699219 Z" id="el_-lwhrqz1iR"/>
    </g></g>
    <g id="el_G_O7t4mYvB_GE9zkxgfU" data-animator-group="true" data-animator-type="0"><g id="el_G_O7t4mYvB" data-name="减去 4">
      <path d="M 33.82905960083008 86.12956237792969 C 31.04582023620605 82.98511505126953 24.73623085021973 75.67393493652344 18.52725028991699 67.20888519287109 C 13.67638397216797 60.59540176391602 9.817690849304199 54.56488037109375 7.058343887329102 49.28484344482422 C 3.701864004135132 42.86222839355469 1.99999725818634 37.61844253540039 1.99999725818634 33.69912338256836 C 1.99999725818634 29.41982841491699 2.840930700302124 25.26949501037598 4.499423980712891 21.36342811584473 C 6.101970672607422 17.58921432495117 8.396717071533203 14.19902801513672 11.31991767883301 11.28705501556396 C 14.24361038208008 8.374641418457031 17.6478099822998 6.088214874267578 21.4379711151123 4.491281509399414 C 25.36143684387207 2.838188171386719 29.53043746948242 2.000001668930054 33.82914352416992 2.000001668930054 C 38.12798309326172 2.000001668930054 42.29710388183594 2.838188171386719 46.22066497802734 4.491294860839844 C 50.01090240478516 6.088228225708008 53.41516876220703 8.374654769897461 56.33891677856445 11.28708171844482 C 59.26210403442383 14.19898796081543 61.55687713623047 17.58917427062988 63.15946578979492 21.36344146728516 C 64.81794738769531 25.26946830749512 65.65887451171875 29.4197883605957 65.65887451171875 33.69912338256836 C 65.65887451171875 37.61838912963867 63.95697021484375 42.86218643188477 60.6004524230957 49.28482818603516 C 57.84109115600586 54.56480026245117 53.98231887817383 60.59532165527344 49.13133239746094 67.20886993408203 C 42.92620849609375 75.66852569580078 36.61327362060547 82.9837646484375 33.82905960083008 86.12956237792969 Z M 33.82914352416992 18.98262786865234 C 31.60606384277344 18.98262786865234 29.44818305969238 19.41280174255371 27.41543769836426 20.26120185852051 C 25.45135688781738 21.08093452453613 23.68739700317383 22.25448226928711 22.17257118225098 23.74925422668457 C 20.65594482421875 25.24577522277832 19.46471786499023 26.98960113525391 18.63198471069336 28.93225479125977 C 17.76861000061035 30.94646835327148 17.33085060119629 33.08513641357422 17.33085060119629 35.28884124755859 C 17.33085060119629 37.49254989624023 17.76861000061035 39.63120269775391 18.63197135925293 41.64538955688477 C 19.4647045135498 43.58805465698242 20.65593147277832 45.33188247680664 22.17257118225098 46.82844161987305 C 23.68743705749512 48.32322692871094 25.45139694213867 49.49677658081055 27.41546440124512 50.31648254394531 C 29.44814300537109 51.16486740112305 31.60602378845215 51.59504318237305 33.82914352416992 51.59504318237305 C 36.05226516723633 51.59504318237305 38.21014404296875 51.16486740112305 40.24285125732422 50.31646728515625 C 42.20686340332031 49.49677658081055 43.9708251953125 48.3232421875 45.48569107055664 46.82846832275391 C 47.00241088867188 45.33182907104492 48.19363784790039 43.5880012512207 49.02631759643555 41.6453742980957 C 49.88965225219727 39.63129425048828 50.32741165161133 37.49263000488281 50.32741165161133 35.28884124755859 C 50.32741165161133 33.08504104614258 49.88965225219727 30.94637489318848 49.02630233764648 28.9322681427002 C 48.19358444213867 26.98960113525391 47.00235748291016 25.24576187133789 45.48569107055664 23.74922752380371 C 43.97085189819336 22.25446891784668 42.20689010620117 21.0809211730957 40.24282455444336 20.26120185852051 C 38.21010208129883 19.41280174255371 36.05222320556641 18.98262786865234 33.82914352416992 18.98262786865234 Z" id="el_fDBmpYFZ9mn"/>
      <path d="M 33.8291015625 83.09461212158203 C 37.00480270385742 79.43793487548828 42.30704498291016 73.13111877441406 47.51865386962891 66.02597045898438 C 52.31016159057617 59.49352645874023 56.11513137817383 53.5493278503418 58.82789993286133 48.35848236083984 C 61.03177642822266 44.14143371582031 63.65888214111328 38.17501831054688 63.65888214111328 33.69912719726562 C 63.65888214111328 29.68988037109375 62.87146759033203 25.80254173278809 61.31853103637695 22.14511108398438 C 59.81726837158203 18.60944938659668 57.6669921875 15.43300342559814 54.92743682861328 12.70403480529785 C 52.18682098388672 9.974019050598145 48.99617385864258 7.830957412719727 45.44412994384766 6.334388256072998 C 41.76768493652344 4.785403728485107 37.85983657836914 4.000003814697266 33.82914352416992 4.000003814697266 C 29.79860687255859 4.000003814697266 25.89086723327637 4.785403728485107 22.21451377868652 6.334372997283936 C 18.66255950927734 7.830942153930664 15.47196006774902 9.974003791809082 12.73140621185303 12.70398807525635 C 9.991852760314941 15.43301868438721 7.841575622558594 18.60946464538574 6.340344905853271 22.14506530761719 C 4.787406444549561 25.80254173278809 4.000006675720215 29.68989562988281 4.000006675720215 33.69912719726562 C 4.000006675720215 38.17509460449219 6.627068042755127 44.14149475097656 8.830899238586426 48.35851287841797 C 11.5436372756958 53.54938888549805 15.34856033325195 59.49358749389648 20.13994407653809 66.02598571777344 C 25.3523998260498 73.13243865966797 30.65397834777832 79.43859100341797 33.8291015625 83.09461212158203 M 33.82914352416992 16.98263359069824 C 36.31806945800781 16.98263359069824 38.73511505126953 17.4647274017334 41.01317596435547 18.41551208496094 C 43.21489715576172 19.33443450927734 45.19229888916016 20.64998817443848 46.89043807983398 22.32561874389648 C 48.59226989746094 24.00488090515137 49.92935943603516 25.96257209777832 50.86454391479492 28.14432716369629 C 51.83523559570312 30.40886497497559 52.32742309570312 32.8126335144043 52.32742309570312 35.28883361816406 C 52.32742309570312 37.76503372192383 51.83523559570312 40.16880416870117 50.86455917358398 42.43332672119141 C 49.92937469482422 44.61505126953125 48.59231567382812 46.5727424621582 46.89042282104492 48.25210952758789 C 45.19225311279297 49.92774200439453 43.21485137939453 51.24328231811523 41.01320648193359 52.16215896606445 C 38.73514556884766 53.11295700073242 36.31808471679688 53.59505081176758 33.82914352416992 53.59505081176758 C 31.34020614624023 53.59505081176758 28.92314529418945 53.11295700073242 26.64514541625977 52.16217422485352 C 24.4433765411377 51.24324798583984 22.4659595489502 49.92771148681641 20.76780700683594 48.25204849243164 C 19.06600570678711 46.57277297973633 17.72894477844238 44.61509704589844 16.79371452331543 42.43332672119141 C 15.82303714752197 40.16875839233398 15.33085250854492 37.7650032043457 15.33085250854492 35.28883361816406 C 15.33085250854492 32.81266403198242 15.82303714752197 30.40891075134277 16.79372978210449 28.14431190490723 C 17.72894477844238 25.96257209777832 19.06602096557617 24.00489616394043 20.76780700683594 22.32566452026367 C 22.46591377258301 20.6500186920166 24.44332885742188 19.33444976806641 26.64511489868164 18.41551208496094 C 28.92317581176758 17.4647274017334 31.3402214050293 16.98263359069824 33.82914352416992 16.98263359069824 M 33.82914352416992 89.1259765625 L 33.82865142822266 89.12546539306641 C 33.74386978149414 89.03311157226562 25.25234413146973 79.7591552734375 16.91456031799316 68.39175415039062 C 12.00419139862061 61.69715881347656 8.091713905334473 55.58032608032227 5.285806655883789 50.21117401123047 C 1.778391122817993 43.499755859375 6.486628535640193e-06 37.94429779052734 6.486628535640193e-06 33.69912719726562 C 6.486628535640193e-06 29.14972686767578 0.8944526314735413 24.73641967773438 2.658483505249023 20.58177375793457 C 4.36236047744751 16.56892585754395 6.801590919494629 12.96501922607422 9.908421516418457 9.870126724243164 C 13.0152530670166 6.775280475616455 16.63308334350586 4.345480442047119 20.66140556335449 2.648203611373901 C 24.83200645446777 0.890988290309906 29.26225280761719 3.665865278890124e-06 33.82914352416992 3.665865278890124e-06 C 38.39616012573242 3.665865278890124e-06 42.82653045654297 0.890988290309906 46.99720764160156 2.648203611373901 C 51.0256233215332 4.345480442047119 54.64351272583008 6.775280475616455 57.75037384033203 9.870126724243164 C 60.85723876953125 12.96498870849609 63.2964973449707 16.56892585754395 65.00037384033203 20.58177375793457 C 66.76441955566406 24.73638916015625 67.65888214111328 29.14971160888672 67.65888214111328 33.69912719726562 C 67.65888214111328 37.94427871704102 65.88043975830078 43.49974060058594 62.37297439575195 50.21117401123047 C 59.56702041625977 55.58032608032227 55.65446853637695 61.69715881347656 50.74402236938477 68.39175415039062 C 42.41016006469727 79.75358581542969 33.91445159912109 89.03306579589844 33.82962036132812 89.12546539306641 L 33.82914352416992 89.1259765625 Z M 33.82914352416992 20.98263359069824 C 31.87188339233398 20.98263359069824 29.97317504882812 21.36089515686035 28.18577575683594 22.10689544677734 C 26.45932960510254 22.82744979858398 24.90882110595703 23.85898780822754 23.57732963562012 25.17286491394043 C 22.24585342407227 26.48669624328613 21.20045280456543 28.01664924621582 20.47020721435547 29.72023391723633 C 19.71419143676758 31.48398780822754 19.33085250854492 33.35752487182617 19.33085250854492 35.28883361816406 C 19.33085250854492 37.22014236450195 19.71419143676758 39.09368133544922 20.47020721435547 40.8574333190918 C 21.20045280456543 42.56100463867188 22.2458381652832 44.09097290039062 23.57732963562012 45.40485000610352 C 24.90885353088379 46.71872711181641 26.45937538146973 47.75024795532227 28.18577575683594 48.47077178955078 C 29.97317504882812 49.21678924560547 31.87188339233398 49.59505081176758 33.82914352416992 49.59505081176758 C 35.78640747070312 49.59505081176758 37.68511581420898 49.21678924560547 39.47251510620117 48.47077178955078 C 41.19886779785156 47.75026702880859 42.7493896484375 46.71874237060547 44.08095932006836 45.40485000610352 C 45.41246795654297 44.09095764160156 46.45785140991211 42.56098937988281 47.18806838989258 40.8574333190918 C 47.94408416748047 39.09371185302734 48.32742309570312 37.22017288208008 48.32742309570312 35.28883361816406 C 48.32742309570312 33.35750961303711 47.94408416748047 31.48395729064941 47.18806838989258 29.72023391723633 C 46.45785140991211 28.01667976379395 45.41246795654297 26.4867115020752 44.08095932006836 25.17286491394043 C 42.74942016601562 23.85897254943848 41.19891357421875 22.82743453979492 39.47251510620117 22.10689544677734 C 37.68511581420898 21.36089515686035 35.78640747070312 20.98263359069824 33.82914352416992 20.98263359069824 Z" id="el_Wn3iuM3KaII"/>
    </g></g>
    <path id="el_m6-7h1zqlZk" data-name="路径 11" d="M-523.5,360.437c35.973-1.654,65.858-30.022,69.227-80.435S-407.7,233.61-407.7,233.61"/>
  </g>
<script>(function(){var a=document.querySelector('#el_UF2ynOfZuL'),b=a.querySelectorAll('style'),c=function(d){b.forEach(function(f){var g=f.textContent;g&amp;&amp;(f.textContent=g.replace(/transform-box:[^;\r\n]*/gi,'transform-box: '+d))})};c('initial'),window.requestAnimationFrame(function(){return c('fill-box')})})();</script></svg>