<svg xmlns="http://www.w3.org/2000/svg" viewBox="0 0 203.361 203.725">
  <defs>
    <style>
      .cls-1, .cls-7 {
        fill: none;
      }

      .cls-1, .cls-2 {
        stroke: #707070;
        stroke-width: 8px;
      }

      .cls-2, .cls-4 {
        fill: #fff;
      }

      .cls-3 {
        fill: #3aa883;
      }

      .cls-5 {
        fill: #888e8c;
      }

      .cls-6, .cls-8 {
        stroke: none;
      }

      .cls-8 {
        fill: #707070;
      }
    </style>
  </defs>
  <g id="组_6" data-name="组 6" transform="translate(-70 -232.998)">
    <path id="路径_16" data-name="路径 16" class="cls-1" d="M93.359,388.44" transform="translate(0 4.106)"/>
    <g id="组_5" data-name="组 5" transform="translate(70 237)">
      <g id="椭圆_14" data-name="椭圆 14" class="cls-2">
        <ellipse class="cls-6" cx="96.93" cy="93.553" rx="96.93" ry="93.553"/>
        <ellipse class="cls-7" cx="96.93" cy="93.553" rx="92.93" ry="89.553"/>
      </g>
      <line id="直线_26" data-name="直线 26" class="cls-1" y2="187.106" transform="translate(96.916 1.5)"/>
      <line id="直线_27" data-name="直线 27" class="cls-1" x2="193.861" y2="1" transform="translate(0.5 94.57)"/>
      <path id="路径_15" data-name="路径 15" class="cls-1" d="M161.5,423.962c-20.7-.566-35.466-25.771-43.128-47.946-8.961-25.932-8.206-51.469,0-81.208C126.432,265.6,161.5,238,161.5,238s35.176,25.221,43.593,56.808c6.94,26.042,6.145,56,0,81.208C198.432,403.347,184.887,424.6,161.5,423.962Z" transform="translate(-64.669 -237)"/>
      <path id="路径_17" data-name="路径 17" class="cls-1" d="M82.1,380.6c78.41-36.617,154.327,4.845,154.327,4.845" transform="translate(-63.087 -233.794)"/>
      <path id="路径_18" data-name="路径 18" class="cls-1" d="M89.015,273.326s83.525,52.129,155.327,0" transform="translate(-70 -236.076)"/>
    </g>
    <g id="减去_6" data-name="减去 6" class="cls-3" transform="translate(205 338.518)">
      <path class="cls-6" d="M 34.17997741699219 88.07199859619141 C 31.3720588684082 84.86359405517578 24.99092102050781 77.38573455810547 18.70911979675293 68.72276306152344 C 13.80661392211914 61.9619140625 9.906627655029297 55.7966194152832 7.117494106292725 50.39815139770508 C 3.721774101257324 43.82561874389648 2.000000715255737 38.45677947998047 2.000000715255737 34.44073867797852 C 2.000000715255737 30.05845832824707 2.851280689239502 25.8084716796875 4.530187606811523 21.80881881713867 C 6.151827335357666 17.94565963745117 8.473520278930664 14.47596549987793 11.43077373504639 11.49615287780762 C 14.38696098327637 8.517472267150879 17.82853317260742 6.179219245910645 21.65985488891602 4.546365737915039 C 25.62438774108887 2.856725931167603 29.83678817749023 2.000005960464478 34.18002700805664 2.000005960464478 C 38.52341461181641 2.000005960464478 42.73593521118164 2.856725931167603 46.7005615234375 4.546365737915039 C 50.53195953369141 6.179219245910645 53.97357559204102 8.517472267150879 56.92981338500977 11.49617958068848 C 59.88709259033203 14.47596549987793 62.20881271362305 17.94564628601074 63.8304557800293 21.8088321685791 C 65.50936126708984 25.80843353271484 66.36064147949219 30.05842018127441 66.36064147949219 34.44073867797852 C 66.36064147949219 38.45675277709961 64.63883972167969 43.82560729980469 61.24308013916016 50.39813995361328 C 58.45389556884766 55.79660415649414 54.55384063720703 61.96189880371094 49.65125274658203 68.72275543212891 C 43.3723030090332 77.38163757324219 36.98891830444336 84.86226654052734 34.17997741699219 88.07199859619141 Z M 34.18002700805664 19.44439315795898 C 31.93380165100098 19.44439315795898 29.75369453430176 19.88395309448242 27.70024108886719 20.7508716583252 C 25.71762657165527 21.5878734588623 23.93738746643066 22.7857666015625 22.40898704528809 24.31129837036133 C 20.8803882598877 25.83700561523438 19.67996025085449 27.61433982849121 18.84106826782227 29.59389877319336 C 17.97200012207031 31.64473915100098 17.5313606262207 33.82207107543945 17.5313606262207 36.06544494628906 C 17.5313606262207 38.30880737304688 17.97200012207031 40.48612594604492 18.84105491638184 42.53692626953125 C 19.67994689941406 44.51652526855469 20.8803882598877 46.29385757446289 22.40900039672852 47.81960678100586 C 23.93738746643066 49.34511184692383 25.71762657165527 50.54300689697266 27.70026779174805 51.3800048828125 C 29.7536678314209 52.24691390991211 31.93378829956055 52.68647384643555 34.18002700805664 52.68647384643555 C 36.42626571655273 52.68647384643555 38.60637283325195 52.24691390991211 40.6598014831543 51.3800048828125 C 42.64238739013672 50.54301834106445 44.42262649536133 49.34512710571289 45.95105361938477 47.81961822509766 C 47.47972106933594 46.29380416870117 48.68014907836914 44.51646041870117 49.51898574829102 42.53692626953125 C 50.38804244995117 40.48617935180664 50.82868194580078 38.30886077880859 50.82868194580078 36.06544494628906 C 50.82868194580078 33.82200622558594 50.38804244995117 31.64467239379883 49.51898574829102 29.59391212463379 C 48.68013381958008 27.61436653137207 47.47970581054688 25.83703231811523 45.95105361938477 24.3112850189209 C 44.42261505126953 22.78573989868164 42.64236068725586 21.58784675598145 40.65977478027344 20.7508716583252 C 38.60634613037109 19.88395309448242 36.42623901367188 19.44439315795898 34.18002700805664 19.44439315795898 Z"/>
      <path class="cls-8" d="M 34.17998886108398 85.01749420166016 C 37.38731002807617 81.28266906738281 42.75464248657227 74.82649993896484 48.03213500976562 67.54866790771484 C 52.87598037719727 60.86883926391602 56.72296524047852 54.78969955444336 59.46622848510742 49.4801025390625 C 61.69904327392578 45.15848541259766 64.36064147949219 39.04125595092773 64.36064147949219 34.44073104858398 C 64.36064147949219 30.32568550109863 63.56181335449219 26.33613204956055 61.98635101318359 22.58293151855469 C 60.46458053588867 18.95770072937012 58.28572082519531 15.70159339904785 55.51027297973633 12.90503978729248 C 52.73687362670898 10.1105785369873 49.5090446472168 7.917332172393799 45.91644287109375 6.386239528656006 C 42.20112228393555 4.802855014801025 38.2524299621582 4.000009059906006 34.18002700805664 4.000009059906006 C 30.1077823638916 4.000009059906006 26.1591968536377 4.802855014801025 22.44398307800293 6.386239528656006 C 18.85144424438477 7.917332172393799 15.62365913391113 10.11056327819824 12.8503360748291 12.90499401092529 C 10.07490539550781 15.70159339904785 7.89604377746582 18.95773124694824 6.374305248260498 22.58290100097656 C 4.798828601837158 26.33616256713867 3.999997615814209 30.32571601867676 3.999997615814209 34.44073104858398 C 3.999997615814209 39.04125595092773 6.661566734313965 45.15850067138672 8.894351959228516 49.48013305664062 C 11.63753604888916 54.78966903686523 15.48444366455078 60.86882400512695 20.32822799682617 67.54869842529297 C 25.60656547546387 74.82782745361328 30.97325897216797 81.28334808349609 34.17998886108398 85.01749420166016 M 34.18002700805664 17.44439315795898 C 36.69487380981445 17.44439315795898 39.13670349121094 17.93693161010742 41.43764495849609 18.90833282470703 C 43.65853500366211 19.84591674804688 45.65241241455078 21.18747138977051 47.36392211914062 22.89573287963867 C 49.07588958740234 24.60444068908691 50.4205207824707 26.59548568725586 51.3604736328125 28.81356239318848 C 52.3347053527832 31.11254692077637 52.82868957519531 33.55244064331055 52.82868957519531 36.0654411315918 C 52.82868957519531 38.57844161987305 52.3347053527832 41.01833343505859 51.3604736328125 43.31728744506836 C 50.42056655883789 45.53528594970703 49.07595062255859 47.52634811401367 47.36390686035156 49.23519515991211 C 45.65239715576172 50.94342422485352 43.65851974487305 52.28496170043945 41.43764495849609 53.22253036499023 C 39.13670349121094 54.19393157958984 36.69487380981445 54.68647003173828 34.18002700805664 54.68647003173828 C 31.6651668548584 54.68647003173828 29.22333526611328 54.19393157958984 26.92241287231445 53.2225456237793 C 24.70149040222168 52.28494644165039 22.70759773254395 50.94339370727539 20.99612045288086 49.23514556884766 C 19.28416633605957 47.52640914916992 17.93953704833984 45.53536224365234 16.99956703186035 43.31728744506836 C 16.02533531188965 41.01825332641602 15.53135108947754 38.57837677001953 15.53135108947754 36.0654411315918 C 15.53135108947754 33.55247116088867 16.02533531188965 31.11259269714355 16.99958229064941 28.81353187561035 C 17.93955230712891 26.59545516967773 19.2841968536377 24.60440826416016 20.9961051940918 22.89577865600586 C 22.7075366973877 21.18753242492676 24.70142936706543 19.84596252441406 26.92239761352539 18.90833282470703 C 29.22333526611328 17.93693161010742 31.6651668548584 17.44439315795898 34.18002700805664 17.44439315795898 M 34.18002700805664 91.08737945556641 L 34.17953491210938 91.08683776855469 C 34.0938606262207 90.99245452880859 25.51427459716797 81.51441192626953 17.08999824523926 69.89685821533203 C 12.12870502471924 63.054931640625 8.175643920898438 56.80347061157227 5.340628623962402 51.316162109375 C 1.796843767166138 44.45705413818359 -2.337176965738763e-06 38.77933120727539 -2.337176965738763e-06 34.44073104858398 C -2.337176965738763e-06 29.79122352600098 0.9037207365036011 25.28079414367676 2.686059236526489 21.03471755981445 C 4.407613277435303 16.93356323242188 6.872136116027832 13.25033187866211 10.01118183135986 10.08733177185059 C 13.15024375915527 6.924393653869629 16.80561256408691 4.441116809844971 20.8757209777832 2.706485986709595 C 25.08956718444824 0.9105936288833618 29.56576728820801 8.99000860954402e-06 34.18002700805664 8.99000860954402e-06 C 38.79441452026367 8.99000860954402e-06 43.27073669433594 0.9105936288833618 47.48467636108398 2.706485986709595 C 51.55487442016602 4.441116809844971 55.21028900146484 6.924393653869629 58.34938049316406 10.08733177185059 C 61.48847579956055 13.25030136108398 63.95302963256836 16.93354797363281 65.67458343505859 21.03471755981445 C 67.45692443847656 25.28076362609863 68.36064147949219 29.79119300842285 68.36064147949219 34.44073104858398 C 68.36064147949219 38.77931594848633 66.56378173828125 44.45703887939453 63.01993560791016 51.316162109375 C 60.18486022949219 56.80347061157227 56.23173522949219 63.054931640625 51.27035140991211 69.89685821533203 C 42.85004425048828 81.50873565673828 34.26622772216797 90.99240875244141 34.18050384521484 91.08683776855469 L 34.18002700805664 91.08737945556641 Z M 34.18002700805664 21.44439315795898 C 32.20245742797852 21.44439315795898 30.28405952453613 21.83097839355469 28.47812080383301 22.59339332580566 C 26.7337818145752 23.32980918884277 25.16718292236328 24.38405609130859 23.82188987731934 25.72683906555176 C 22.47658157348633 27.06957817077637 21.42035102844238 28.63320922851562 20.68253517150879 30.37427139282227 C 19.91867446899414 32.17683792114258 19.53135108947754 34.09162521362305 19.53135108947754 36.0654411315918 C 19.53135108947754 38.03923797607422 19.91867446899414 39.95401000976562 20.68253517150879 41.75657653808594 C 21.42035102844238 43.49763870239258 22.47658157348633 45.06128692626953 23.82188987731934 46.40407180786133 C 25.16721343994141 47.74685668945312 26.73381233215332 48.80108642578125 28.47812080383301 49.53747177124023 C 30.28405952453613 50.29988479614258 32.20245742797852 50.68647003173828 34.18002700805664 50.68647003173828 C 36.1575813293457 50.68647003173828 38.07598114013672 50.29988479614258 39.88191986083984 49.53747177124023 C 41.62619781494141 48.80110168457031 43.19279861450195 47.74688720703125 44.53818130493164 46.40407180786133 C 45.88350677490234 45.06125640869141 46.93973541259766 43.49760818481445 47.67752075195312 41.75657653808594 C 48.44138336181641 39.95404052734375 48.82868957519531 38.03927230834961 48.82868957519531 36.0654411315918 C 48.82868957519531 34.09160995483398 48.44138336181641 32.17682266235352 47.67752075195312 30.37427139282227 C 46.93972015380859 28.63323974609375 45.88350677490234 27.06960868835449 44.53818130493164 25.72683906555176 C 43.19282913208008 24.3840389251709 41.62624359130859 23.32979393005371 39.88191986083984 22.59339332580566 C 38.07598114013672 21.83097839355469 36.1575813293457 21.44439315795898 34.18002700805664 21.44439315795898 Z"/>
    </g>
    <path id="路径_22" data-name="路径 22" class="cls-4" d="M39.146,0c21.62,0,37.978,16.118,37.978,36s-37.978,69.723-37.978,69.723S0,55.882,0,36,17.526,0,39.146,0Z" transform="translate(196 331)"/>
    <g id="减去_8" data-name="减去 8" class="cls-5" transform="translate(205 338.518)">
      <path class="cls-6" d="M 34.17997741699219 88.07199859619141 C 31.3720588684082 84.86359405517578 24.99092102050781 77.38573455810547 18.70911979675293 68.72276306152344 C 13.80661392211914 61.9619140625 9.906627655029297 55.7966194152832 7.117494106292725 50.39815139770508 C 3.721774101257324 43.82561874389648 2.000000715255737 38.45677947998047 2.000000715255737 34.44073867797852 C 2.000000715255737 30.05845832824707 2.851280689239502 25.8084716796875 4.530187606811523 21.80881881713867 C 6.151827335357666 17.94565963745117 8.473520278930664 14.47596549987793 11.43077373504639 11.49615287780762 C 14.38696098327637 8.517472267150879 17.82853317260742 6.179219245910645 21.65985488891602 4.546365737915039 C 25.62438774108887 2.856725931167603 29.83678817749023 2.000005960464478 34.18002700805664 2.000005960464478 C 38.52341461181641 2.000005960464478 42.73593521118164 2.856725931167603 46.7005615234375 4.546365737915039 C 50.53195953369141 6.179219245910645 53.97357559204102 8.517472267150879 56.92981338500977 11.49617958068848 C 59.88709259033203 14.47596549987793 62.20881271362305 17.94564628601074 63.8304557800293 21.8088321685791 C 65.50936126708984 25.80843353271484 66.36064147949219 30.05842018127441 66.36064147949219 34.44073867797852 C 66.36064147949219 38.45675277709961 64.63883972167969 43.82560729980469 61.24308013916016 50.39813995361328 C 58.45389556884766 55.79660415649414 54.55384063720703 61.96189880371094 49.65125274658203 68.72275543212891 C 43.3723030090332 77.38163757324219 36.98891830444336 84.86226654052734 34.17997741699219 88.07199859619141 Z M 34.18002700805664 19.44439315795898 C 31.93380165100098 19.44439315795898 29.75369453430176 19.88395309448242 27.70024108886719 20.7508716583252 C 25.71762657165527 21.5878734588623 23.93738746643066 22.7857666015625 22.40898704528809 24.31129837036133 C 20.8803882598877 25.83700561523438 19.67996025085449 27.61433982849121 18.84106826782227 29.59389877319336 C 17.97200012207031 31.64473915100098 17.5313606262207 33.82207107543945 17.5313606262207 36.06544494628906 C 17.5313606262207 38.30880737304688 17.97200012207031 40.48612594604492 18.84105491638184 42.53692626953125 C 19.67994689941406 44.51652526855469 20.8803882598877 46.29385757446289 22.40900039672852 47.81960678100586 C 23.93738746643066 49.34511184692383 25.71762657165527 50.54300689697266 27.70026779174805 51.3800048828125 C 29.7536678314209 52.24691390991211 31.93378829956055 52.68647384643555 34.18002700805664 52.68647384643555 C 36.42626571655273 52.68647384643555 38.60637283325195 52.24691390991211 40.6598014831543 51.3800048828125 C 42.64238739013672 50.54301834106445 44.42262649536133 49.34512710571289 45.95105361938477 47.81961822509766 C 47.47972106933594 46.29380416870117 48.68014907836914 44.51646041870117 49.51898574829102 42.53692626953125 C 50.38804244995117 40.48617935180664 50.82868194580078 38.30886077880859 50.82868194580078 36.06544494628906 C 50.82868194580078 33.82200622558594 50.38804244995117 31.64467239379883 49.51898574829102 29.59391212463379 C 48.68013381958008 27.61436653137207 47.47970581054688 25.83703231811523 45.95105361938477 24.3112850189209 C 44.42261505126953 22.78573989868164 42.64236068725586 21.58784675598145 40.65977478027344 20.7508716583252 C 38.60634613037109 19.88395309448242 36.42623901367188 19.44439315795898 34.18002700805664 19.44439315795898 Z"/>
      <path class="cls-8" d="M 34.17998886108398 85.01749420166016 C 37.38731002807617 81.28266906738281 42.75464248657227 74.82649993896484 48.03213500976562 67.54866790771484 C 52.87598037719727 60.86883926391602 56.72296524047852 54.78969955444336 59.46622848510742 49.4801025390625 C 61.69904327392578 45.15848541259766 64.36064147949219 39.04125595092773 64.36064147949219 34.44073104858398 C 64.36064147949219 30.32568550109863 63.56181335449219 26.33613204956055 61.98635101318359 22.58293151855469 C 60.46458053588867 18.95770072937012 58.28572082519531 15.70159339904785 55.51027297973633 12.90503978729248 C 52.73687362670898 10.1105785369873 49.5090446472168 7.917332172393799 45.91644287109375 6.386239528656006 C 42.20112228393555 4.802855014801025 38.2524299621582 4.000009059906006 34.18002700805664 4.000009059906006 C 30.1077823638916 4.000009059906006 26.1591968536377 4.802855014801025 22.44398307800293 6.386239528656006 C 18.85144424438477 7.917332172393799 15.62365913391113 10.11056327819824 12.8503360748291 12.90499401092529 C 10.07490539550781 15.70159339904785 7.89604377746582 18.95773124694824 6.374305248260498 22.58290100097656 C 4.798828601837158 26.33616256713867 3.999997615814209 30.32571601867676 3.999997615814209 34.44073104858398 C 3.999997615814209 39.04125595092773 6.661566734313965 45.15850067138672 8.894351959228516 49.48013305664062 C 11.63753604888916 54.78966903686523 15.48444366455078 60.86882400512695 20.32822799682617 67.54869842529297 C 25.60656547546387 74.82782745361328 30.97325897216797 81.28334808349609 34.17998886108398 85.01749420166016 M 34.18002700805664 17.44439315795898 C 36.69487380981445 17.44439315795898 39.13670349121094 17.93693161010742 41.43764495849609 18.90833282470703 C 43.65853500366211 19.84591674804688 45.65241241455078 21.18747138977051 47.36392211914062 22.89573287963867 C 49.07588958740234 24.60444068908691 50.4205207824707 26.59548568725586 51.3604736328125 28.81356239318848 C 52.3347053527832 31.11254692077637 52.82868957519531 33.55244064331055 52.82868957519531 36.0654411315918 C 52.82868957519531 38.57844161987305 52.3347053527832 41.01833343505859 51.3604736328125 43.31728744506836 C 50.42056655883789 45.53528594970703 49.07595062255859 47.52634811401367 47.36390686035156 49.23519515991211 C 45.65239715576172 50.94342422485352 43.65851974487305 52.28496170043945 41.43764495849609 53.22253036499023 C 39.13670349121094 54.19393157958984 36.69487380981445 54.68647003173828 34.18002700805664 54.68647003173828 C 31.6651668548584 54.68647003173828 29.22333526611328 54.19393157958984 26.92241287231445 53.2225456237793 C 24.70149040222168 52.28494644165039 22.70759773254395 50.94339370727539 20.99612045288086 49.23514556884766 C 19.28416633605957 47.52640914916992 17.93953704833984 45.53536224365234 16.99956703186035 43.31728744506836 C 16.02533531188965 41.01825332641602 15.53135108947754 38.57837677001953 15.53135108947754 36.0654411315918 C 15.53135108947754 33.55247116088867 16.02533531188965 31.11259269714355 16.99958229064941 28.81353187561035 C 17.93955230712891 26.59545516967773 19.2841968536377 24.60440826416016 20.9961051940918 22.89577865600586 C 22.7075366973877 21.18753242492676 24.70142936706543 19.84596252441406 26.92239761352539 18.90833282470703 C 29.22333526611328 17.93693161010742 31.6651668548584 17.44439315795898 34.18002700805664 17.44439315795898 M 34.18002700805664 91.08737945556641 L 34.17953491210938 91.08683776855469 C 34.0938606262207 90.99245452880859 25.51427459716797 81.51441192626953 17.08999824523926 69.89685821533203 C 12.12870502471924 63.054931640625 8.175643920898438 56.80347061157227 5.340628623962402 51.316162109375 C 1.796843767166138 44.45705413818359 -2.337176965738763e-06 38.77933120727539 -2.337176965738763e-06 34.44073104858398 C -2.337176965738763e-06 29.79122352600098 0.9037207365036011 25.28079414367676 2.686059236526489 21.03471755981445 C 4.407613277435303 16.93356323242188 6.872136116027832 13.25033187866211 10.01118183135986 10.08733177185059 C 13.15024375915527 6.924393653869629 16.80561256408691 4.441116809844971 20.8757209777832 2.706485986709595 C 25.08956718444824 0.9105936288833618 29.56576728820801 8.99000860954402e-06 34.18002700805664 8.99000860954402e-06 C 38.79441452026367 8.99000860954402e-06 43.27073669433594 0.9105936288833618 47.48467636108398 2.706485986709595 C 51.55487442016602 4.441116809844971 55.21028900146484 6.924393653869629 58.34938049316406 10.08733177185059 C 61.48847579956055 13.25030136108398 63.95302963256836 16.93354797363281 65.67458343505859 21.03471755981445 C 67.45692443847656 25.28076362609863 68.36064147949219 29.79119300842285 68.36064147949219 34.44073104858398 C 68.36064147949219 38.77931594848633 66.56378173828125 44.45703887939453 63.01993560791016 51.316162109375 C 60.18486022949219 56.80347061157227 56.23173522949219 63.054931640625 51.27035140991211 69.89685821533203 C 42.85004425048828 81.50873565673828 34.26622772216797 90.99240875244141 34.18050384521484 91.08683776855469 L 34.18002700805664 91.08737945556641 Z M 34.18002700805664 21.44439315795898 C 32.20245742797852 21.44439315795898 30.28405952453613 21.83097839355469 28.47812080383301 22.59339332580566 C 26.7337818145752 23.32980918884277 25.16718292236328 24.38405609130859 23.82188987731934 25.72683906555176 C 22.47658157348633 27.06957817077637 21.42035102844238 28.63320922851562 20.68253517150879 30.37427139282227 C 19.91867446899414 32.17683792114258 19.53135108947754 34.09162521362305 19.53135108947754 36.0654411315918 C 19.53135108947754 38.03923797607422 19.91867446899414 39.95401000976562 20.68253517150879 41.75657653808594 C 21.42035102844238 43.49763870239258 22.47658157348633 45.06128692626953 23.82188987731934 46.40407180786133 C 25.16721343994141 47.74685668945312 26.73381233215332 48.80108642578125 28.47812080383301 49.53747177124023 C 30.28405952453613 50.29988479614258 32.20245742797852 50.68647003173828 34.18002700805664 50.68647003173828 C 36.1575813293457 50.68647003173828 38.07598114013672 50.29988479614258 39.88191986083984 49.53747177124023 C 41.62619781494141 48.80110168457031 43.19279861450195 47.74688720703125 44.53818130493164 46.40407180786133 C 45.88350677490234 45.06125640869141 46.93973541259766 43.49760818481445 47.67752075195312 41.75657653808594 C 48.44138336181641 39.95404052734375 48.82868957519531 38.03927230834961 48.82868957519531 36.0654411315918 C 48.82868957519531 34.09160995483398 48.44138336181641 32.17682266235352 47.67752075195312 30.37427139282227 C 46.93972015380859 28.63323974609375 45.88350677490234 27.06960868835449 44.53818130493164 25.72683906555176 C 43.19282913208008 24.3840389251709 41.62624359130859 23.32979393005371 39.88191986083984 22.59339332580566 C 38.07598114013672 21.83097839355469 36.1575813293457 21.44439315795898 34.18002700805664 21.44439315795898 Z"/>
    </g>
  </g>
</svg>
