<svg xmlns="http://www.w3.org/2000/svg" viewBox="0 0 184 182">
  <defs>
    <style>
      .cls-1 {
        fill: #716e6e;
        stroke: #707070;
      }
    </style>
  </defs>
  <path id="减去_9" data-name="减去 9" class="cls-1" d="M92,181.5a93.158,93.158,0,0,1-18.44-1.839A91.582,91.582,0,0,1,16.127,141.6a89.629,89.629,0,0,1,0-101.2A91.589,91.589,0,0,1,73.559,2.339a93.393,93.393,0,0,1,36.881,0A91.582,91.582,0,0,1,167.873,40.4a89.628,89.628,0,0,1,0,101.2,91.591,91.591,0,0,1-57.433,38.062A93.159,93.159,0,0,1,92,181.5Zm2.344-79.93,42.742,32.136L105.534,56.046,94.343,28.5,46.1,133.707l.252-.17.189-.127c43.983-29.6,47.769-31.82,47.8-31.839Z" transform="translate(0 0)"/>
</svg>
