<svg xmlns="http://www.w3.org/2000/svg" viewBox="0 0 161 162">
  <defs>
    <style>
      .cls-1 {
        fill: #f8f7f7;
        stroke: #707070;
        stroke-width: 4px;
      }
    </style>
  </defs>
  <path id="排除_1" data-name="排除 1" class="cls-1" d="M79,158.5a78.6,78.6,0,0,1-15.821-1.6,77.806,77.806,0,0,1-28.07-11.887A79,79,0,0,1,2.1,95.421a80.27,80.27,0,0,1,0-31.843A78.916,78.916,0,0,1,48.444,6.709a77.743,77.743,0,0,1,14.735-4.6,78.775,78.775,0,0,1,31.641,0A77.807,77.807,0,0,1,122.89,13.992a79,79,0,0,1,33.015,49.586,80.267,80.267,0,0,1,0,31.843,78.917,78.917,0,0,1-46.349,56.871,77.742,77.742,0,0,1-14.735,4.6A78.6,78.6,0,0,1,79,158.5ZM128.547,42.434c-.076.043-8.193,4.522-60.757,27.78L30.374,117.56,90.414,93.3ZM79,88.5a6.019,6.019,0,1,1,6.5-6A6.272,6.272,0,0,1,79,88.5Z" transform="translate(1.5 1.5)"/>
</svg>
