<svg xmlns="http://www.w3.org/2000/svg" viewBox="0 0 189.421 276.6">
  <defs>
    <style>
      .cls-1 {
        fill: #989898;
      }

      .cls-1, .cls-2, .cls-3, .cls-4 {
        stroke: #707070;
      }

      .cls-2 {
        fill: #fff;
      }

      .cls-3 {
        fill: #8b8787;
      }

      .cls-4, .cls-6 {
        fill: none;
      }

      .cls-4 {
        stroke-width: 4px;
      }

      .cls-5 {
        stroke: none;
      }
    </style>
  </defs>
  <g id="组_10" data-name="组 10" transform="translate(377 -361.4)">
    <g id="矩形_1" data-name="矩形 1" class="cls-1" transform="translate(-377 386)">
      <rect class="cls-5" width="170" height="252" rx="38"/>
      <rect class="cls-6" x="0.5" y="0.5" width="169" height="251" rx="37.5"/>
    </g>
    <g id="矩形_2" data-name="矩形 2" class="cls-2" transform="translate(-346 420)">
      <rect class="cls-5" width="108" height="172"/>
      <rect class="cls-6" x="0.5" y="0.5" width="107" height="171"/>
    </g>
    <g id="椭圆_20" data-name="椭圆 20" class="cls-2" transform="translate(-305 601)">
      <circle class="cls-5" cx="13.5" cy="13.5" r="13.5"/>
      <circle class="cls-6" cx="13.5" cy="13.5" r="13"/>
    </g>
    <path id="减去_10" data-name="减去 10" class="cls-3" d="M38.558,76.609a38.342,38.342,0,0,1-7.67-.773A37.851,37.851,0,0,1,17.28,70.11,38.166,38.166,0,0,1,3.491,53.367a37.861,37.861,0,0,1-2.218-7.143,38.422,38.422,0,0,1,0-15.339A37.844,37.844,0,0,1,7,17.278,38.168,38.168,0,0,1,23.744,3.491a37.868,37.868,0,0,1,7.144-2.217,38.432,38.432,0,0,1,15.34,0A37.851,37.851,0,0,1,59.836,7,38.166,38.166,0,0,1,73.625,23.742a37.859,37.859,0,0,1,2.218,7.143,38.421,38.421,0,0,1,0,15.339,37.844,37.844,0,0,1-5.726,13.607A38.169,38.169,0,0,1,53.372,73.619a37.87,37.87,0,0,1-7.144,2.217A38.342,38.342,0,0,1,38.558,76.609ZM39.533,43,57.31,56.512,44.187,23.857,39.533,12.274,19.466,56.512l.105-.071.079-.054C37.944,43.939,39.519,43.007,39.532,43Z" transform="translate(-330 467)"/>
    <g id="组_9" data-name="组 9" transform="translate(1 -1)">
      <path id="路径_25" data-name="路径 25" class="cls-4" d="M-217.942,375.181A15.269,15.269,0,0,1-204.7,388.359" transform="translate(0.72 1.51)"/>
      <path id="路径_26" data-name="路径 26" class="cls-4" d="M-219.8,364.685c12.8,21.95-3.382,31.267-3.382,31.267" transform="translate(-363.702 -31.869) rotate(-51)"/>
    </g>
    <path id="路径_27" data-name="路径 27" class="cls-4" d="M-218.741,383.18c4.492,7.356-2.86,8.652-2.86,8.652" transform="matrix(0.485, -0.875, 0.875, 0.485, -447.559, 6.464)"/>
  </g>
</svg>
