<svg xmlns="http://www.w3.org/2000/svg" viewBox="0 0 95 142.5">
  <defs>
    <style>
      .cls-1 {
        fill: #656262;
      }

      .cls-1, .cls-2, .cls-3 {
        stroke: #707070;
      }

      .cls-2 {
        fill: #fdfdfd;
        stroke-width: 8px;
      }

      .cls-3, .cls-5 {
        fill: none;
      }

      .cls-3 {
        stroke-width: 4px;
      }

      .cls-4 {
        stroke: none;
      }
    </style>
  </defs>
  <g id="组_3" data-name="组 3" transform="translate(508 -137)">
    <g id="椭圆_7" data-name="椭圆 7" class="cls-1" transform="translate(-482 137)">
      <ellipse class="cls-4" cx="13" cy="13.5" rx="13" ry="13.5"/>
      <ellipse class="cls-5" cx="13" cy="13.5" rx="12.5" ry="13"/>
    </g>
    <g id="椭圆_8" data-name="椭圆 8" class="cls-2" transform="translate(-482 137)">
      <ellipse class="cls-4" cx="13" cy="13.5" rx="13" ry="13.5"/>
      <ellipse class="cls-5" cx="13" cy="13.5" rx="9" ry="9.5"/>
    </g>
    <g id="椭圆_9" data-name="椭圆 9" class="cls-2" transform="translate(-439 205.145)">
      <ellipse class="cls-4" cx="13" cy="13.5" rx="13" ry="13.5"/>
      <ellipse class="cls-5" cx="13" cy="13.5" rx="9" ry="9.5"/>
    </g>
    <g id="椭圆_10" data-name="椭圆 10" class="cls-2" transform="translate(-508 188.975)">
      <ellipse class="cls-4" cx="13" cy="13.5" rx="13" ry="13.5"/>
      <ellipse class="cls-5" cx="13" cy="13.5" rx="9" ry="9.5"/>
    </g>
    <g id="椭圆_11" data-name="椭圆 11" class="cls-2" transform="translate(-465 252.5)">
      <ellipse class="cls-4" cx="13" cy="13.5" rx="13" ry="13.5"/>
      <ellipse class="cls-5" cx="13" cy="13.5" rx="9" ry="9.5"/>
    </g>
    <line id="直线_23" data-name="直线 23" class="cls-3" x1="18" y2="26" transform="translate(-489.5 161.799)"/>
    <line id="直线_24" data-name="直线 24" class="cls-3" x2="46" y2="10" transform="translate(-484.5 204.382)"/>
    <line id="直线_25" data-name="直线 25" class="cls-3" x1="14" y2="21" transform="translate(-445.5 231.563)"/>
  </g>
</svg>
