<svg xmlns="http://www.w3.org/2000/svg" viewBox="0 0 105 140" id="el_1XPFzL3k2S"><style>@-webkit-keyframes el_3ZcDYx4YLF_WxZjjP_ac_Animation{0%{-webkit-transform: scale(1, 1);transform: scale(1, 1);}33.33%{-webkit-transform: scale(0.9, 0.9);transform: scale(0.9, 0.9);}66.67%{-webkit-transform: scale(1, 1);transform: scale(1, 1);}100%{-webkit-transform: scale(1, 1);transform: scale(1, 1);}}@keyframes el_3ZcDYx4YLF_WxZjjP_ac_Animation{0%{-webkit-transform: scale(1, 1);transform: scale(1, 1);}33.33%{-webkit-transform: scale(0.9, 0.9);transform: scale(0.9, 0.9);}66.67%{-webkit-transform: scale(1, 1);transform: scale(1, 1);}100%{-webkit-transform: scale(1, 1);transform: scale(1, 1);}}#el_1XPFzL3k2S *{-webkit-animation-duration: 3s;animation-duration: 3s;-webkit-animation-iteration-count: infinite;animation-iteration-count: infinite;-webkit-animation-timing-function: cubic-bezier(0, 0, 1, 1);animation-timing-function: cubic-bezier(0, 0, 1, 1);}#el_3ZcDYx4YLF{fill: #3aa883;-webkit-transform: translate(0px, 0px);transform: translate(0px, 0px);}#el_8IGTFUkQDj{stroke: none;}#el_r3zRN51KUX{stroke: none;fill: #707070;}#el_3ZcDYx4YLF_WxZjjP_ac{-webkit-animation-name: el_3ZcDYx4YLF_WxZjjP_ac_Animation;animation-name: el_3ZcDYx4YLF_WxZjjP_ac_Animation;-webkit-transform-origin: 50% 50%;transform-origin: 50% 50%;transform-box: fill-box;-webkit-transform: scale(1, 1);transform: scale(1, 1);}</style>
  <defs>
    
  </defs>
  <g id="el_3ZcDYx4YLF_WxZjjP_ac" data-animator-group="true" data-animator-type="2"><g id="el_3ZcDYx4YLF" data-name="减去 1">
    <path d="M 52.49972915649414 137.1621856689453 C 48.70475769042969 132.8517608642578 38.20896911621094 120.6750183105469 27.86998748779297 106.3900756835938 C 20.30816841125488 95.94211578369141 14.28932762145996 86.40803527832031 9.980648040771484 78.05265808105469 C 4.68508768081665 67.78351593017578 2.00000786781311 59.35461807250977 2.00000786781311 53.00008010864258 C 2.00000786781311 46.11183929443359 3.335827827453613 39.43085861206055 5.970387935638428 33.14273834228516 C 8.514987945556641 27.06941795349121 12.15788745880127 21.61489868164062 16.7978687286377 16.9306583404541 C 21.43656730651855 12.24783897399902 26.83726692199707 8.57167911529541 32.8499870300293 6.004298686981201 C 39.07268905639648 3.347258806228638 45.68380737304688 2.000018835067749 52.49970626831055 2.000018835067749 C 59.31582641601562 2.000018835067749 65.92713165283203 3.347258806228638 72.14994812011719 6.004298686981201 C 78.16281127929688 8.571699142456055 83.56360626220703 12.24785900115967 88.20236968994141 16.93067932128906 C 92.84238433837891 21.61485862731934 96.48532867431641 27.06937789916992 99.02994537353516 33.14273834228516 C 101.6645050048828 39.43085861206055 103.0003280639648 46.11182022094727 103.0003280639648 53.00008010864258 C 103.0003280639648 59.35459899902344 100.3152084350586 67.78350067138672 95.01954650878906 78.05263519287109 C 90.71070861816406 86.40818023681641 84.69174957275391 95.94227600097656 77.12986755371094 106.3900604248047 C 66.78963470458984 120.6765060424805 56.29446029663086 132.8521881103516 52.49972915649414 137.1621856689453 Z M 52.49970626831055 31.00029945373535 C 49.1931266784668 31.00029945373535 45.9843864440918 31.64835929870605 42.96260833740234 32.92649841308594 C 40.04494857788086 34.16053771972656 37.42500686645508 35.92681884765625 35.17562866210938 38.1762580871582 C 32.92628860473633 40.42557907104492 31.16000747680664 43.04547882080078 29.92588806152344 45.96318054199219 C 28.64776802062988 48.98497772216797 27.99970817565918 52.1937370300293 27.99970817565918 55.50029754638672 C 27.99970817565918 58.80685806274414 28.64776802062988 62.01559829711914 29.92588806152344 65.03737640380859 C 31.15998840332031 67.955078125 32.92624664306641 70.57499694824219 35.17562866210938 72.82437896728516 C 37.42502593994141 75.07377624511719 40.04494857788086 76.84004211425781 42.96262741088867 78.07411956787109 C 45.98440933227539 79.35224151611328 49.19314956665039 80.00029754638672 52.49970626831055 80.00029754638672 C 55.80626678466797 80.00029754638672 59.01500701904297 79.35224151611328 62.03678894042969 78.07411956787109 C 64.95440673828125 76.84005737304688 67.57432556152344 75.07379913330078 69.82376861572266 72.82440185546875 C 72.07320404052734 70.57495880126953 73.83946990966797 67.95501708984375 75.07352447509766 65.03737640380859 C 76.35163116455078 62.01561737060547 76.99968719482422 58.80687713623047 76.99968719482422 55.50029754638672 C 76.99968719482422 52.19371795654297 76.35163116455078 48.98495864868164 75.07352447509766 45.96319961547852 C 73.83942413330078 43.04547882080078 72.07315063476562 40.42557907104492 69.82376861572266 38.17623901367188 C 67.57432556152344 35.92679977416992 64.95440673828125 34.16051864624023 62.03678894042969 32.92647933959961 C 59.0150260925293 31.64835929870605 55.80628967285156 31.00029945373535 52.49970626831055 31.00029945373535 Z" id="el_8IGTFUkQDj"/>
    <path d="M 52.49961471557617 134.1222381591797 C 57.100341796875 128.8227386474609 66.38309478759766 117.8270874023438 75.50971221923828 105.2174301147461 C 83.01297760009766 94.85061645507812 88.97898101806641 85.40264129638672 93.24198150634766 77.13597106933594 C 95.84714508056641 72.08413696289062 97.82670593261719 67.43755340576172 99.12568664550781 63.3253059387207 C 100.3696060180664 59.38742828369141 101.0003128051758 55.91353225708008 101.0003128051758 53.00009536743164 C 101.0003128051758 46.37857437133789 99.71675109863281 39.95761871337891 97.18531036376953 33.91559600830078 C 94.74037933349609 28.08015823364258 91.23999786376953 22.83913803100586 86.78147888183594 18.33819961547852 C 82.32554626464844 13.83990859985352 77.13854217529297 10.30903339385986 71.36458587646484 7.843658924102783 C 65.39139556884766 5.293200492858887 59.04433441162109 4.000012874603271 52.49971008300781 4.000012874603271 C 45.95529174804688 4.000012874603271 39.60841751098633 5.293200492858887 33.6353759765625 7.843658924102783 C 27.86156272888184 10.30901336669922 22.67466735839844 13.83988761901855 18.21877288818359 18.33815956115723 C 13.76027202606201 22.83917999267578 10.25993824005127 28.08017921447754 7.815021991729736 33.91557693481445 C 5.283584594726562 39.95761871337891 4.000021934509277 46.37859725952148 4.000021934509277 53.00009536743164 C 4.000021934509277 55.91353225708008 4.630730152130127 59.387451171875 5.874605178833008 63.32532501220703 C 7.173584461212158 67.43759918212891 9.153105735778809 72.08418273925781 11.75823020935059 77.13600921630859 C 16.02108383178711 85.40253448486328 21.98698043823242 94.85050964355469 29.49016761779785 105.2174530029297 C 38.62033462524414 117.8322601318359 47.90016937255859 128.8244018554688 52.49961471557617 134.1222381591797 M 52.49971008300781 29.00030517578125 C 56.07541656494141 29.00030517578125 59.54629135131836 29.70153427124023 62.81589889526367 31.08447074890137 C 65.97191619873047 32.41934585571289 68.80551910400391 34.32955551147461 71.23802185058594 36.76201248168945 C 73.67044067382812 39.19445037841797 75.58065032958984 42.02805328369141 76.91554260253906 45.18407440185547 C 78.29847717285156 48.45370101928711 78.99968719482422 51.92457580566406 78.99968719482422 55.50030517578125 C 78.99968719482422 59.07603454589844 78.29847717285156 62.54690933227539 76.91554260253906 65.81645202636719 C 75.5806884765625 68.97245025634766 73.67050170898438 71.80605316162109 71.23796081542969 74.23865509033203 C 68.80543518066406 76.67109680175781 65.97183227539062 78.58128356933594 62.81591796875 79.91611480712891 C 59.54633331298828 81.299072265625 56.07545852661133 82.00028228759766 52.49971008300781 82.00028228759766 C 48.92395782470703 82.00028228759766 45.45308303833008 81.299072265625 42.18354415893555 79.9161376953125 C 39.02748107910156 78.58126068115234 36.19387435913086 76.67105102539062 33.76141738891602 74.23861694335938 C 31.32900047302246 71.80618286132812 29.41879272460938 68.97257232666016 28.08389663696289 65.81649017333984 C 26.7009391784668 62.54686737060547 25.99971008300781 59.07601165771484 25.99971008300781 55.50030517578125 C 25.99971008300781 51.92459487915039 26.70091819763184 48.45372009277344 28.08389663696289 45.18407440185547 C 29.4188346862793 42.02796936035156 31.32904243469238 39.19438934326172 33.76139831542969 36.76205444335938 C 36.19379425048828 34.32959747314453 39.02741622924805 32.41938781738281 42.18350219726562 31.08449172973633 C 45.453125 29.70153427124023 48.92399978637695 29.00030517578125 52.49971008300781 29.00030517578125 M 52.49971008300781 140.1723022460938 L 52.49895858764648 140.1714935302734 C 52.36735534667969 140.0262451171875 39.18931198120117 125.4406967163086 26.24983406066895 107.5626983642578 C 18.62941741943359 97.03380584716797 12.5576057434082 87.41359710693359 8.203084945678711 78.96930694580078 C 2.759938716888428 68.41397094726562 2.201334609708283e-05 59.67665863037109 2.201334609708283e-05 53.00009536743164 C 2.201334609708283e-05 45.84505462646484 1.388105392456055 38.904052734375 4.12575101852417 32.36986541748047 C 6.770001411437988 26.05870056152344 10.55545997619629 20.39065933227539 15.37695980072021 15.52318000793457 C 20.1984806060791 10.65580463409424 25.81302261352539 6.834346294403076 32.06460571289062 4.164971351623535 C 38.53697967529297 1.401304602622986 45.41231536865234 1.291910848522093e-05 52.49971008300781 1.291910848522093e-05 C 59.5872917175293 1.291910848522093e-05 66.46281433105469 1.401304602622986 72.93533325195312 4.164971351623535 C 79.18704223632812 6.834346294403076 84.80168914794922 10.65580463409424 89.62325286865234 15.52318000793457 C 94.44481658935547 20.39061737060547 98.23031616210938 26.05867958068848 100.8745880126953 32.36986541748047 C 103.6122131347656 38.90399169921875 105.0003128051758 45.84501266479492 105.0003128051758 53.00009536743164 C 105.0003128051758 59.67663955688477 102.2403564453125 68.41394805908203 96.79710388183594 78.96930694580078 C 92.4425048828125 87.41359710693359 86.37060546875 97.03380584716797 78.75002288818359 107.5626983642578 C 65.816650390625 125.4319534301758 52.63210678100586 140.0261840820312 52.50045776367188 140.1714935302734 L 52.49971008300781 140.1723022460938 Z M 52.49971008300781 33.00030517578125 C 49.46220779418945 33.00030517578125 46.51560592651367 33.59522247314453 43.74172973632812 34.76849365234375 C 41.06245803833008 35.9017219543457 38.65618896484375 37.52407455444336 36.5898551940918 39.59045028686523 C 34.52350234985352 41.65678405761719 32.90116882324219 44.06301116943359 31.76789665222168 46.74230575561523 C 30.5946044921875 49.51624298095703 29.99971008300781 52.46282577514648 29.99971008300781 55.50030517578125 C 29.99971008300781 58.53774261474609 30.5946044921875 61.48434448242188 31.76789665222168 64.25826263427734 C 32.90114593505859 66.93755340576172 34.52347946166992 69.34380340576172 36.5898551940918 71.41017913818359 C 38.65625 73.47657775878906 41.0625 75.09890747070312 43.74172973632812 76.23211669921875 C 46.51560592651367 77.40538787841797 49.46220779418945 78.00028228759766 52.49971008300781 78.00028228759766 C 55.53718948364258 78.00028228759766 58.48381423950195 77.40538787841797 61.2576904296875 76.23211669921875 C 63.93685531616211 75.09893035888672 66.34310913085938 73.47659301757812 68.40958404541016 71.41017913818359 C 70.47595977783203 69.34376525878906 72.09831237792969 66.93751525878906 73.23152160644531 64.25826263427734 C 74.40479278564453 61.4843864440918 74.99968719482422 58.53778457641602 74.99968719482422 55.50030517578125 C 74.99968719482422 52.46280288696289 74.40479278564453 49.51620101928711 73.23152160644531 46.74230575561523 C 72.09828948974609 44.06305313110352 70.47595977783203 41.65682601928711 68.40958404541016 39.59045028686523 C 66.34317016601562 37.52405548095703 63.93689727783203 35.90169906616211 61.2576904296875 34.76849365234375 C 58.48381423950195 33.59522247314453 55.53718948364258 33.00030517578125 52.49971008300781 33.00030517578125 Z" id="el_r3zRN51KUX"/>
  </g></g>
<script>(function(){var a=document.querySelector('#el_1XPFzL3k2S'),b=a.querySelectorAll('style'),c=function(d){b.forEach(function(f){var g=f.textContent;g&amp;&amp;(f.textContent=g.replace(/transform-box:[^;\r\n]*/gi,'transform-box: '+d))})};c('initial'),window.requestAnimationFrame(function(){return c('fill-box')})})();</script></svg>