<svg xmlns="http://www.w3.org/2000/svg" viewBox="0 0 391.855 225.3">
  <defs>
    <style>
      .cls-1 {
        fill: #fff;
      }

      .cls-2, .cls-3 {
        stroke: none;
      }

      .cls-3 {
        fill: #707070;
      }
    </style>
  </defs>
  <g id="联合_18" data-name="联合 18" class="cls-1">
    <path class="cls-2" d="M 198.2464599609375 221.3003082275391 C 185.2587738037109 221.3003082275391 172.5995025634766 218.7868347167969 160.6202392578125 213.8297729492188 C 154.8474578857422 211.4409942626953 149.2422943115234 208.4759368896484 143.9604034423828 205.0169372558594 C 138.7298736572266 201.5916137695312 133.7569885253906 197.6433563232422 129.1798706054688 193.2818298339844 L 126.2931900024414 190.5310974121094 L 123.5334014892578 193.4090423583984 C 120.3572463989258 196.7211456298828 116.8678741455078 199.7264556884766 113.1620864868164 202.3415679931641 C 109.4253540039062 204.978515625 105.4347229003906 207.2423553466797 101.3010330200195 209.0702056884766 C 92.71282196044922 212.8678283691406 83.59397888183594 214.7933502197266 74.19776916503906 214.7933502197266 C 64.74508666992188 214.7933502197266 55.57529830932617 212.8451995849609 46.94308853149414 209.0029296875 C 42.78898239135742 207.1538848876953 38.78108596801758 204.8644104003906 35.03071975708008 202.1980895996094 C 31.31108665466309 199.5535736083984 27.81229782104492 196.5155181884766 24.63156127929688 193.1682586669922 C 21.44740295410156 189.8173522949219 18.55603408813477 186.1294097900391 16.03777122497559 182.2066802978516 C 13.49361419677734 178.2436218261719 11.30819320678711 174.0063018798828 9.542245864868164 169.6124572753906 C 5.86466646194458 160.46240234375 3.999982357025146 150.7384643554688 3.999982357025146 140.7107238769531 C 3.999982357025146 130.6831512451172 5.86466646194458 120.959358215332 9.542192459106445 111.8094635009766 C 11.30819320678711 107.4156723022461 13.49361419677734 103.1784133911133 16.03777122497559 99.21535491943359 C 18.55603408813477 95.29267120361328 21.44740295410156 91.60472869873047 24.63156127929688 88.25388336181641 C 27.81229782104492 84.90666961669922 31.31108665466309 81.86856842041016 35.03071975708008 79.22409057617188 C 38.78103637695312 76.55777740478516 42.78898239135742 74.26830291748047 46.94308853149414 72.41930389404297 C 55.57529830932617 68.57704162597656 64.74508666992188 66.62888336181641 74.19776916503906 66.62888336181641 C 82.61997985839844 66.62888336181641 90.85377502441406 68.18524932861328 98.67045593261719 71.25472259521484 L 102.3203506469727 72.68798828125 L 103.825927734375 69.06730651855469 C 107.7822952270508 59.55267333984375 113.0196151733398 50.68293762207031 119.3924026489258 42.70446395874023 C 125.7192459106445 34.7835693359375 133.0676116943359 27.86193656921387 141.2334594726562 22.13188362121582 C 158.1379852294922 10.26988315582275 177.8527221679688 3.999988555908203 198.2464599609375 3.999988555908203 C 209.9638824462891 3.999988555908203 221.4566650390625 6.055988788604736 232.4055023193359 10.11093616485596 C 242.9978179931641 14.03377819061279 252.8697662353516 19.74162101745605 261.7471313476562 27.07583045959473 C 270.5504150390625 34.34877777099609 278.135986328125 43.02004241943359 284.2930908203125 52.84867095947266 C 290.5572509765625 62.84814834594727 295.1723937988281 73.78025054931641 298.0103454589844 85.34140777587891 L 299.1151428222656 89.842041015625 L 303.4060363769531 88.09146118164062 C 310.5336608886719 85.18357086181641 318.05908203125 83.70914459228516 325.7732543945312 83.70914459228516 C 334.1302490234375 83.70914459228516 342.2371520996094 85.4315185546875 349.8688354492188 88.82846069335938 C 353.5420227050781 90.46346282958984 357.0861511230469 92.48804473876953 360.4026184082031 94.84593963623047 C 363.6925659179688 97.1849365234375 366.7872314453125 99.87214660644531 369.6007690429688 102.8329391479492 C 372.4176635742188 105.7973556518555 374.9756164550781 109.0600967407227 377.2035522460938 112.5305709838867 C 379.4546813964844 116.0370407104492 381.3883361816406 119.7862548828125 382.950927734375 123.6740417480469 C 386.2053527832031 131.7711486816406 387.85546875 140.3765716552734 387.85546875 149.2512512207031 C 387.85546875 158.1259307861328 386.2053527832031 166.7313537597656 382.950927734375 174.8284606933594 C 381.3883361816406 178.7162475585938 379.4546813964844 182.4654693603516 377.2035522460938 185.9719390869141 C 374.9756164550781 189.4424133300781 372.4176635742188 192.7051391601562 369.6007690429688 195.6695709228516 C 366.7872314453125 198.6303558349609 363.6925659179688 201.3175659179688 360.4026184082031 203.6565704345703 C 357.0861511230469 206.0144653320312 353.5420227050781 208.0390472412109 349.8688354492188 209.6740417480469 C 342.2371520996094 213.0709838867188 334.1302490234375 214.7933502197266 325.7732543945312 214.7933502197266 C 320.9384155273438 214.7933502197266 316.1243896484375 214.2049865722656 311.4650268554688 213.0446166992188 C 306.9345092773438 211.9163055419922 302.5182495117188 210.2400360107422 298.3388366699219 208.0623016357422 C 294.2277221679688 205.9201965332031 290.3302001953125 203.2854156494141 286.7544555664062 200.2310485839844 C 283.1943359375 197.1900939941406 279.9466552734375 193.7278289794922 277.1015014648438 189.9405212402344 L 274.2625732421875 186.1613616943359 L 271.0050354003906 189.5862579345703 C 266.3385009765625 194.4925689697266 261.2054443359375 198.9459381103516 255.7485046386719 202.8226776123047 C 250.244140625 206.7331390380859 244.3615112304688 210.0910949707031 238.2640838623047 212.8033599853516 C 232.0585021972656 215.5636749267578 225.5654602050781 217.6835174560547 218.9654083251953 219.1039428710938 C 212.1934051513672 220.5613555908203 205.2225646972656 221.3003082275391 198.2464599609375 221.3003082275391 Z"/>
    <path class="cls-3" d="M 198.2464904785156 217.3003082275391 C 224.6073913574219 217.3003082275391 249.4175567626953 206.4789276123047 268.1066589355469 186.8295288085938 L 274.6217041015625 179.9797515869141 L 280.2996520996094 187.5379791259766 C 291.4020080566406 202.3170928955078 307.9765014648438 210.7933197021484 325.7732849121094 210.7933197021484 C 357.7998962402344 210.7933197021484 383.8554382324219 183.1856536865234 383.8554382324219 149.2512512207031 C 383.8554382324219 115.3168106079102 357.7998962402344 87.70914459228516 325.7732849121094 87.70914459228516 C 318.5796203613281 87.70914459228516 311.5625610351562 89.08386993408203 304.9170532226562 91.79508972167969 L 296.3352661132812 95.29625701904297 L 294.125732421875 86.29498291015625 C 282.8095397949219 40.1960334777832 243.3826141357422 7.999979972839355 198.2464904785156 7.999979972839355 C 158.9454956054688 7.999979972839355 123.3329391479492 32.57320022583008 107.5193328857422 70.6031494140625 L 104.5082168579102 77.84453582763672 L 97.20838928222656 74.97798156738281 C 89.85944366455078 72.09209442138672 82.1175537109375 70.62886810302734 74.19777679443359 70.62886810302734 C 37.69622039794922 70.62886810302734 7.999996662139893 102.0674819946289 7.999996662139893 140.7107543945312 C 7.999996662139893 179.3544311523438 37.69622039794922 210.7933197021484 74.19777679443359 210.7933197021484 C 91.68827819824219 210.7933197021484 108.1840515136719 203.6362609863281 120.6463317871094 190.6405334472656 L 126.1659393310547 184.8846435546875 L 131.9392700195312 190.3860321044922 C 150.1529998779297 207.7419738769531 173.7013854980469 217.3003082275391 198.2464904785156 217.3003082275391 M 198.2464904785156 225.3003082275391 C 170.6065521240234 225.3003082275391 145.4132690429688 214.2759857177734 126.4204406738281 196.1776428222656 C 113.012939453125 210.1590423583984 94.56416320800781 218.7933197021484 74.19777679443359 218.7933197021484 C 33.21916198730469 218.7933197021484 -3.106011263298569e-06 183.8348693847656 -3.106011263298569e-06 140.7107543945312 C -3.106011263298569e-06 97.58731079101562 33.21916198730469 62.62886810302734 74.19777679443359 62.62886810302734 C 83.32171630859375 62.62886810302734 92.05883026123047 64.36109161376953 100.1324996948242 67.53153228759766 C 116.663444519043 27.77647972106934 154.37255859375 -2.018229133682325e-05 198.2464904785156 -2.018229133682325e-05 C 248.0922241210938 -2.018229133682325e-05 289.9801025390625 35.84959030151367 301.8950500488281 84.38780975341797 C 309.3011169433594 81.36631011962891 317.3531188964844 79.70914459228516 325.7732849121094 79.70914459228516 C 362.2693176269531 79.70914459228516 391.8554382324219 110.8442611694336 391.8554382324219 149.2512512207031 C 391.8554382324219 187.6582641601562 362.2693176269531 218.7933197021484 325.7732849121094 218.7933197021484 C 304.7430114746094 218.7933197021484 286.0060119628906 208.4535980224609 273.9033813476562 192.3429870605469 C 254.5347137451172 212.7068176269531 227.7880554199219 225.3003082275391 198.2464904785156 225.3003082275391 Z"/>
  </g>
</svg>
