<svg xmlns="http://www.w3.org/2000/svg" viewBox="0 0 235.718 194.799">
  <defs>
    <style>
      .cls-1 {
        fill: #fff;
        stroke: #707070;
        stroke-width: 8px;
      }
    </style>
  </defs>
  <path id="联合_13" data-name="联合 13" class="cls-1" d="M173.207,190.763l-99,2Zm0-18-99,2Zm0-18-99,2ZM30.565,132.858A39.5,39.5,0,0,1,17.8,124.072,42.367,42.367,0,0,1,9.01,110.785a44.925,44.925,0,0,1-.576-33.031,42.348,42.348,0,0,1,8.319-13.586A39.5,39.5,0,0,1,29.2,54.943,37.582,37.582,0,0,1,60.372,54.6l4.239,1.873L65.844,52a65.583,65.583,0,0,1,8.172-18.238A62.9,62.9,0,0,1,86.929,19.277a59.074,59.074,0,0,1,16.59-9.622,57.406,57.406,0,0,1,37.973-.89A58.884,58.884,0,0,1,157.959,17.2a62.624,62.624,0,0,1,13.282,13.144,65.405,65.405,0,0,1,9.1,16.893l1.21,3.335,3.457-.8a37.629,37.629,0,0,1,23.278,2.049A39.484,39.484,0,0,1,221.056,60.6a42.356,42.356,0,0,1,8.789,13.287,44.925,44.925,0,0,1,.576,33.031,42.347,42.347,0,0,1-8.319,13.585,39.528,39.528,0,0,1-12.452,9.226,37.6,37.6,0,0,1-30.7.549,39.5,39.5,0,0,1-12.75-8.754l-2.56-2.608-2.829,2.313a59.061,59.061,0,0,1-16.569,9.591,57.164,57.164,0,0,1-19.222,3.672,58.381,58.381,0,0,1-41.588-16.59l-3.4-3.266-2.665,3.893a41.59,41.59,0,0,1-6.091,7.058,39.719,39.719,0,0,1-7.433,5.423,37.972,37.972,0,0,1-8.506,3.515,37.59,37.59,0,0,1-9.342,1.346c-.223,0-.446.006-.668.006A37.35,37.35,0,0,1,30.565,132.858Z" transform="translate(-1.568 -1.963)"/>
</svg>
