<svg xmlns="http://www.w3.org/2000/svg" viewBox="0 0 407 407">
  <defs>
    <style>
      .cls-1 {
        fill: #818789;
      }

      .cls-2, .cls-3 {
        stroke: none;
      }

      .cls-3 {
        fill: #707070;
      }
    </style>
  </defs>
  <g id="联合_21" data-name="联合 21" class="cls-1">
    <path class="cls-2" d="M 214.9996032714844 406.4998168945312 L 192.0002136230469 406.4998168945312 L 192.0002136230469 232.4700012207031 L 192.0002136230469 231.2629089355469 L 191.1466522216797 232.116455078125 L 68.08860778808594 355.1744995117188 L 51.82530975341797 338.9111938476562 L 174.8833618164062 215.8531646728516 L 175.7369079589844 214.9996032714844 L 174.5298156738281 214.9996032714844 L 0.5000084638595581 214.9996032714844 L 0.5000084638595581 192.0002136230469 L 174.5298156738281 192.0002136230469 L 175.7369079589844 192.0002136230469 L 174.8833618164062 191.1466522216797 L 51.8253173828125 68.08861541748047 L 68.08950042724609 51.82529830932617 L 191.1466522216797 174.8828582763672 L 192.0002136230469 175.7364044189453 L 192.0002136230469 174.5293121337891 L 192.0002136230469 0.5000084638595581 L 214.9996032714844 0.5000084638595581 L 214.9996032714844 174.5298156738281 L 214.9996032714844 175.7369079589844 L 215.8531646728516 174.8833618164062 L 338.9111938476562 51.82530975341797 L 355.1744995117188 68.08860778808594 L 232.116455078125 191.1466522216797 L 231.2629089355469 192.0002136230469 L 232.4700012207031 192.0002136230469 L 406.4998168945312 192.0002136230469 L 406.4998168945312 214.9996032714844 L 232.4704132080078 214.9996032714844 L 231.2633056640625 214.9996032714844 L 232.1168518066406 215.8531646728516 L 355.1744995117188 338.9111938476562 L 338.9111938476562 355.1744995117188 L 215.8531646728516 232.116455078125 L 214.9996032714844 231.2629089355469 L 214.9996032714844 232.4700012207031 L 214.9996032714844 406.4998168945312 Z"/>
    <path class="cls-3" d="M 214.4996032714844 405.9998168945312 L 214.4996032714844 232.4700012207031 L 214.4996032714844 230.0558013916016 L 216.2067108154297 231.7629089355469 L 338.9111938476562 354.4674072265625 L 354.4674072265625 338.9111938476562 L 231.7633056640625 216.2067108154297 L 230.0562133789062 214.4996032714844 L 232.4704132080078 214.4996032714844 L 405.9998168945312 214.4996032714844 L 405.9998168945312 192.5002136230469 L 232.4700012207031 192.5002136230469 L 230.0558013916016 192.5002136230469 L 231.7629089355469 190.7931060791016 L 354.4674072265625 68.08860778808594 L 338.9111938476562 52.53240966796875 L 216.2067108154297 175.2369079589844 L 214.4996032714844 176.9440155029297 L 214.4996032714844 174.5298156738281 L 214.4996032714844 1.000008463859558 L 192.5002136230469 1.000008463859558 L 192.5002136230469 174.5293121337891 L 192.5002136230469 176.9435119628906 L 190.7931060791016 175.2364044189453 L 68.08951568603516 52.53241729736328 L 52.53245162963867 68.08865356445312 L 175.2369079589844 190.7931060791016 L 176.9440155029297 192.5002136230469 L 174.5298156738281 192.5002136230469 L 1.000008463859558 192.5002136230469 L 1.000008463859558 214.4996032714844 L 174.5298156738281 214.4996032714844 L 176.9440155029297 214.4996032714844 L 175.2369079589844 216.2067108154297 L 52.53240966796875 338.9111938476562 L 68.08860778808594 354.4674072265625 L 190.7931060791016 231.7629089355469 L 192.5002136230469 230.0558013916016 L 192.5002136230469 232.4700012207031 L 192.5002136230469 405.9998168945312 L 214.4996032714844 405.9998168945312 M 215.4996032714844 406.9998168945312 L 191.5002136230469 406.9998168945312 L 191.5002136230469 232.4700012207031 L 68.08860778808594 355.8816223144531 L 51.11820983886719 338.9111938476562 L 174.5298156738281 215.4996032714844 L 8.447265827271622e-06 215.4996032714844 L 8.447265827271622e-06 191.5002136230469 L 174.5298156738281 191.5002136230469 L 51.11820983886719 68.08860778808594 L 68.08950805664062 51.11820983886719 L 191.5002136230469 174.5293121337891 L 191.5002136230469 8.447265827271622e-06 L 215.4996032714844 8.447265827271622e-06 L 215.4996032714844 174.5298156738281 L 338.9111938476562 51.11820983886719 L 355.8816223144531 68.08860778808594 L 232.4700012207031 191.5002136230469 L 406.9998168945312 191.5002136230469 L 406.9998168945312 215.4996032714844 L 232.4704132080078 215.4996032714844 L 355.8816223144531 338.9111938476562 L 338.9111938476562 355.8816223144531 L 215.4996032714844 232.4700012207031 L 215.4996032714844 406.9998168945312 Z"/>
  </g>
</svg>
