<svg xmlns="http://www.w3.org/2000/svg" viewBox="0 0 216.064 480.636">
  <defs>
    <style>
      .cls-1 {
        fill: #fff;
        stroke: #707070;
        stroke-width: 8px;
      }
    </style>
  </defs>
  <g id="组_18" data-name="组 18" transform="translate(1011.569 -48.436)">
    <path id="减去_4" data-name="减去 4" class="cls-1" d="M104.032,472.636a107.4,107.4,0,0,1-20.966-2.061,104.9,104.9,0,0,1-37.2-15.262,104.257,104.257,0,0,1-15.4-12.385,102.766,102.766,0,0,1-12.7-15.011,100.665,100.665,0,0,1-9.592-17.229,99.241,99.241,0,0,1,1.54-82.338A101.117,101.117,0,0,1,21.04,310.039a103.291,103.291,0,0,1,14.9-15.521V71.1h.548a64.186,64.186,0,0,1-.548-8.365A62.828,62.828,0,0,1,63.373,10.715,62.056,62.056,0,0,1,73.941,4.93a61.933,61.933,0,0,1,48.432,0,62.058,62.058,0,0,1,10.568,5.785A62.817,62.817,0,0,1,160.368,62.74a64.2,64.2,0,0,1-.548,8.365h.548V285.924a104.059,104.059,0,0,1,19.559,15.913,101.986,101.986,0,0,1,15.05,20.085,99.262,99.262,0,0,1,4.911,88.767,100.664,100.664,0,0,1-9.592,17.229,102.766,102.766,0,0,1-12.7,15.011,104.387,104.387,0,0,1-33.068,21.737A105.466,105.466,0,0,1,125,470.575,107.4,107.4,0,0,1,104.032,472.636Zm-7.6-439.871A16.935,16.935,0,0,0,79.492,49.7V358.8a16.935,16.935,0,1,0,33.871,0V49.7A16.934,16.934,0,0,0,96.428,32.764Z" transform="translate(-1007.569 52.436)"/>
    <line id="直线_83" data-name="直线 83" class="cls-1" x2="21" transform="translate(-912.038 152.552)"/>
    <line id="直线_84" data-name="直线 84" class="cls-1" x2="21" transform="translate(-912.038 198.583)"/>
    <line id="直线_85" data-name="直线 85" class="cls-1" x2="21" transform="translate(-912.038 240.01)"/>
    <line id="直线_86" data-name="直线 86" class="cls-1" x2="21" transform="translate(-912.038 278.369)"/>
    <line id="直线_87" data-name="直线 87" class="cls-1" x2="21" transform="translate(-912.038 318.262)"/>
  </g>
</svg>
