<svg xmlns="http://www.w3.org/2000/svg" viewBox="0 0 319.728 239.41">
  <defs>
    <style>
      .cls-1, .cls-2 {
        fill: #fff;
      }

      .cls-3 {
        fill: none;
        stroke: #707070;
        stroke-width: 8px;
      }

      .cls-4, .cls-5 {
        stroke: none;
      }

      .cls-5 {
        fill: #707070;
      }
    </style>
  </defs>
  <g id="组_6" data-name="组 6" transform="translate(-64 673)">
    <g id="联合_15" data-name="联合 15" class="cls-1" transform="translate(94 -673)">
      <path class="cls-4" d="M 204.8575897216797 175.0001220703125 C 200.5721588134766 175.0001220703125 196.3130493164062 174.4402618408203 192.1985778808594 173.3361663818359 C 188.2003021240234 172.2631988525391 184.3214416503906 170.6725463867188 180.6697692871094 168.6084136962891 C 177.0728302001953 166.5752716064453 173.6949005126953 164.0825958251953 170.6298065185547 161.1996917724609 C 167.5691528320312 158.3209533691406 164.8256530761719 155.0582275390625 162.4755096435547 151.5021209716797 L 160.5497589111328 148.5882263183594 L 157.4029083251953 150.1036224365234 C 149.2778778076172 154.0162963867188 140.6505889892578 156.0001983642578 131.7607269287109 156.0001983642578 C 124.4684753417969 156.0001983642578 117.304084777832 154.6519775390625 110.4665832519531 151.9930572509766 L 107.7164764404297 150.9236297607422 L 105.8828735351562 153.2354431152344 C 103.2472610473633 156.5585479736328 100.2575454711914 159.5931243896484 96.99687194824219 162.2549133300781 C 93.71851348876953 164.9311218261719 90.15644073486328 167.2381896972656 86.40962219238281 169.112060546875 C 82.59865570068359 171.0179748535156 78.57776641845703 172.484619140625 74.45865631103516 173.4711608886719 C 70.22265625 174.4857025146484 65.84829711914062 175.0001220703125 61.45711898803711 175.0001220703125 C 53.71504974365234 175.0001220703125 46.20547866821289 173.4338073730469 39.13694381713867 170.3446960449219 C 35.73619079589844 168.8584442138672 32.45526504516602 167.018310546875 29.38529968261719 164.8753051757812 C 26.34101295471191 162.7502288818359 23.47758483886719 160.3090209960938 20.87458419799805 157.6194763183594 C 18.26940536499023 154.9276580810547 15.90387058258057 151.9651947021484 13.84372806549072 148.8144073486328 C 11.76290607452393 145.6319427490234 9.975584983825684 142.2295227050781 8.531441688537598 138.7015838623047 C 5.524620532989502 131.3562316894531 4.00001335144043 123.5499801635742 4.00001335144043 115.4996948242188 C 4.00001335144043 107.4496231079102 5.524584770202637 99.64359283447266 8.531406402587891 92.29837799072266 C 9.975584983825684 88.77048492431641 11.76290607452393 85.36808776855469 13.84372806549072 82.18572998046875 C 15.90387058258057 79.03494262695312 18.26937103271484 76.07251739501953 20.87458419799805 73.38072967529297 C 23.47758483886719 70.69123077392578 26.34097671508789 68.25001525878906 29.38529968261719 66.12494659423828 C 32.45526504516602 63.98198318481445 35.73619079589844 62.14183807373047 39.13694381713867 60.65562438964844 C 46.20547866821289 57.5665168762207 53.71508407592773 56.00019454956055 61.45711898803711 56.00019454956055 C 62.81683349609375 56.00019454956055 64.19112396240234 56.04994583129883 65.54183197021484 56.14809036254883 L 68.66355133056641 56.37494659423828 L 69.63440704345703 53.39941024780273 C 71.97837066650391 46.21576690673828 75.2591552734375 39.48898315429688 79.38565826416016 33.40598297119141 C 83.45783233642578 27.40301704406738 88.27340698242188 22.14351844787598 93.69854736328125 17.77366065979004 C 99.16744232177734 13.36855316162109 105.1528015136719 9.952625274658203 111.4883346557617 7.62083911895752 C 118.0161895751953 5.218232154846191 124.8368377685547 4.000017642974854 131.7607269287109 4.000017642974854 C 139.2786560058594 4.000017642974854 146.6534423828125 5.43130350112915 153.6801910400391 8.254124641418457 C 160.4979095458984 10.99298191070557 166.8541870117188 14.98194599151611 172.572509765625 20.11026763916016 C 178.2645111083984 25.21501731872559 183.1665802001953 31.30462455749512 187.1425170898438 38.20991134643555 C 191.1987915039062 45.25476837158203 194.1780853271484 52.95719528198242 195.9976501464844 61.10323333740234 L 196.7658386230469 64.54237365722656 L 200.2743682861328 64.21383666992188 C 201.7876129150391 64.07215881347656 203.3296508789062 64.00030517578125 204.8575897216797 64.00030517578125 C 211.829833984375 64.00030517578125 218.5939788818359 65.45473480224609 224.9620819091797 68.32319641113281 C 228.029296875 69.70480346679688 230.9890899658203 71.41587829589844 233.7592315673828 73.40891265869141 C 236.5089416503906 75.38726806640625 239.0958404541016 77.66051483154297 241.4480895996094 80.16555023193359 C 243.8044738769531 82.67501831054688 245.9444732666016 85.43740844726562 247.8086853027344 88.37601470947266 C 249.6930541992188 91.34641265869141 251.3118286132812 94.52269744873047 252.6200866699219 97.81665802001953 C 255.3460540771484 104.6801986694336 256.7282409667969 111.9755859375 256.7282409667969 119.5001983642578 C 256.7282409667969 127.0248413085938 255.3460540771484 134.3202362060547 252.6200866699219 141.1837310791016 C 251.3118286132812 144.4777374267578 249.6930541992188 147.6540222167969 247.8086853027344 150.6244049072266 C 245.9444732666016 153.5630187988281 243.8044738769531 156.3254089355469 241.4480895996094 158.8348693847656 C 239.0958404541016 161.3399047851562 236.5089416503906 163.6131591796875 233.7592315673828 165.5915222167969 C 230.9890899658203 167.5845489501953 228.029296875 169.2956237792969 224.9620819091797 170.6772308349609 C 218.5939788818359 173.5457000732422 211.829833984375 175.0001220703125 204.8575897216797 175.0001220703125 Z"/>
      <path class="cls-5" d="M 204.8575744628906 171.0000915527344 C 231.2535400390625 171.0000915527344 252.7282409667969 147.8973388671875 252.7282409667969 119.5002212524414 C 252.7282409667969 91.10305023193359 231.2535400390625 68.00030517578125 204.8575744628906 68.00030517578125 C 203.4384613037109 68.00030517578125 202.03466796875 68.06651306152344 200.6472473144531 68.19642639160156 L 193.6302032470703 68.85343170166016 L 192.0938720703125 61.9752197265625 C 184.9952850341797 30.1954288482666 160.1854095458984 8.000011444091797 131.7607421875 8.000011444091797 C 105.9780807495117 8.000011444091797 82.53961944580078 26.74326133728027 73.43711853027344 54.64017868041992 L 71.49536895751953 60.59126281738281 L 65.25199890136719 60.13759613037109 C 63.99845504760742 60.04651260375977 62.73307800292969 60.00022125244141 61.45711898803711 60.00022125244141 C 31.98074531555176 60.00022125244141 7.999995708465576 84.89717864990234 7.999995708465576 115.4997177124023 C 7.999995708465576 146.1027221679688 31.98074531555176 171.0000915527344 61.45711898803711 171.0000915527344 C 77.4915771484375 171.0000915527344 92.5418701171875 163.6191711425781 102.748908996582 150.7498474121094 L 106.4161224365234 146.1261291503906 L 111.9162902832031 148.2650146484375 C 118.2898712158203 150.7435150146484 124.9664916992188 152.0002136230469 131.7607421875 152.0002136230469 C 140.0447387695312 152.0002136230469 148.0881195068359 150.1495971679688 155.6674499511719 146.4997253417969 L 161.9611663818359 143.4689331054688 L 165.8125762939453 149.2967224121094 C 174.7938690185547 162.8866729736328 189.3901672363281 171.0000915527344 204.8575744628906 171.0000915527344 M 204.8575744628906 179.0000915527344 C 185.9565734863281 179.0000915527344 169.2485809326172 169.0056304931641 159.1384124755859 153.7075042724609 C 150.72412109375 157.7594757080078 141.4724578857422 160.0002136230469 131.7607421875 160.0002136230469 C 123.8004989624023 160.0002136230469 116.1512451171875 158.4954681396484 109.0168304443359 155.7210998535156 C 97.74595642089844 169.9317169189453 80.62620544433594 179.0000915527344 61.45711898803711 179.0000915527344 C 27.51503753662109 179.0000915527344 -4.516601620707661e-06 150.5700073242188 -4.516601620707661e-06 115.4997177124023 C -4.516601620707661e-06 80.43030548095703 27.51503753662109 52.00022125244141 61.45711898803711 52.00022125244141 C 62.92799377441406 52.00022125244141 64.38670349121094 52.05363845825195 65.83174896240234 52.15863800048828 C 75.76903533935547 21.70322036743164 101.5384521484375 1.173909549834207e-05 131.7607421875 1.173909549834207e-05 C 164.5929107666016 1.173909549834207e-05 192.1680297851562 25.60926246643066 199.9014587402344 60.23126220703125 C 201.53466796875 60.07834625244141 203.1870727539062 60.00030517578125 204.8575744628906 60.00030517578125 C 235.7139587402344 60.00030517578125 260.7282409667969 86.63938903808594 260.7282409667969 119.5002212524414 C 260.7282409667969 152.3610076904297 235.7139587402344 179.0000915527344 204.8575744628906 179.0000915527344 Z"/>
    </g>
    <rect id="矩形_4" data-name="矩形 4" class="cls-2" width="319.728" height="126" transform="translate(64 -559.59)"/>
    <line id="直线_47" data-name="直线 47" class="cls-3" x2="259.728" y2="3" transform="translate(94.5 -534.023)"/>
    <line id="直线_48" data-name="直线 48" class="cls-3" x2="259.728" transform="translate(94.5 -495.421)"/>
    <line id="直线_49" data-name="直线 49" class="cls-3" x2="259.728" transform="translate(94.5 -460.09)"/>
  </g>
</svg>
