<svg xmlns="http://www.w3.org/2000/svg" viewBox="0 0 147.58 262.957">
  <defs>
    <style>
      .cls-1 {
        fill: #fff;
      }

      .cls-2, .cls-3 {
        stroke: none;
      }

      .cls-3 {
        fill: #707070;
      }
    </style>
  </defs>
  <g id="路径_1" data-name="路径 1" class="cls-1" transform="translate(0 131.854)">
    <path class="cls-2" d="M 73.78988647460938 127.1027755737305 C 64.48571014404297 127.1027755737305 55.4502067565918 124.8241348266602 46.93438720703125 120.330207824707 C 42.81510162353516 118.1563491821289 38.83724212646484 115.461669921875 35.11124420166016 112.3210296630859 C 31.40220832824707 109.1946334838867 27.91070747375488 105.5996322631836 24.73374366760254 101.6358108520508 C 21.54388618469238 97.65592193603516 18.64567184448242 93.27252960205078 16.11960029602051 88.60738372802734 C 13.56188678741455 83.88381195068359 11.36399364471436 78.83091735839844 9.586993217468262 73.58913421630859 C 5.879743576049805 62.65334701538086 3.999993562698364 51.02845764160156 3.999993562698364 39.03734970092773 C 3.999993562698364 27.92188453674316 7.793100833892822 12.1945276260376 15.27388668060303 -7.70782995223999 C 21.34295845031738 -23.85425758361816 29.81752967834473 -42.68133163452148 40.46224212646484 -63.66611480712891 C 53.97836303710938 -90.31156158447266 67.61873626708984 -113.7339477539062 73.78977966308594 -124.0986480712891 C 79.96569061279297 -113.7252731323242 93.62276458740234 -90.27365875244141 107.142204284668 -63.61750793457031 C 117.7807083129883 -42.64161682128906 126.2500991821289 -23.82265090942383 132.3150634765625 -7.683401107788086 C 139.7897796630859 12.20734882354736 143.5797729492188 27.92649078369141 143.5797729492188 39.03734970092773 C 143.5797729492188 51.02845764160156 141.7000274658203 62.65334701538086 137.9927825927734 73.58913421630859 C 136.2157745361328 78.83091735839844 134.0178833007812 83.88381195068359 131.4601745605469 88.60738372802734 C 128.9340972900391 93.27252960205078 126.035888671875 97.65592193603516 122.8460311889648 101.6358108520508 C 119.6690673828125 105.5996322631836 116.1775665283203 109.1946334838867 112.4685287475586 112.3210296630859 C 108.7425308227539 115.461669921875 104.7646713256836 118.1563491821289 100.6453857421875 120.330207824707 C 92.12956237792969 124.8241348266602 83.09406280517578 127.1027755737305 73.78988647460938 127.1027755737305 Z"/>
    <path class="cls-3" d="M 73.78988647460938 -116.2199249267578 C 55.72236633300781 -85.34329223632812 8.000015258789062 -0.07917803525924683 8.000015258789062 39.03738021850586 C 8.000015258789062 85.39121246337891 37.51322174072266 123.1027984619141 73.78988647460938 123.1027984619141 C 110.0665588378906 123.1027984619141 139.5797576904297 85.39121246337891 139.5797576904297 39.03738021850586 C 139.5797576904297 -0.07917803525924683 91.85740661621094 -85.34329223632812 73.78988647460938 -116.2199249267578 M 73.78988647460938 -131.8539581298828 C 73.78988647460938 -131.8539581298828 147.5797576904297 -11.80895519256592 147.5797576904297 39.03738021850586 C 147.5797576904297 89.8836669921875 114.5429229736328 131.1027984619141 73.78988647460938 131.1027984619141 C 33.03684234619141 131.1027984619141 1.52587890625e-05 89.8836669921875 1.52587890625e-05 39.03738021850586 C 1.52587890625e-05 -11.80895519256592 73.78988647460938 -131.8539581298828 73.78988647460938 -131.8539581298828 Z"/>
  </g>
</svg>
