<svg xmlns="http://www.w3.org/2000/svg" viewBox="0 0 247 198" id="el_8jaHHJVt79"><style>@-webkit-keyframes el_dcJ68BTsQO_t8YilgNSO_Animation{0%{-webkit-transform: scale(0.5, 0.5);transform: scale(0.5, 0.5);}32.22%{-webkit-transform: scale(1, 1);transform: scale(1, 1);}66.67%{-webkit-transform: scale(0.9, 0.9);transform: scale(0.9, 0.9);}100%{-webkit-transform: scale(1, 1);transform: scale(1, 1);}}@keyframes el_dcJ68BTsQO_t8YilgNSO_Animation{0%{-webkit-transform: scale(0.5, 0.5);transform: scale(0.5, 0.5);}32.22%{-webkit-transform: scale(1, 1);transform: scale(1, 1);}66.67%{-webkit-transform: scale(0.9, 0.9);transform: scale(0.9, 0.9);}100%{-webkit-transform: scale(1, 1);transform: scale(1, 1);}}#el_8jaHHJVt79 *{-webkit-animation-duration: 3s;animation-duration: 3s;-webkit-animation-iteration-count: infinite;animation-iteration-count: infinite;-webkit-animation-timing-function: cubic-bezier(0, 0, 1, 1);animation-timing-function: cubic-bezier(0, 0, 1, 1);}#el_jse7Hqsagw{-webkit-transform: translate(-149.306px, 1241.5px);transform: translate(-149.306px, 1241.5px);}#el_dcJ68BTsQO{fill: #fff;stroke: #707070;stroke-width: 8px;-webkit-transform: translate(247.864px, -1241.5px);transform: translate(247.864px, -1241.5px);}#el_JfWPtWrmgq{fill: #fff;-webkit-transform: translate(151.746px, -1183.642px) rotate(1deg);transform: translate(151.746px, -1183.642px) rotate(1deg);}#el_mBj0up35e8{stroke: none;}#el_CnUXuvc5qb{stroke: none;fill: #707070;}#el_dcJ68BTsQO_t8YilgNSO{-webkit-animation-name: el_dcJ68BTsQO_t8YilgNSO_Animation;animation-name: el_dcJ68BTsQO_t8YilgNSO_Animation;-webkit-transform-origin: 50% 50%;transform-origin: 50% 50%;transform-box: fill-box;-webkit-transform: scale(0.5, 0.5);transform: scale(0.5, 0.5);}</style>
  <defs>
    
  </defs>
  <g id="el_jse7Hqsagw" data-name="组 24">
    <g id="el_dcJ68BTsQO_t8YilgNSO" data-animator-group="true" data-animator-type="2"><path id="el_dcJ68BTsQO" data-name="联合 20" d="M25.409,92.177a45.737,45.737,0,1,1,45.736,46.088A45.914,45.914,0,0,1,25.409,92.177Zm100.619,0H149.4Zm12.2-69.645-30.49,23.556ZM0,22.532,25.409,46.088ZM71.145,0V29.7Z"/></g>
    <g id="el_JfWPtWrmgq" data-name="联合 7">
      <path d="M 44.24654006958008 132.4862518310547 L 44.23647308349609 132.4862518310547 C 38.81443786621094 132.4864959716797 33.55553817749023 131.3788909912109 28.60590553283691 129.1941833496094 C 23.8115062713623 127.0779876708984 19.50247383117676 124.0445251464844 15.79843997955322 120.1780548095703 C 12.08293914794922 116.2995529174805 9.165239334106445 111.7804870605469 7.126406192779541 106.7463226318359 C 5.011906147003174 101.5253524780273 3.940506219863892 95.97505950927734 3.941972970962524 90.24968719482422 C 3.943439483642578 84.52345275878906 5.018073081970215 78.97178649902344 7.136039733886719 73.74885559082031 C 9.178306579589844 68.71258544921875 12.0995397567749 64.19115447998047 15.81857299804688 60.31012344360352 C 19.5261402130127 56.44108963012695 23.83843994140625 53.40515518188477 28.63567352294922 51.28672409057617 C 33.58800506591797 49.09978866577148 38.84883880615234 47.9902229309082 44.27204132080078 47.98885726928711 L 44.28203964233398 47.98885726928711 C 49.86667251586914 47.98885726928711 55.27140808105469 49.16215515136719 60.34610748291016 51.47615432739258 L 64.52143859863281 53.38005447387695 L 65.83760833740234 48.98392105102539 C 67.77333831787109 42.5184211730957 70.67140960693359 36.43278884887695 74.45137023925781 30.89602279663086 C 78.17787170410156 25.43752288818359 82.67473602294922 20.63698959350586 87.81703948974609 16.62772178649902 C 93.00746917724609 12.58092212677002 98.73493957519531 9.436155319213867 104.8403091430664 7.280822277069092 C 111.1473083496094 5.0542893409729 117.7537384033203 3.92448902130127 124.47607421875 3.922789096832275 L 124.4910736083984 3.922789096832275 C 130.9740447998047 3.922789096832275 137.3560791015625 4.973722457885742 143.4598388671875 7.046389102935791 C 149.3700103759766 9.053356170654297 154.9447784423828 11.98958873748779 160.0293426513672 15.77358913421631 C 165.0599060058594 19.51742172241211 169.5140380859375 24.01748847961426 173.2680053710938 29.14882278442383 C 177.0648803710938 34.33882141113281 180.0685119628906 40.07118988037109 182.1955413818359 46.1866569519043 L 183.3530731201172 49.51475524902344 L 186.8006134033203 48.78619003295898 C 189.4192657470703 48.23275756835938 192.1141662597656 47.95178985595703 194.8104095458984 47.95112228393555 L 194.8202667236328 47.95112228393555 C 200.2424011230469 47.95112228393555 205.5013427734375 49.05888748168945 210.4510040283203 51.24365615844727 C 215.2454376220703 53.35988998413086 219.5545043945312 56.39335632324219 223.2584991455078 60.2597541809082 C 226.9739990234375 64.13819122314453 229.8917083740234 68.65715789794922 231.9305419921875 73.69122314453125 C 234.0450439453125 78.91208648681641 235.1164398193359 84.46232604980469 235.1149749755859 90.18769073486328 C 235.1135101318359 95.91392517089844 234.0388793945312 101.4655914306641 231.9209136962891 106.6885223388672 C 229.8786468505859 111.7247924804688 226.9574127197266 116.246223449707 223.2383728027344 120.1272583007812 C 219.5308074951172 123.9962921142578 215.218505859375 127.0322189331055 210.4212799072266 129.1506500244141 C 205.4689025878906 131.3375854492188 200.2080688476562 132.4471588134766 194.7848663330078 132.4485168457031 L 194.7748718261719 132.4485168457031 C 189.3638763427734 132.4485168457031 184.1153717041016 131.3454284667969 179.1751708984375 129.1698913574219 C 174.3899383544922 127.0625534057617 170.0864105224609 124.0408248901367 166.3841400146484 120.188591003418 L 163.8879089355469 117.5912246704102 L 161.0443420410156 119.8029556274414 C 155.8585357666016 123.8364562988281 150.1381378173828 126.9708251953125 144.0420684814453 129.1190490722656 C 137.7443084716797 131.3383483886719 131.1490020751953 132.4644927978516 124.439338684082 132.4661865234375 L 124.4243087768555 132.4661865234375 C 108.7908401489258 132.4662170410156 93.89826965332031 126.3145904541016 82.48997497558594 115.1444854736328 L 79.16677093505859 111.8906555175781 L 76.44687652587891 115.6633529663086 C 74.60420989990234 118.2192230224609 72.48150634765625 120.559455871582 70.13770294189453 122.6189880371094 C 67.78700256347656 124.6846237182617 65.21320343017578 126.4683532714844 62.48787307739258 127.9205856323242 C 59.71947479248047 129.3957824707031 56.78800582885742 130.5320281982422 53.77490615844727 131.2977600097656 C 50.6748046875 132.0855865478516 47.46897125244141 132.4854583740234 44.24654006958008 132.4862518310547 Z" id="el_mBj0up35e8"/>
      <path d="M 44.24606323242188 128.4862518310547 L 44.24551010131836 128.4862518310547 C 55.70304870605469 128.4833984375 66.25735473632812 122.9569778442383 73.20220184326172 113.3240585327148 L 78.64201354980469 105.7786712646484 L 85.28843688964844 112.2863616943359 C 95.94462585449219 122.7201309204102 109.8490524291992 128.4662475585938 124.4383544921875 128.4661712646484 C 136.8412780761719 128.4630584716797 148.6502380371094 124.3755569458008 158.5885162353516 116.6455535888672 L 164.2756195068359 112.22216796875 L 169.2681274414062 117.4168243408203 C 176.1051330566406 124.5307083129883 185.1675109863281 128.4485168457031 194.7838592529297 128.4485168457031 C 214.8115539550781 128.4435119628906 231.1095886230469 111.2793273925781 231.1149749755859 90.18666839599609 C 231.1175842285156 79.9075927734375 227.3013153076172 70.26220703125 220.3692016601562 63.02736282348633 C 213.5254364013672 55.88474655151367 204.4481201171875 51.95113372802734 194.8113250732422 51.95113372802734 C 192.3922424316406 51.95170974731445 189.9753570556641 52.20359420776367 187.6277008056641 52.69974899291992 L 180.7326202392578 54.15697860717773 L 178.4175109863281 47.50067138671875 C 170.1838989257812 23.82793998718262 148.5060882568359 7.922786712646484 124.4770889282227 7.922786712646484 C 99.25162506103516 7.929094314575195 77.22616577148438 24.8913631439209 69.66958618164062 50.13117218017578 L 67.03723907470703 58.92351913452148 L 58.68655014038086 55.11563110351562 C 54.13655090332031 53.04086303710938 49.2865104675293 51.98886489868164 44.27304840087891 51.98886489868164 C 24.24539566040039 51.99386215209961 7.947357654571533 69.15805816650391 7.941972732543945 90.25070953369141 C 7.939357280731201 100.5299377441406 11.7556266784668 110.1754760742188 18.68778038024902 117.4104766845703 C 25.53113174438477 124.5528106689453 34.60825729370117 128.4861907958984 44.24606323242188 128.4862518310547 M 44.23659896850586 136.4862518310547 C 19.76491355895996 136.4873504638672 -0.06452630460262299 115.7880554199219 -0.05802709981799126 90.24867248535156 C -0.05152709782123566 64.70616912841797 19.79524230957031 43.99497985839844 44.27104949951172 43.98886489868164 C 44.27451324462891 43.98886108398438 44.27843475341797 43.98886108398438 44.28189849853516 43.98886108398438 C 50.58378982543945 43.98886108398438 56.57883834838867 45.36206817626953 62.00570297241211 47.836669921875 C 70.31623840332031 20.07855606079102 95.14370727539062 -0.06986729055643082 124.4750900268555 -0.07721344381570816 C 124.4802703857422 -0.07721474021673203 124.4859313964844 -0.07721539586782455 124.4911117553711 -0.07721539586782455 C 152.7714691162109 -0.07721539586782455 176.8534851074219 18.65128135681152 185.9735107421875 44.87263107299805 C 188.8285064697266 44.26924896240234 191.7842407226562 43.95186233520508 194.8094024658203 43.95113372802734 C 194.8123779296875 43.95113372802734 194.8173217773438 43.95112991333008 194.8203125 43.95112991333008 C 219.2919921875 43.95112991333008 239.1214752197266 64.64933013916016 239.1149749755859 90.18871307373047 C 239.1084747314453 115.7312088012695 219.2617034912109 136.4423980712891 194.7858581542969 136.4485168457031 C 194.7828826904297 136.4485168457031 194.7777709960938 136.4485168457031 194.7747802734375 136.4485168457031 C 182.5643310546875 136.4485168457031 171.5121765136719 131.2968292236328 163.5001220703125 122.9603271484375 C 152.5982360839844 131.4397888183594 139.0789794921875 136.4624786376953 124.4403610229492 136.4661712646484 C 124.4350738525391 136.4661712646484 124.429557800293 136.4661712646484 124.4242782592773 136.4661712646484 C 107.1197128295898 136.4662322998047 91.38620758056641 129.4530944824219 79.69155120849609 118.002555847168 C 71.60224151611328 129.2229461669922 58.7352409362793 136.4826354980469 44.24751281738281 136.4862518310547 C 44.24452209472656 136.4862518310547 44.23958969116211 136.4862518310547 44.23659896850586 136.4862518310547 Z" id="el_CnUXuvc5qb"/>
    </g>
  </g>
<script>(function(){var a=document.querySelector('#el_8jaHHJVt79'),b=a.querySelectorAll('style'),c=function(d){b.forEach(function(f){var g=f.textContent;g&amp;&amp;(f.textContent=g.replace(/transform-box:[^;\r\n]*/gi,'transform-box: '+d))})};c('initial'),window.requestAnimationFrame(function(){return c('fill-box')})})();</script></svg>