<svg xmlns="http://www.w3.org/2000/svg" viewBox="0 0 235 193" id="el_YjIyv8PGSrC"><style>@-webkit-keyframes el_nfFjRy9dkye_NsR-DdpAR_Animation{0%{-webkit-transform: scale(0.8, 0.8);transform: scale(0.8, 0.8);}33.33%{-webkit-transform: scale(1, 1);transform: scale(1, 1);}66.67%{-webkit-transform: scale(0.6, 0.6);transform: scale(0.6, 0.6);}100%{-webkit-transform: scale(1, 1);transform: scale(1, 1);}}@keyframes el_nfFjRy9dkye_NsR-DdpAR_Animation{0%{-webkit-transform: scale(0.8, 0.8);transform: scale(0.8, 0.8);}33.33%{-webkit-transform: scale(1, 1);transform: scale(1, 1);}66.67%{-webkit-transform: scale(0.6, 0.6);transform: scale(0.6, 0.6);}100%{-webkit-transform: scale(1, 1);transform: scale(1, 1);}}@-webkit-keyframes el_wiGrxhA9NvJ_n57VUsn7p_Animation{0%{-webkit-transform: scale(0, 0);transform: scale(0, 0);}33.33%{-webkit-transform: scale(1, 1);transform: scale(1, 1);}100%{-webkit-transform: scale(1, 1);transform: scale(1, 1);}}@keyframes el_wiGrxhA9NvJ_n57VUsn7p_Animation{0%{-webkit-transform: scale(0, 0);transform: scale(0, 0);}33.33%{-webkit-transform: scale(1, 1);transform: scale(1, 1);}100%{-webkit-transform: scale(1, 1);transform: scale(1, 1);}}#el_YjIyv8PGSrC *{-webkit-animation-duration: 3s;animation-duration: 3s;-webkit-animation-iteration-count: infinite;animation-iteration-count: infinite;-webkit-animation-timing-function: cubic-bezier(0, 0, 1, 1);animation-timing-function: cubic-bezier(0, 0, 1, 1);}#el_w-lTLlYxm6m{fill: #fff;-webkit-transform: translate(-1.568px, -1.963px);transform: translate(-1.568px, -1.963px);}#el_wiGrxhA9NvJ{stroke: none;}#el_nfFjRy9dkye{stroke: none;fill: #707070;}#el_wiGrxhA9NvJ_n57VUsn7p{-webkit-animation-name: el_wiGrxhA9NvJ_n57VUsn7p_Animation;animation-name: el_wiGrxhA9NvJ_n57VUsn7p_Animation;-webkit-transform-origin: 50% 50%;transform-origin: 50% 50%;transform-box: fill-box;-webkit-transform: scale(0, 0);transform: scale(0, 0);}#el_nfFjRy9dkye_NsR-DdpAR{-webkit-animation-name: el_nfFjRy9dkye_NsR-DdpAR_Animation;animation-name: el_nfFjRy9dkye_NsR-DdpAR_Animation;-webkit-transform-origin: 50% 50%;transform-origin: 50% 50%;transform-box: fill-box;-webkit-transform: scale(0.8, 0.8);transform: scale(0.8, 0.8);}</style>
  <defs>
    
  </defs>
  <g id="el_w-lTLlYxm6m" data-name="联合 14">
    <g id="el_wiGrxhA9NvJ_n57VUsn7p" data-animator-group="true" data-animator-type="2"><path d="M 176.7069091796875 191.2631072998047 C 176.0613098144531 191.2631072998047 175.7065124511719 190.8875732421875 175.7065124511719 190.7631072998047 C 175.7065124511719 190.6386413574219 176.0613098144531 190.2631072998047 176.7069091796875 190.2631072998047 C 177.3519439697266 190.2631072998047 177.7064056396484 190.6386413574219 177.7064056396484 190.7631072998047 C 177.7064056396484 190.8875732421875 177.3519439697266 191.2631072998047 176.7069091796875 191.2631072998047 Z M 143.7066040039062 191.2631072998047 C 143.0610046386719 191.2631072998047 142.7062072753906 190.8875732421875 142.7062072753906 190.7631072998047 C 142.7062072753906 190.6386413574219 143.0610046386719 190.2631072998047 143.7066040039062 190.2631072998047 C 144.3516387939453 190.2631072998047 144.7061004638672 190.6386413574219 144.7061004638672 190.7631072998047 C 144.7061004638672 190.8875732421875 144.3516387939453 191.2631072998047 143.7066040039062 191.2631072998047 Z M 113.7069091796875 191.2631072998047 C 113.0613098144531 191.2631072998047 112.7065048217773 190.8875732421875 112.7065048217773 190.7631072998047 C 112.7065048217773 190.6386413574219 113.0613098144531 190.2631072998047 113.7069091796875 190.2631072998047 C 114.3519439697266 190.2631072998047 114.7064056396484 190.6386413574219 114.7064056396484 190.7631072998047 C 114.7064056396484 190.8875732421875 114.3519439697266 191.2631072998047 113.7069091796875 191.2631072998047 Z M 85.70610809326172 191.2631072998047 C 85.06107330322266 191.2631072998047 84.70660400390625 190.8875732421875 84.70660400390625 190.7631072998047 C 84.70660400390625 190.6386413574219 85.06107330322266 190.2631072998047 85.70610809326172 190.2631072998047 C 86.35170745849609 190.2631072998047 86.70650482177734 190.6386413574219 86.70650482177734 190.7631072998047 C 86.70650482177734 190.8875732421875 86.35170745849609 191.2631072998047 85.70610809326172 191.2631072998047 Z M 189.7065124511719 175.2629089355469 C 189.0609130859375 175.2629089355469 188.7061004638672 174.8873748779297 188.7061004638672 174.7629089355469 C 188.7061004638672 174.6384429931641 189.0609130859375 174.2629089355469 189.7065124511719 174.2629089355469 C 190.3521118164062 174.2629089355469 190.7069091796875 174.6384429931641 190.7069091796875 174.7629089355469 C 190.7069091796875 174.8873748779297 190.3521118164062 175.2629089355469 189.7065124511719 175.2629089355469 Z M 159.7068023681641 175.2629089355469 C 159.0612030029297 175.2629089355469 158.7064056396484 174.8873748779297 158.7064056396484 174.7629089355469 C 158.7064056396484 174.6384429931641 159.0612030029297 174.2629089355469 159.7068023681641 174.2629089355469 C 160.3518371582031 174.2629089355469 160.7063140869141 174.6384429931641 160.7063140869141 174.7629089355469 C 160.7063140869141 174.8873748779297 160.3518371582031 175.2629089355469 159.7068023681641 175.2629089355469 Z M 128.7063140869141 175.2629089355469 C 128.061279296875 175.2629089355469 127.7068099975586 174.8873748779297 127.7068099975586 174.7629089355469 C 127.7068099975586 174.6384429931641 128.061279296875 174.2629089355469 128.7063140869141 174.2629089355469 C 129.3519134521484 174.2629089355469 129.7067108154297 174.6384429931641 129.7067108154297 174.7629089355469 C 129.7067108154297 174.8873748779297 129.3519134521484 175.2629089355469 128.7063140869141 175.2629089355469 Z M 100.7064056396484 175.2629089355469 C 100.0613708496094 175.2629089355469 99.7069091796875 174.8873748779297 99.7069091796875 174.7629089355469 C 99.7069091796875 174.6384429931641 100.0613708496094 174.2629089355469 100.7064056396484 174.2629089355469 C 101.3520050048828 174.2629089355469 101.7068099975586 174.6384429931641 101.7068099975586 174.7629089355469 C 101.7068099975586 174.8873748779297 101.3520050048828 175.2629089355469 100.7064056396484 175.2629089355469 Z M 72.70650482177734 175.2629089355469 C 72.06090545654297 175.2629089355469 71.70610809326172 174.8873748779297 71.70610809326172 174.7629089355469 C 71.70610809326172 174.6384429931641 72.06090545654297 174.2629089355469 72.70650482177734 174.2629089355469 C 73.35210418701172 174.2629089355469 73.7069091796875 174.6384429931641 73.7069091796875 174.7629089355469 C 73.7069091796875 174.8873748779297 73.35210418701172 175.2629089355469 72.70650482177734 175.2629089355469 Z M 201.7062072753906 158.2628021240234 C 201.0611724853516 158.2628021240234 200.7067108154297 157.8872680664062 200.7067108154297 157.7628021240234 C 200.7067108154297 157.6383361816406 201.0611724853516 157.2628021240234 201.7062072753906 157.2628021240234 C 202.351806640625 157.2628021240234 202.7066040039062 157.6383361816406 202.7066040039062 157.7628021240234 C 202.7066040039062 157.8872680664062 202.351806640625 158.2628021240234 201.7062072753906 158.2628021240234 Z M 176.7069091796875 158.2628021240234 C 176.0613098144531 158.2628021240234 175.7065124511719 157.8872680664062 175.7065124511719 157.7628021240234 C 175.7065124511719 157.6383361816406 176.0613098144531 157.2628021240234 176.7069091796875 157.2628021240234 C 177.3519439697266 157.2628021240234 177.7064056396484 157.6383361816406 177.7064056396484 157.7628021240234 C 177.7064056396484 157.8872680664062 177.3519439697266 158.2628021240234 176.7069091796875 158.2628021240234 Z M 143.7066040039062 158.2628021240234 C 143.0610046386719 158.2628021240234 142.7062072753906 157.8872680664062 142.7062072753906 157.7628021240234 C 142.7062072753906 157.6383361816406 143.0610046386719 157.2628021240234 143.7066040039062 157.2628021240234 C 144.3516387939453 157.2628021240234 144.7061004638672 157.6383361816406 144.7061004638672 157.7628021240234 C 144.7061004638672 157.8872680664062 144.3516387939453 158.2628021240234 143.7066040039062 158.2628021240234 Z M 113.7069091796875 158.2628021240234 C 113.0613098144531 158.2628021240234 112.7065048217773 157.8872680664062 112.7065048217773 157.7628021240234 C 112.7065048217773 157.6383361816406 113.0613098144531 157.2628021240234 113.7069091796875 157.2628021240234 C 114.3519439697266 157.2628021240234 114.7064056396484 157.6383361816406 114.7064056396484 157.7628021240234 C 114.7064056396484 157.8872680664062 114.3519439697266 158.2628021240234 113.7069091796875 158.2628021240234 Z M 85.70610809326172 158.2628021240234 C 85.06107330322266 158.2628021240234 84.70660400390625 157.8872680664062 84.70660400390625 157.7628021240234 C 84.70660400390625 157.6383361816406 85.06107330322266 157.2628021240234 85.70610809326172 157.2628021240234 C 86.35170745849609 157.2628021240234 86.70650482177734 157.6383361816406 86.70650482177734 157.7628021240234 C 86.70650482177734 157.8872680664062 86.35170745849609 158.2628021240234 85.70610809326172 158.2628021240234 Z M 55.70640563964844 158.2628021240234 C 55.06137466430664 158.2628021240234 54.70690536499023 157.8872680664062 54.70690536499023 157.7628021240234 C 54.70690536499023 157.6383361816406 55.06137466430664 157.2628021240234 55.70640563964844 157.2628021240234 C 56.35200881958008 157.2628021240234 56.70680618286133 157.6383361816406 56.70680618286133 157.7628021240234 C 56.70680618286133 157.8872680664062 56.35200881958008 158.2628021240234 55.70640563964844 158.2628021240234 Z M 45.32273864746094 135.8798980712891 L 45.32260894775391 135.8798980712891 L 45.32247543334961 135.8798980712891 C 40.06373977661133 135.8802642822266 34.95190811157227 134.8001708984375 30.12897300720215 132.6696014404297 C 25.44654083251953 130.6011047363281 21.22257423400879 127.6314697265625 17.57444000244141 123.8431701660156 C 13.90874004364014 120.0366744995117 11.0056734085083 115.5919723510742 8.945874214172363 110.6326065063477 C 6.80830717086792 105.4859390258789 5.67427396774292 99.99923706054688 5.57530689239502 94.32493591308594 C 5.475306987762451 88.59280395507812 6.437040328979492 83.01766967773438 8.433840751647949 77.75434112548828 C 10.35794067382812 72.68264007568359 13.15674018859863 68.11190032958984 16.75250625610352 64.1690673828125 C 20.3333740234375 60.24263763427734 24.52284049987793 57.13856887817383 29.20457458496094 54.94313812255859 C 34.03330612182617 52.67877197265625 39.18367385864258 51.48353576660156 44.51260757446289 51.39070510864258 C 44.73430633544922 51.38680267333984 44.95864105224609 51.38483810424805 45.17970657348633 51.38483810424805 C 50.43714141845703 51.38483810424805 55.5485725402832 52.46530532836914 60.37200546264648 54.59617233276367 L 64.61127471923828 56.46897125244141 L 65.84423828125 52.00147247314453 C 67.63823699951172 45.50127029418945 70.38740539550781 39.36530303955078 74.01544189453125 33.76396942138672 C 77.59033966064453 28.24470329284668 81.93510437011719 23.37060356140137 86.9290771484375 19.27713775634766 C 91.96680450439453 15.14780426025391 97.54821014404297 11.91057109832764 103.518310546875 9.655370712280273 C 109.682975769043 7.32667064666748 116.1612091064453 6.087470531463623 122.7730407714844 5.972204208374023 C 123.110107421875 5.966304302215576 123.4515762329102 5.963337421417236 123.7881393432617 5.963337421417236 C 136.2152709960938 5.963337421417236 148.1664733886719 9.947237014770508 158.3497467041016 17.48433685302734 C 163.2797088623047 21.13323783874512 167.6664733886719 25.52600479125977 171.3881072998047 30.54060363769531 C 175.1546478271484 35.61566925048828 178.1683349609375 41.23276901245117 180.3454742431641 47.23587036132812 L 181.5553131103516 50.57176971435547 L 185.0116424560547 49.76820373535156 C 187.5738067626953 49.17247009277344 190.2168121337891 48.84690475463867 192.8671417236328 48.80050277709961 C 193.0876770019531 48.79663848876953 193.3113708496094 48.79467010498047 193.5318450927734 48.79467010498047 C 198.7906799316406 48.79467010498047 203.9025421142578 49.87507247924805 208.7255096435547 52.00577163696289 C 213.4080047607422 54.07447052001953 217.6320037841797 57.04420471191406 221.2801666259766 60.83250427246094 C 224.9458770751953 64.6390380859375 227.8489379882812 69.08370208740234 229.9087066650391 74.04303741455078 C 232.0463104248047 79.18963623046875 233.1803436279297 84.67626953125 233.2793121337891 90.35057067871094 C 233.3793029785156 96.08267211914062 232.4175720214844 101.6577682495117 230.4207763671875 106.9210052490234 C 228.4967041015625 111.9926376342773 225.6979064941406 116.5633010864258 222.1021118164062 120.5060729980469 C 218.5212707519531 124.4324722290039 214.3317718505859 127.536506652832 209.6500091552734 129.7320098876953 C 204.8212432861328 131.9963989257812 199.6708374023438 133.1917724609375 194.3418731689453 133.2848052978516 C 194.1210021972656 133.2886657714844 193.8968353271484 133.2906341552734 193.6754455566406 133.2906341552734 C 188.4817352294922 133.2908020019531 183.4286041259766 132.2360687255859 178.6564331054688 130.1557006835938 C 174.0240020751953 128.13623046875 169.8318328857422 125.2333068847656 166.1964111328125 121.5275039672852 L 163.6376037597656 118.9191741943359 L 160.8089752197266 121.2321395874023 C 155.7753448486328 125.3480682373047 150.2005462646484 128.5748748779297 144.2393798828125 130.8229370117188 C 138.0834350585938 133.1444702148438 131.615966796875 134.3800354003906 125.0166397094727 134.4953002929688 C 124.6818084716797 134.5011444091797 124.3413772583008 134.5041046142578 124.0050048828125 134.5041351318359 C 116.3954772949219 134.5044403076172 108.9710388183594 133.0184326171875 101.937873840332 130.0873718261719 C 95.12077331542969 127.2464065551758 88.89344024658203 123.1479721069336 83.42884063720703 117.906005859375 L 80.02413940429688 114.640007019043 L 77.35910797119141 118.5331039428711 C 75.58910369873047 121.1187057495117 73.53984069824219 123.4931716918945 71.26817321777344 125.5905380249023 C 68.99131011962891 127.6927032470703 66.49037170410156 129.5169372558594 63.83487319946289 131.0125427246094 C 61.13907241821289 132.5308380126953 58.27733993530273 133.7136688232422 55.32910537719727 134.5282440185547 C 52.29684066772461 135.3659973144531 49.1539421081543 135.8188323974609 45.98767471313477 135.8740997314453 C 45.76760864257812 135.8779754638672 45.54387283325195 135.8798980712891 45.32273864746094 135.8798980712891 Z" id="el_wiGrxhA9NvJ"/></g>
    <g id="el_nfFjRy9dkye_NsR-DdpAR" data-animator-group="true" data-animator-type="2"><path d="M 45.32273101806641 139.8799285888672 L 45.9178466796875 131.8747406005859 C 57.14861297607422 131.6786193847656 67.40546417236328 125.9922332763672 74.05842590332031 116.2735824584961 L 79.38845825195312 108.4874267578125 L 86.19784545898438 115.0193862915039 C 96.60033416748047 124.9981155395508 110.0124130249023 130.4965972900391 124.9113159179688 130.4959411621094 C 124.922233581543 130.4959411621094 124.9358444213867 130.4959411621094 124.9467697143555 130.4959259033203 C 137.1225433349609 130.2832336425781 148.6479187011719 126.0090789794922 158.2769165039062 118.1355438232422 L 163.9341888427734 113.5096588134766 L 169.0518035888672 118.7263107299805 C 175.7304077148438 125.5341262817383 184.4671325683594 129.2854614257812 194.2503814697266 129.2854309082031 C 194.2575531005859 129.2854309082031 194.2648620605469 129.2854309082031 194.2720336914062 129.2854309082031 C 213.9433135986328 128.9419250488281 229.6477661132812 111.5071182250977 229.2799224853516 90.42034912109375 C 228.9180450439453 69.67603302001953 212.8873443603516 52.79988861083984 192.9463500976562 52.79988861083984 C 192.9439239501953 52.79988861083984 192.9395904541016 52.79988861083984 192.9371490478516 52.79988861083984 C 190.5677337646484 52.84138870239258 188.2059936523438 53.13219451904297 185.9174957275391 53.66427230834961 L 179.0048065185547 55.27150344848633 L 176.5851135253906 48.59965896606445 C 168.2060089111328 25.49572372436523 146.9983673095703 9.971577644348145 122.8619537353516 9.971577644348145 C 122.8560638427734 9.971577644348145 122.8486633300781 9.971578598022461 122.8427658081055 9.97158145904541 C 98.05104064941406 10.40388870239258 76.69465637207031 27.72204208374023 69.70011138916016 53.06565856933594 L 67.23419189453125 62.00057983398438 L 58.75569152832031 58.25504302978516 C 54.45611572265625 56.35565567016602 49.9016227722168 55.39006042480469 44.62508010864258 55.39006042480469 C 44.61087036132812 55.39006042480469 44.59652709960938 55.39006805419922 44.58230590820312 55.39007949829102 C 35.13988494873047 55.55461883544922 26.30603790283203 59.62961959838867 19.70800018310547 66.86446380615234 C 12.9937686920166 74.22673797607422 9.394999504089355 83.95427703857422 9.574653625488281 94.25515747070312 C 9.936614990234375 115.0028915405273 25.9728832244873 131.8812713623047 45.32219314575195 131.8799285888672 L 45.32273101806641 139.8799285888672 M 176.7069244384766 195.2631225585938 C 173.9448089599609 195.2631225585938 171.7064971923828 193.2480010986328 171.7064971923828 190.7631225585938 C 171.7064971923828 188.2781982421875 173.9448089599609 186.2631225585938 176.7069244384766 186.2631225585938 C 179.4681091308594 186.2631225585938 181.7064208984375 188.2781982421875 181.7064208984375 190.7631225585938 C 181.7064208984375 193.2480010986328 179.4681091308594 195.2631225585938 176.7069244384766 195.2631225585938 Z M 143.7066192626953 195.2631225585938 C 140.9454193115234 195.2631225585938 138.7061920166016 193.2480010986328 138.7061920166016 190.7631225585938 C 138.7061920166016 188.2781982421875 140.9454193115234 186.2631225585938 143.7066192626953 186.2631225585938 C 146.4678039550781 186.2631225585938 148.7061157226562 188.2781982421875 148.7061157226562 190.7631225585938 C 148.7061157226562 193.2480010986328 146.4678039550781 195.2631225585938 143.7066192626953 195.2631225585938 Z M 113.7068862915039 195.2631225585938 C 110.9448089599609 195.2631225585938 108.7064971923828 193.2480010986328 108.7064971923828 190.7631225585938 C 108.7064971923828 188.2781982421875 110.9448089599609 186.2631225585938 113.7068862915039 186.2631225585938 C 116.4681167602539 186.2631225585938 118.7064208984375 188.2781982421875 118.7064208984375 190.7631225585938 C 118.7064208984375 193.2480010986328 116.4681167602539 195.2631225585938 113.7068862915039 195.2631225585938 Z M 85.70611572265625 195.2631225585938 C 82.94488525390625 195.2631225585938 80.70661163330078 193.2480010986328 80.70661163330078 190.7631225585938 C 80.70661163330078 188.2781982421875 82.94488525390625 186.2631225585938 85.70611572265625 186.2631225585938 C 88.46819305419922 186.2631225585938 90.70649719238281 188.2781982421875 90.70649719238281 190.7631225585938 C 90.70649719238281 193.2480010986328 88.46819305419922 195.2631225585938 85.70611572265625 195.2631225585938 Z M 189.7064971923828 179.2629241943359 C 186.9453125 179.2629241943359 184.7061157226562 177.2487030029297 184.7061157226562 174.7629241943359 C 184.7061157226562 172.2779998779297 186.9453125 170.2629241943359 189.7064971923828 170.2629241943359 C 192.4676971435547 170.2629241943359 194.7069244384766 172.2779998779297 194.7069244384766 174.7629241943359 C 194.7069244384766 177.2487030029297 192.4676971435547 179.2629241943359 189.7064971923828 179.2629241943359 Z M 159.7068023681641 179.2629241943359 C 156.9446868896484 179.2629241943359 154.7064208984375 177.2487030029297 154.7064208984375 174.7629241943359 C 154.7064208984375 172.2779998779297 156.9446868896484 170.2629241943359 159.7068023681641 170.2629241943359 C 162.4680023193359 170.2629241943359 164.7063140869141 172.2779998779297 164.7063140869141 174.7629241943359 C 164.7063140869141 177.2487030029297 162.4680023193359 179.2629241943359 159.7068023681641 179.2629241943359 Z M 128.7063140869141 179.2629241943359 C 125.9451141357422 179.2629241943359 123.7068099975586 177.2487030029297 123.7068099975586 174.7629241943359 C 123.7068099975586 172.2779998779297 125.9451141357422 170.2629241943359 128.7063140869141 170.2629241943359 C 131.4683837890625 170.2629241943359 133.7067260742188 172.2779998779297 133.7067260742188 174.7629241943359 C 133.7067260742188 177.2487030029297 131.4683837890625 179.2629241943359 128.7063140869141 179.2629241943359 Z M 100.7064208984375 179.2629241943359 C 97.9451904296875 179.2629241943359 95.70688629150391 177.2487030029297 95.70688629150391 174.7629241943359 C 95.70688629150391 172.2779998779297 97.9451904296875 170.2629241943359 100.7064208984375 170.2629241943359 C 103.4676132202148 170.2629241943359 105.7068099975586 172.2779998779297 105.7068099975586 174.7629241943359 C 105.7068099975586 177.2487030029297 103.4676132202148 179.2629241943359 100.7064208984375 179.2629241943359 Z M 72.70649719238281 179.2629241943359 C 69.94530487060547 179.2629241943359 67.70611572265625 177.2487030029297 67.70611572265625 174.7629241943359 C 67.70611572265625 172.2779998779297 69.94530487060547 170.2629241943359 72.70649719238281 170.2629241943359 C 75.46768951416016 170.2629241943359 77.70692443847656 172.2779998779297 77.70692443847656 174.7629241943359 C 77.70692443847656 177.2487030029297 75.46768951416016 179.2629241943359 72.70649719238281 179.2629241943359 Z M 201.7062377929688 162.2628173828125 C 198.9449920654297 162.2628173828125 196.7067260742188 160.2486267089844 196.7067260742188 157.7628173828125 C 196.7067260742188 155.2779235839844 198.9449920654297 153.2628173828125 201.7062377929688 153.2628173828125 C 204.4683074951172 153.2628173828125 206.7066192626953 155.2779235839844 206.7066192626953 157.7628173828125 C 206.7066192626953 160.2486267089844 204.4683074951172 162.2628173828125 201.7062377929688 162.2628173828125 Z M 176.7069244384766 162.2628173828125 C 173.9448089599609 162.2628173828125 171.7064971923828 160.2486267089844 171.7064971923828 157.7628173828125 C 171.7064971923828 155.2779235839844 173.9448089599609 153.2628173828125 176.7069244384766 153.2628173828125 C 179.4681091308594 153.2628173828125 181.7064208984375 155.2779235839844 181.7064208984375 157.7628173828125 C 181.7064208984375 160.2486267089844 179.4681091308594 162.2628173828125 176.7069244384766 162.2628173828125 Z M 143.7066192626953 162.2628173828125 C 140.9454193115234 162.2628173828125 138.7061920166016 160.2486267089844 138.7061920166016 157.7628173828125 C 138.7061920166016 155.2779235839844 140.9454193115234 153.2628173828125 143.7066192626953 153.2628173828125 C 146.4678039550781 153.2628173828125 148.7061157226562 155.2779235839844 148.7061157226562 157.7628173828125 C 148.7061157226562 160.2486267089844 146.4678039550781 162.2628173828125 143.7066192626953 162.2628173828125 Z M 113.7068862915039 162.2628173828125 C 110.9448089599609 162.2628173828125 108.7064971923828 160.2486267089844 108.7064971923828 157.7628173828125 C 108.7064971923828 155.2779235839844 110.9448089599609 153.2628173828125 113.7068862915039 153.2628173828125 C 116.4681167602539 153.2628173828125 118.7064208984375 155.2779235839844 118.7064208984375 157.7628173828125 C 118.7064208984375 160.2486267089844 116.4681167602539 162.2628173828125 113.7068862915039 162.2628173828125 Z M 85.70611572265625 162.2628173828125 C 82.94488525390625 162.2628173828125 80.70661163330078 160.2486267089844 80.70661163330078 157.7628173828125 C 80.70661163330078 155.2779235839844 82.94488525390625 153.2628173828125 85.70611572265625 153.2628173828125 C 88.46819305419922 153.2628173828125 90.70649719238281 155.2779235839844 90.70649719238281 157.7628173828125 C 90.70649719238281 160.2486267089844 88.46819305419922 162.2628173828125 85.70611572265625 162.2628173828125 Z M 55.7064208984375 162.2628173828125 C 52.9451904296875 162.2628173828125 50.7069206237793 160.2486267089844 50.7069206237793 157.7628173828125 C 50.7069206237793 155.2779235839844 52.9451904296875 153.2628173828125 55.7064208984375 153.2628173828125 C 58.46761322021484 153.2628173828125 60.70680618286133 155.2779235839844 60.70680618286133 157.7628173828125 C 60.70680618286133 160.2486267089844 58.46761322021484 162.2628173828125 55.7064208984375 162.2628173828125 Z M 45.32273101806641 139.8799285888672 C 21.53215408325195 139.8815765380859 2.016884088516235 119.6743469238281 1.575884103775024 94.39469909667969 C 1.130422472953796 68.85630798339844 20.32199859619141 47.81161880493164 44.44292068481445 47.39131164550781 C 44.6887092590332 47.38700485229492 44.93495941162109 47.38484954833984 45.17986297607422 47.38484954833984 C 51.12704849243164 47.38484954833984 56.80716705322266 48.64837646484375 61.98842239379883 50.93731307983398 C 69.68699645996094 23.04269599914551 93.79799652099609 2.47681188583374 122.7033081054688 1.972811818122864 C 123.0640258789062 1.966511249542236 123.4287643432617 1.963332414627075 123.7881851196289 1.963332414627075 C 151.2059631347656 1.963332414627075 174.7745208740234 20.14267730712891 184.1058044433594 45.87211990356445 C 186.9084167480469 45.22050476074219 189.8163146972656 44.85331344604492 192.797119140625 44.80112075805664 C 193.04150390625 44.79685211181641 193.2883911132812 44.79470062255859 193.5319061279297 44.79470062255859 C 217.3224945068359 44.79470062255859 236.8377380371094 65.00113677978516 237.2786865234375 90.28081512451172 C 237.7242279052734 115.8191986083984 218.5326080322266 136.8630065917969 194.4116973876953 137.2841949462891 C 194.1663208007812 137.2884826660156 193.9200134277344 137.2906341552734 193.6755218505859 137.2906341552734 C 181.9269256591797 137.2910308837891 171.2221069335938 132.3623199462891 163.3410034179688 124.3286972045898 C 152.7471160888672 132.9911956787109 139.5126190185547 138.2426910400391 125.0865020751953 138.4946899414062 C 124.7262344360352 138.5009613037109 124.3641204833984 138.5041046142578 124.0051498413086 138.5041198730469 C 107.3658599853516 138.5047760009766 92.14356231689453 131.8085479736328 80.65980529785156 120.7926177978516 C 72.88649749755859 132.1478881835938 60.33511352539062 139.6241912841797 46.05749893188477 139.8735046386719 C 45.81311416625977 139.8777770996094 45.56623077392578 139.8798828125 45.32273101806641 139.8799285888672 Z" id="el_nfFjRy9dkye"/></g>
  </g>
<script>(function(){var a=document.querySelector('#el_YjIyv8PGSrC'),b=a.querySelectorAll('style'),c=function(d){b.forEach(function(f){var g=f.textContent;g&amp;&amp;(f.textContent=g.replace(/transform-box:[^;\r\n]*/gi,'transform-box: '+d))})};c('initial'),window.requestAnimationFrame(function(){return c('fill-box')})})();</script></svg>