<svg xmlns="http://www.w3.org/2000/svg" viewBox="0 0 391 377" id="el_GJN7tc1v1cR"><style>@-webkit-keyframes el_niJC4uYXHlY_z7Q4Ic7t4_Animation{0%{-webkit-transform: scale(1, 1);transform: scale(1, 1);}33.33%{-webkit-transform: scale(0.9, 0.9);transform: scale(0.9, 0.9);}66.67%{-webkit-transform: scale(0.9, 0.9);transform: scale(0.9, 0.9);}100%{-webkit-transform: scale(1, 1);transform: scale(1, 1);}}@keyframes el_niJC4uYXHlY_z7Q4Ic7t4_Animation{0%{-webkit-transform: scale(1, 1);transform: scale(1, 1);}33.33%{-webkit-transform: scale(0.9, 0.9);transform: scale(0.9, 0.9);}66.67%{-webkit-transform: scale(0.9, 0.9);transform: scale(0.9, 0.9);}100%{-webkit-transform: scale(1, 1);transform: scale(1, 1);}}@-webkit-keyframes el_hLmGv_mgswn_aWxnWXmJ9_Animation{0%{-webkit-transform: scale(0.8, 0.8);transform: scale(0.8, 0.8);}33.33%{-webkit-transform: scale(1, 1);transform: scale(1, 1);}66.67%{-webkit-transform: scale(0.9, 0.9);transform: scale(0.9, 0.9);}100%{-webkit-transform: scale(1, 1);transform: scale(1, 1);}}@keyframes el_hLmGv_mgswn_aWxnWXmJ9_Animation{0%{-webkit-transform: scale(0.8, 0.8);transform: scale(0.8, 0.8);}33.33%{-webkit-transform: scale(1, 1);transform: scale(1, 1);}66.67%{-webkit-transform: scale(0.9, 0.9);transform: scale(0.9, 0.9);}100%{-webkit-transform: scale(1, 1);transform: scale(1, 1);}}#el_GJN7tc1v1cR *{-webkit-animation-duration: 3s;animation-duration: 3s;-webkit-animation-iteration-count: infinite;animation-iteration-count: infinite;-webkit-animation-timing-function: cubic-bezier(0, 0, 1, 1);animation-timing-function: cubic-bezier(0, 0, 1, 1);}#el_l4PTMp5xbBj{-webkit-transform: translate(-135.807px, 557px);transform: translate(-135.807px, 557px);}#el_niJC4uYXHlY{fill: #fff;-webkit-transform: translate(135.807px, -557px);transform: translate(135.807px, -557px);}#el_ULGJjZwJW_q{stroke: none;}#el_FC9iVXHT7cY{stroke: none;fill: #707070;}#el_hLmGv_mgswn{fill: none;stroke: #707070;stroke-width: 8px;-webkit-transform: translate(1060px, -165.711px);transform: translate(1060px, -165.711px);}#el_hLmGv_mgswn_aWxnWXmJ9{-webkit-animation-name: el_hLmGv_mgswn_aWxnWXmJ9_Animation;animation-name: el_hLmGv_mgswn_aWxnWXmJ9_Animation;-webkit-transform-origin: 50% 50%;transform-origin: 50% 50%;transform-box: fill-box;-webkit-transform: scale(0.8, 0.8);transform: scale(0.8, 0.8);}#el_niJC4uYXHlY_z7Q4Ic7t4{-webkit-animation-name: el_niJC4uYXHlY_z7Q4Ic7t4_Animation;animation-name: el_niJC4uYXHlY_z7Q4Ic7t4_Animation;-webkit-transform-origin: 50% 50%;transform-origin: 50% 50%;transform-box: fill-box;-webkit-transform: scale(1, 1);transform: scale(1, 1);}</style>
  <defs>
    
  </defs>
  <g id="el_l4PTMp5xbBj" data-name="组 17">
    <g id="el_niJC4uYXHlY_z7Q4Ic7t4" data-animator-group="true" data-animator-type="2"><g id="el_niJC4uYXHlY" data-name="联合 17">
      <path d="M 198.2464294433594 221.3003082275391 C 185.2587432861328 221.3003082275391 172.5994720458984 218.7868347167969 160.6202087402344 213.8297729492188 C 154.8474273681641 211.4409942626953 149.2422637939453 208.4759368896484 143.9603729248047 205.0169372558594 C 138.7298431396484 201.5916137695312 133.7569580078125 197.6433563232422 129.1798400878906 193.2818298339844 L 126.2931594848633 190.5310974121094 L 123.5333709716797 193.4090423583984 C 120.3572158813477 196.7211456298828 116.8678436279297 199.7264556884766 113.1620559692383 202.3415679931641 C 109.4253234863281 204.978515625 105.4346923828125 207.2423553466797 101.3010025024414 209.0702056884766 C 92.71279144287109 212.8678283691406 83.59394836425781 214.7933502197266 74.19773864746094 214.7933502197266 C 64.74505615234375 214.7933502197266 55.57526779174805 212.8451995849609 46.94305801391602 209.0029296875 C 42.7889518737793 207.1538848876953 38.78105545043945 204.8644104003906 35.03068923950195 202.1980895996094 C 31.31105613708496 199.5535736083984 27.8122673034668 196.5155181884766 24.63153076171875 193.1682586669922 C 21.44742584228516 189.8173522949219 18.55605697631836 186.1294097900391 16.03779411315918 182.2066802978516 C 13.49363613128662 178.2436218261719 11.30821514129639 174.0063018798828 9.542215347290039 169.6124572753906 C 5.864688396453857 160.46240234375 4.000004291534424 150.7384643554688 4.000004291534424 140.7107238769531 C 4.000004291534424 130.6831512451172 5.864688396453857 120.959358215332 9.542215347290039 111.8094635009766 C 11.30821514129639 107.4156723022461 13.49363613128662 103.1784133911133 16.03779411315918 99.21535491943359 C 18.55605697631836 95.29267120361328 21.44742584228516 91.60472869873047 24.63153076171875 88.25388336181641 C 27.8122673034668 84.90666961669922 31.31105613708496 81.86856842041016 35.03068923950195 79.22409057617188 C 38.78105545043945 76.55777740478516 42.7889518737793 74.26830291748047 46.94305801391602 72.41930389404297 C 55.57526779174805 68.57704162597656 64.74505615234375 66.62888336181641 74.19773864746094 66.62888336181641 C 82.62000274658203 66.62888336181641 90.85379028320312 68.18524932861328 98.67042541503906 71.25472259521484 L 102.3203201293945 72.68804168701172 L 103.8258972167969 69.06730651855469 C 107.7822647094727 59.55267333984375 113.0195846557617 50.68293762207031 119.3923721313477 42.70446395874023 C 125.7192153930664 34.7835693359375 133.0675811767578 27.86193656921387 141.2334289550781 22.13188362121582 C 158.1379547119141 10.26988315582275 177.8526916503906 3.999988555908203 198.2464294433594 3.999988555908203 C 209.9638519287109 3.999988555908203 221.4566345214844 6.055988788604736 232.4054718017578 10.11093616485596 C 242.9977874755859 14.03377819061279 252.8697357177734 19.74162101745605 261.7471008300781 27.07583045959473 C 270.5503845214844 34.34877777099609 278.1359558105469 43.02004241943359 284.2930603027344 52.84867095947266 C 290.5572204589844 62.84814834594727 295.17236328125 73.78025054931641 298.0103149414062 85.34140777587891 L 299.1151123046875 89.842041015625 L 303.406005859375 88.09146118164062 C 310.5336303710938 85.18357086181641 318.0590515136719 83.70914459228516 325.7732238769531 83.70914459228516 C 334.1302185058594 83.70914459228516 342.2371215820312 85.4315185546875 349.8687438964844 88.82846069335938 C 353.5419921875 90.46346282958984 357.0860595703125 92.48804473876953 360.402587890625 94.84593963623047 C 363.6924743652344 97.1849365234375 366.7871704101562 99.87214660644531 369.6006774902344 102.8329391479492 C 372.4175720214844 105.7973556518555 374.9755249023438 109.0600967407227 377.2034912109375 112.5305709838867 C 379.45458984375 116.0370407104492 381.3882751464844 119.7862548828125 382.9508361816406 123.6740417480469 C 386.2052612304688 131.7711486816406 387.8553771972656 140.3765716552734 387.8553771972656 149.2512512207031 C 387.8553771972656 158.1259307861328 386.2052612304688 166.7313537597656 382.9508361816406 174.8284606933594 C 381.3882751464844 178.7162475585938 379.45458984375 182.4654693603516 377.2034912109375 185.9719390869141 C 374.9755249023438 189.4424133300781 372.4175720214844 192.7051391601562 369.6006774902344 195.6695709228516 C 366.7871704101562 198.6303558349609 363.6924743652344 201.3175659179688 360.402587890625 203.6565704345703 C 357.0860595703125 206.0144653320312 353.5419921875 208.0390472412109 349.8687438964844 209.6740417480469 C 342.2371215820312 213.0709838867188 334.1302185058594 214.7933502197266 325.7732238769531 214.7933502197266 C 320.9383239746094 214.7933502197266 316.1243286132812 214.2049865722656 311.4649658203125 213.0446166992188 C 306.9344177246094 211.9163055419922 302.5181579589844 210.2400360107422 298.3387451171875 208.0623016357422 C 294.2276306152344 205.9201965332031 290.3301086425781 203.2854156494141 286.7543640136719 200.2310485839844 C 283.1942749023438 197.1900939941406 279.9465942382812 193.7278289794922 277.1014404296875 189.9405212402344 L 274.2624816894531 186.1613616943359 L 271.0049438476562 189.5862579345703 C 266.3384399414062 194.4925689697266 261.2054138183594 198.9459381103516 255.7484741210938 202.8226776123047 C 250.2441101074219 206.7331390380859 244.3614807128906 210.0910949707031 238.2640533447266 212.8033599853516 C 232.0584716796875 215.5636749267578 225.5654296875 217.6835174560547 218.9653778076172 219.1039428710938 C 212.1933746337891 220.5613555908203 205.2225341796875 221.3003082275391 198.2464294433594 221.3003082275391 Z" id="el_ULGJjZwJW_q"/>
      <path d="M 198.2464599609375 217.3003082275391 C 224.6073608398438 217.3003082275391 249.4175262451172 206.4789276123047 268.1065673828125 186.8295288085938 L 274.6216430664062 179.9797515869141 L 280.2995300292969 187.5379791259766 C 291.4019775390625 202.3170928955078 307.9764709472656 210.7933197021484 325.773193359375 210.7933197021484 C 357.7998657226562 210.7933197021484 383.8554077148438 183.1856536865234 383.8554077148438 149.2512512207031 C 383.8554077148438 115.3168106079102 357.7998657226562 87.70914459228516 325.773193359375 87.70914459228516 C 318.5795288085938 87.70914459228516 311.5624694824219 89.08386993408203 304.9169616699219 91.79508972167969 L 296.3351745605469 95.29625701904297 L 294.1256408691406 86.29498291015625 C 282.8094787597656 40.1960334777832 243.3825225830078 7.999979972839355 198.2464599609375 7.999979972839355 C 158.9454650878906 7.999979972839355 123.3329086303711 32.57320022583008 107.5193023681641 70.6031494140625 L 104.508186340332 77.84453582763672 L 97.20835876464844 74.97798156738281 C 89.85941314697266 72.09209442138672 82.11752319335938 70.62886810302734 74.19774627685547 70.62886810302734 C 37.69618988037109 70.62886810302734 8.000021934509277 102.0674819946289 8.000021934509277 140.7107543945312 C 8.000021934509277 179.3544311523438 37.69618988037109 210.7933197021484 74.19774627685547 210.7933197021484 C 91.68824768066406 210.7933197021484 108.1840209960938 203.6362609863281 120.6463012695312 190.6405334472656 L 126.1659088134766 184.8846435546875 L 131.9392395019531 190.3860321044922 C 150.1529693603516 207.7419738769531 173.7013549804688 217.3003082275391 198.2464599609375 217.3003082275391 M 198.2464599609375 225.3003082275391 C 170.6065216064453 225.3003082275391 145.4132385253906 214.2759857177734 126.42041015625 196.1776428222656 C 113.0129089355469 210.1590423583984 94.56413269042969 218.7933197021484 74.19774627685547 218.7933197021484 C 33.21913146972656 218.7933197021484 2.193196633015759e-05 183.8348693847656 2.193196633015759e-05 140.7107543945312 C 2.193196633015759e-05 97.58731079101562 33.21913146972656 62.62886810302734 74.19774627685547 62.62886810302734 C 83.32174682617188 62.62886810302734 92.05879974365234 64.36109161376953 100.1324691772461 67.53153228759766 C 116.6634140014648 27.77647972106934 154.3725280761719 -2.018229133682325e-05 198.2464599609375 -2.018229133682325e-05 C 248.0921936035156 -2.018229133682325e-05 289.9800109863281 35.84959030151367 301.8949584960938 84.38780975341797 C 309.301025390625 81.36631011962891 317.3530883789062 79.70914459228516 325.773193359375 79.70914459228516 C 362.269287109375 79.70914459228516 391.8554077148438 110.8442611694336 391.8554077148438 149.2512512207031 C 391.8554077148438 187.6582641601562 362.269287109375 218.7933197021484 325.773193359375 218.7933197021484 C 304.742919921875 218.7933197021484 286.0059814453125 208.4535980224609 273.9032897949219 192.3429870605469 C 254.5346832275391 212.7068176269531 227.7880249023438 225.3003082275391 198.2464599609375 225.3003082275391 Z" id="el_FC9iVXHT7cY"/>
    </g></g>
    <g id="el_hLmGv_mgswn_aWxnWXmJ9" data-animator-group="true" data-animator-type="2"><path id="el_hLmGv_mgswn" data-name="路径 2" d="M-702.828-155.154c-81.01,70.706-83.886,67.734-83.886,67.734h60.343L-786.714-16.7l105.293-84.107h-57.237Z"/></g>
  </g>
<script>(function(){var a=document.querySelector('#el_GJN7tc1v1cR'),b=a.querySelectorAll('style'),c=function(d){b.forEach(function(f){var g=f.textContent;g&amp;&amp;(f.textContent=g.replace(/transform-box:[^;\r\n]*/gi,'transform-box: '+d))})};c('initial'),window.requestAnimationFrame(function(){return c('fill-box')})})();</script></svg>