<svg xmlns="http://www.w3.org/2000/svg" viewBox="0 0 313.086 182.673">
  <defs>
    <style>
      .cls-1 {
        fill: #fff;
      }

      .cls-2, .cls-3 {
        stroke: none;
      }

      .cls-3 {
        fill: #707070;
      }
    </style>
  </defs>
  <g id="组_1" data-name="组 1" transform="translate(100.707 205.263)">
    <g id="联合_5" data-name="联合 5" class="cls-1" transform="translate(-25.707 -201.149) rotate(-1)">
      <path class="cls-2" d="M 192.057861328125 132.5427856445312 C 186.7384033203125 132.5427856445312 181.577392578125 131.4418182373047 176.7181701660156 129.2704925537109 C 172.0068664550781 127.1652526855469 167.7688598632812 124.145751953125 164.121826171875 120.2958831787109 L 161.6088714599609 117.6431198120117 L 158.7402038574219 119.9065551757812 C 153.6358032226562 123.93408203125 148.0056610107422 127.063117980957 142.0062255859375 129.2067565917969 C 135.8108978271484 131.4203796386719 129.3228912353516 132.5427856445312 122.7223968505859 132.5427856445312 C 107.333366394043 132.5427856445312 92.66896057128906 126.394416809082 81.43049621582031 115.2302551269531 L 78.08326721191406 111.9051818847656 L 75.35066223144531 115.7513198852539 C 73.53582763671875 118.3057174682617 71.44539642333984 120.6441497802734 69.13742828369141 122.7016220092773 C 66.82416534423828 124.7638549804688 64.29169464111328 126.5442199707031 61.61043167114258 127.9933166503906 C 58.88849639892578 129.46435546875 56.00649642944336 130.5971221923828 53.04449844360352 131.3601226806641 C 49.99803161621094 132.1448822021484 46.84769821166992 132.5427856445312 43.68099594116211 132.5427856445312 C 38.35126495361328 132.5427856445312 33.1807975769043 131.4375152587891 28.31323051452637 129.2576904296875 C 23.59383010864258 127.1442184448242 19.35073089599609 124.1137161254883 15.70186424255371 120.2503509521484 C 12.03773021697998 116.3708877563477 9.159564018249512 111.8496856689453 7.147230625152588 106.812385559082 C 5.058863639831543 101.5847549438477 3.999997138977051 96.0272216796875 3.999997138977051 90.29425048828125 C 3.999997138977051 84.56128692626953 5.058863639831543 79.0037841796875 7.147230625152588 73.77615356445312 C 9.159564018249512 68.73885345458984 12.03773021697998 64.2176513671875 15.70186424255371 60.33818435668945 C 19.35073089599609 56.47481918334961 23.59383010864258 53.44431686401367 28.31323051452637 51.33085250854492 C 33.1807975769043 49.15102005004883 38.35126495361328 48.04575347900391 43.68099594116211 48.04575347900391 C 49.17313003540039 48.04575347900391 54.48933029174805 49.21735000610352 59.48189544677734 51.52805328369141 L 63.68786239624023 53.47468566894531 L 64.99866485595703 49.0292854309082 C 66.90579986572266 42.56138610839844 69.76166534423828 36.47434997558594 73.48683166503906 30.93718528747559 C 77.15749359130859 25.48111915588379 81.58666229248047 20.68358612060547 86.65132904052734 16.67785263061523 C 91.76033020019531 12.63701820373535 97.39743041992188 9.497652053833008 103.4059982299805 7.34691858291626 C 109.6104278564453 5.12608528137207 116.1093978881836 4.00001859664917 122.7223968505859 4.00001859664917 C 129.1015014648438 4.00001859664917 135.3819580078125 5.049485206604004 141.3893585205078 7.119285106658936 C 147.2086029052734 9.124218940734863 152.6986236572266 12.05805206298828 157.7069702148438 15.83925151824951 C 162.6649627685547 19.58248519897461 167.0556335449219 24.08241844177246 170.7570343017578 29.21411895751953 C 174.5025939941406 34.40708541870117 177.4662017822266 40.14315032958984 179.5655364990234 46.2629508972168 L 180.7169647216797 49.6195182800293 L 184.1868286132812 48.87635040283203 C 186.7601013183594 48.32521820068359 189.4082946777344 48.04575347900391 192.057861328125 48.04575347900391 C 197.3876037597656 48.04575347900391 202.5580596923828 49.15102005004883 207.4256591796875 51.33085250854492 C 212.1450653076172 53.44431686401367 216.3881378173828 56.47481918334961 220.0370330810547 60.33818435668945 C 223.7011260986328 64.2176513671875 226.5793304443359 68.73885345458984 228.5916290283203 73.77615356445312 C 230.6799926757812 79.0037841796875 231.7388610839844 84.56128692626953 231.7388610839844 90.29425048828125 C 231.7388610839844 96.02725219726562 230.6799926757812 101.5847549438477 228.5916290283203 106.812385559082 C 226.5793304443359 111.8496856689453 223.7011260986328 116.3708877563477 220.0370330810547 120.2503509521484 C 216.3881378173828 124.1137161254883 212.1450653076172 127.1442184448242 207.4256591796875 129.2576904296875 C 202.5580596923828 131.4375152587891 197.3876037597656 132.5427856445312 192.057861328125 132.5427856445312 Z"/>
      <path class="cls-3" d="M 192.0578460693359 128.5427703857422 C 211.7324371337891 128.5427703857422 227.7388610839844 111.3845748901367 227.7388610839844 90.29427337646484 C 227.7388610839844 69.20396423339844 211.7324371337891 52.04576873779297 192.0578460693359 52.04576873779297 C 189.6892700195312 52.04576873779297 187.3229370117188 52.29538345336914 185.0245513916016 52.78761672973633 L 178.0848541259766 54.27396392822266 L 175.7819671630859 47.56088638305664 C 167.6647796630859 23.89830780029297 146.3417816162109 8.000000953674316 122.7223892211914 8.000000953674316 C 97.92669677734375 8.000000953674316 76.27112579345703 24.94303894042969 68.83535003662109 50.16061782836914 L 66.21373748779297 59.05138397216797 L 57.80181503295898 55.15811538696289 C 53.33962249755859 53.09292221069336 48.58869934082031 52.04576873779297 43.68100738525391 52.04576873779297 C 24.00642967224121 52.04576873779297 8.000007629394531 69.20396423339844 8.000007629394531 90.29427337646484 C 8.000007629394531 111.3845748901367 24.00642967224121 128.5427703857422 43.68100738525391 128.5427703857422 C 54.91362380981445 128.5427703857422 65.26828002929688 123.0360412597656 72.08988952636719 113.4346160888672 L 77.55508422851562 105.7422714233398 L 84.24954223632812 112.392463684082 C 94.73350524902344 122.8071517944336 108.3967742919922 128.5427703857422 122.7223892211914 128.5427703857422 C 134.9003143310547 128.5427703857422 146.4983215332031 124.4705352783203 156.2625122070312 116.7663497924805 L 161.9997711181641 112.2394638061523 L 167.0257415771484 117.5449981689453 C 173.7440490722656 124.6370391845703 182.6339721679688 128.5427703857422 192.0578460693359 128.5427703857422 M 192.0578460693359 136.5427703857422 C 180.0191955566406 136.5427703857422 169.1189727783203 131.3873138427734 161.2179260253906 123.0467681884766 C 150.4747009277344 131.5234680175781 137.1508178710938 136.5427703857422 122.7223892211914 136.5427703857422 C 105.6601257324219 136.5427703857422 90.14458465576172 129.5249176025391 78.61146545410156 118.0680389404297 C 70.64112091064453 129.2863464355469 57.96070098876953 136.5427703857422 43.68100738525391 136.5427703857422 C 19.5566234588623 136.5427703857422 7.465069302270422e-06 115.8366546630859 7.465069302270422e-06 90.29427337646484 C 7.465069302270422e-06 64.75188446044922 19.5566234588623 44.04576873779297 43.68100738525391 44.04576873779297 C 49.89616012573242 44.04576873779297 55.80946731567383 45.42073059082031 61.16196823120117 47.89799880981445 C 69.34623718261719 20.14211654663086 93.81216430664062 5.774865030616638e-07 122.7223892211914 5.774865030616638e-07 C 150.6033477783203 5.774865030616638e-07 174.3517761230469 18.73673057556152 183.34912109375 44.96503829956055 C 186.1629333496094 44.36238479614258 189.0761566162109 44.04576873779297 192.0578460693359 44.04576873779297 C 216.1822357177734 44.04576873779297 235.7388610839844 64.75188446044922 235.7388610839844 90.29427337646484 C 235.7388610839844 115.8366546630859 216.1822357177734 136.5427703857422 192.0578460693359 136.5427703857422 Z"/>
    </g>
    <g id="联合_8" data-name="联合 8" class="cls-1" transform="translate(-100.707 -170.149) rotate(-1)">
      <path class="cls-2" d="M 218.6490020751953 143.5816802978516 C 212.4883575439453 143.5816802978516 206.5133056640625 142.3720245361328 200.8898162841797 139.9863739013672 C 195.4547271728516 137.6806030273438 190.5698089599609 134.3776397705078 186.3706970214844 130.1692504882812 L 183.9190368652344 127.7121810913086 L 181.1410064697266 129.7931823730469 C 175.2794342041016 134.1840972900391 168.8108062744141 137.5966033935547 161.9147796630859 139.9358673095703 C 154.7833099365234 142.3550567626953 147.3138122558594 143.5816802978516 139.7137756347656 143.5816802978516 C 122.007926940918 143.5816802978516 105.148078918457 136.8772583007812 92.23996734619141 124.703369140625 L 88.97881317138672 121.6277542114258 L 86.29296875 125.2167587280273 C 84.20957946777344 128.0007171630859 81.808349609375 130.5505981445312 79.15589141845703 132.7954864501953 C 76.49111938476562 135.0508728027344 73.57200622558594 136.9989471435547 70.47969818115234 138.5856018066406 C 67.33365631103516 140.1998291015625 64.00104522705078 141.4432220458984 60.57442855834961 142.28125 C 57.04604339599609 143.1441345214844 53.39704132080078 143.5816802978516 49.72881317138672 143.5816802978516 C 43.5562744140625 143.5816802978516 37.5703125 142.3672943115234 31.93715858459473 139.9723358154297 C 26.49284934997559 137.6575622558594 21.60215759277344 134.3426361083984 17.40096473693848 130.1195983886719 C 13.19834995269775 125.8951416015625 9.89911937713623 120.9764862060547 7.594850063323975 115.5002136230469 C 5.209465503692627 109.8312530517578 4.000003814697266 103.8067932128906 4.000003814697266 97.59417724609375 C 4.000003814697266 91.38156127929688 5.209465503692627 85.35710144042969 7.594850063323975 79.68814086914062 C 9.89911937713623 74.21186828613281 13.19834995269775 69.29322052001953 17.40096473693848 65.06875610351562 C 21.60215759277344 60.84571838378906 26.49284934997559 57.53079223632812 31.93715858459473 55.21602630615234 C 37.5703125 52.82106399536133 43.5562744140625 51.6066780090332 49.72881317138672 51.6066780090332 C 56.08931350708008 51.6066780090332 62.24365615844727 52.89383316040039 68.02092742919922 55.43241119384766 L 72.12154388427734 57.23421859741211 L 73.45004272460938 52.95675659179688 C 75.62765502929688 45.94540786743164 78.89008331298828 39.34460067749023 83.14669799804688 33.33771896362305 C 87.34861755371094 27.40798568725586 92.42185211181641 22.19171714782715 98.22542572021484 17.83383178710938 C 104.0921936035156 13.42848682403564 110.5688095092773 10.00471687316895 117.4753494262695 7.657678604125977 C 124.6172714233398 5.230601787567139 132.0993499755859 3.999986410140991 139.7137756347656 3.999986410140991 C 147.0589599609375 3.999986410140991 154.2896575927734 5.146947860717773 161.2050476074219 7.409024715423584 C 167.894775390625 9.597255706787109 174.2033843994141 12.79737091064453 179.9555816650391 16.92041015625 C 185.6384582519531 20.99379348754883 190.6688842773438 25.88783264160156 194.9072418212891 31.46660232543945 C 199.1883850097656 37.10175704956055 202.5748138427734 43.32367706298828 204.9725036621094 49.95952606201172 L 206.1463470458984 53.20833206176758 L 209.5314636230469 52.52006149291992 C 212.5121917724609 51.91398620605469 215.5797729492188 51.6066780090332 218.6490020751953 51.6066780090332 C 224.8215484619141 51.6066780090332 230.8075103759766 52.82106399536133 236.4406127929688 55.21602630615234 C 241.8849639892578 57.53079223632812 246.7756652832031 60.84571838378906 250.976806640625 65.06875610351562 C 255.1794281005859 69.29322052001953 258.4786987304688 74.21186828613281 260.7829284667969 79.68814086914062 C 263.1683044433594 85.35710144042969 264.3777770996094 91.38156127929688 264.3777770996094 97.59417724609375 C 264.3777770996094 103.8067932128906 263.1683044433594 109.8312530517578 260.7829284667969 115.5002136230469 C 258.4786987304688 120.9764862060547 255.1794281005859 125.8951416015625 250.976806640625 130.1195983886719 C 246.7756652832031 134.3426361083984 241.8849639892578 137.6575622558594 236.4406127929688 139.9723358154297 C 230.8075103759766 142.3672943115234 224.8215484619141 143.5816802978516 218.6490020751953 143.5816802978516 Z"/>
      <path class="cls-3" d="M 218.6489715576172 139.5816650390625 C 241.6583099365234 139.5816650390625 260.3777770996094 120.7461624145508 260.3777770996094 97.59416961669922 C 260.3777770996094 74.44216918945312 241.6583099365234 55.60666656494141 218.6489715576172 55.60666656494141 C 215.846923828125 55.60666656494141 213.0475158691406 55.88700103759766 210.3285522460938 56.43987274169922 L 203.5583038330078 57.81649780273438 L 201.2105560302734 51.31883239746094 C 191.8485565185547 25.40849876403809 167.1349334716797 7.999999046325684 139.7137603759766 7.999999046325684 C 110.9362182617188 7.999999046325684 85.84201049804688 26.54354095458984 77.27005767822266 54.14316558837891 L 74.61305236816406 62.69812393188477 L 66.41180419921875 59.09445571899414 C 61.14484786987305 56.78012466430664 55.53188705444336 55.60666656494141 49.72880554199219 55.60666656494141 C 26.7194709777832 55.60666656494141 8.00001335144043 74.44216918945312 8.00001335144043 97.59416961669922 C 8.00001335144043 120.7461624145508 26.7194709777832 139.5816650390625 49.72880554199219 139.5816650390625 C 62.95905685424805 139.5816650390625 75.11888885498047 133.4723358154297 83.09043121337891 122.8201217651367 L 88.46209716796875 115.6420440673828 L 94.98442840576172 121.7933731079102 C 107.1471786499023 133.2643280029297 123.0323867797852 139.5816650390625 139.7137603759766 139.5816650390625 C 153.9024658203125 139.5816650390625 167.3985137939453 135.0898284912109 178.7428894042969 126.5917892456055 L 184.2989349365234 122.4297943115234 L 189.2023010253906 127.3440017700195 C 197.0764312744141 135.2355804443359 207.5341339111328 139.5816650390625 218.6489715576172 139.5816650390625 M 218.6489715576172 147.5816650390625 C 204.9435577392578 147.5816650390625 192.5341033935547 142.0094146728516 183.5391845703125 132.9945831298828 C 171.3085174560547 142.1565399169922 156.139892578125 147.5816650390625 139.7137603759766 147.5816650390625 C 120.2891387939453 147.5816650390625 102.6254730224609 139.9964599609375 89.49551391601562 127.6133346557617 C 80.42163848876953 139.7385864257812 65.98555755615234 147.5816650390625 49.72880554199219 147.5816650390625 C 22.26430511474609 147.5816650390625 1.354980486212298e-05 125.2015380859375 1.354980486212298e-05 97.59416961669922 C 1.354980486212298e-05 69.98679351806641 22.26430511474609 47.60666656494141 49.72880554199219 47.60666656494141 C 56.80447006225586 47.60666656494141 63.53651428222656 49.09279251098633 69.63005828857422 51.77033233642578 C 78.94747161865234 21.77049827575684 106.8008041381836 -8.138021030390519e-07 139.7137603759766 -8.138021030390519e-07 C 171.4549255371094 -8.138021030390519e-07 198.4914245605469 20.25149917602539 208.7344665527344 48.60029220581055 C 211.9378814697266 47.94891738891602 215.2544708251953 47.60666656494141 218.6489715576172 47.60666656494141 C 246.1135101318359 47.60666656494141 268.3777770996094 69.98679351806641 268.3777770996094 97.59416961669922 C 268.3777770996094 125.2015380859375 246.1135101318359 147.5816650390625 218.6489715576172 147.5816650390625 Z"/>
    </g>
  </g>
</svg>
