<svg xmlns="http://www.w3.org/2000/svg" viewBox="0 0 249 169" id="el_VyGfFWE2L0"><style>@-webkit-keyframes el_pR_h_eiVrS_c6tzoREom_Animation{
0%{-webkit-transform: scale(0.8, 0.8);transform: scale(0.8, 0.8);}
100%{-webkit-transform: scale(1, 1);transform: scale(1, 1);}}
@keyframes el_pR_h_eiVrS_c6tzoREom_Animation{
0%{-webkit-transform: scale(0.8, 0.8);transform: scale(0.8, 0.8);}
100%{-webkit-transform: scale(1, 1);transform: scale(1, 1);}}
#el_VyGfFWE2L0 *{-webkit-animation-duration: 3s;animation-duration: 3s;-webkit-animation-iteration-count: infinite;animation-iteration-count: infinite;-webkit-animation-timing-function: cubic-bezier(0, 0, 1, 1);animation-timing-function: cubic-bezier(0, 0, 1, 1);}
#el_pR_h_eiVrS{fill: #fff;stroke: #707070;stroke-width: 8px;-webkit-transform: translate(-2.5px, 2.5px);transform: translate(-2.5px, 2.5px);}
#el_pR_h_eiVrS_c6tzoREom{-webkit-animation-name: el_pR_h_eiVrS_c6tzoREom_Animation;animation-name: el_pR_h_eiVrS_c6tzoREom_Animation;-webkit-transform-origin: 50% 50%;transform-origin: 50% 50%;transform-box: fill-box;-webkit-transform: scale(0.8, 0.8);transform: scale(0.8, 0.8);}</style>
  <defs>
    
  </defs>
  <g id="el_pR_h_eiVrS_c6tzoREom" data-animator-group="true" data-animator-type="2"><path id="el_pR_h_eiVrS" d="M200.384,148.9,183.67,163.279Zm-45.128,0-16.714,14.381Zm-38.442,0L91.743,163.279Zm-48.472,0-25.07,14.381Zm106.151-27.957-.576-.912-.715.791c-11.124,12.311-25.716,19.092-41.083,19.092a52.253,52.253,0,0,1-25-6.372,58.674,58.674,0,0,1-10.707-7.434,64.825,64.825,0,0,1-9.1-9.8l-.77-1.022-.6,1.145a45.729,45.729,0,0,1-15.3,17.014,39.273,39.273,0,0,1-21.474,6.466,38.606,38.606,0,0,1-16.594-3.739A42.619,42.619,0,0,1,19,125.971a48.172,48.172,0,0,1-9.149-15.142,52.96,52.96,0,0,1,0-37.106A48.154,48.154,0,0,1,19,58.581a42.6,42.6,0,0,1,13.56-10.2,38.6,38.6,0,0,1,16.594-3.737,39.393,39.393,0,0,1,24.172,8.38l1,.767.3-1.28a74.462,74.462,0,0,1,8.03-20.384A66.451,66.451,0,0,1,95.666,15.967,57.326,57.326,0,0,1,112.524,5.331a52.037,52.037,0,0,1,40.032.349,57.873,57.873,0,0,1,17.391,11.561,67.486,67.486,0,0,1,13.065,17.475,75.482,75.482,0,0,1,7.445,21.9l.2,1.108.96-.455a37.9,37.9,0,0,1,31.882-.256,40.091,40.091,0,0,1,12.791,9.247,43.315,43.315,0,0,1,8.626,13.712,46.168,46.168,0,0,1,0,33.584,43.315,43.315,0,0,1-8.626,13.712,40.066,40.066,0,0,1-12.791,9.247,37.675,37.675,0,0,1-15.666,3.391C194.464,139.912,182,132.819,174.493,120.942Z"/></g>
<script>(function(){var a=document.querySelector('#el_VyGfFWE2L0'),b=a.querySelectorAll('style'),c=function(d){b.forEach(function(f){var g=f.textContent;g&amp;&amp;(f.textContent=g.replace(/transform-box:[^;\r\n]*/gi,'transform-box: '+d))})};c('initial'),window.requestAnimationFrame(function(){return c('fill-box')})})();</script></svg>