<svg xmlns="http://www.w3.org/2000/svg" viewBox="0 0 275 206" id="el_scx7NZgNr5d"><style>@-webkit-keyframes el_8_QAwLgJxCW_OLZEiY7Cf_Animation{0%{-webkit-transform: scale(0.2, 0.2);transform: scale(0.2, 0.2);}33.33%{-webkit-transform: scale(1, 1);transform: scale(1, 1);}66.67%{-webkit-transform: scale(0.6, 0.6);transform: scale(0.6, 0.6);}100%{-webkit-transform: scale(1, 1);transform: scale(1, 1);}}@keyframes el_8_QAwLgJxCW_OLZEiY7Cf_Animation{0%{-webkit-transform: scale(0.2, 0.2);transform: scale(0.2, 0.2);}33.33%{-webkit-transform: scale(1, 1);transform: scale(1, 1);}66.67%{-webkit-transform: scale(0.6, 0.6);transform: scale(0.6, 0.6);}100%{-webkit-transform: scale(1, 1);transform: scale(1, 1);}}@-webkit-keyframes el_yq7BjD6DqSA_tD0_67ljq_Animation{12.22%{-webkit-transform: scale(0.2, 0.2);transform: scale(0.2, 0.2);}50%{-webkit-transform: scale(1, 1);transform: scale(1, 1);}84.44%{-webkit-transform: scale(0.6, 0.6);transform: scale(0.6, 0.6);}100%{-webkit-transform: scale(1, 1);transform: scale(1, 1);}0%{-webkit-transform: scale(0.2, 0.2);transform: scale(0.2, 0.2);}}@keyframes el_yq7BjD6DqSA_tD0_67ljq_Animation{12.22%{-webkit-transform: scale(0.2, 0.2);transform: scale(0.2, 0.2);}50%{-webkit-transform: scale(1, 1);transform: scale(1, 1);}84.44%{-webkit-transform: scale(0.6, 0.6);transform: scale(0.6, 0.6);}100%{-webkit-transform: scale(1, 1);transform: scale(1, 1);}0%{-webkit-transform: scale(0.2, 0.2);transform: scale(0.2, 0.2);}}@-webkit-keyframes el_BcVYMHRrL2P_v8X0QviS6_Animation{20%{-webkit-transform: scale(0.2, 0.2);transform: scale(0.2, 0.2);}57.78%{-webkit-transform: scale(1, 1);transform: scale(1, 1);}66.67%{-webkit-transform: scale(0.6, 0.6);transform: scale(0.6, 0.6);}100%{-webkit-transform: scale(1, 1);transform: scale(1, 1);}0%{-webkit-transform: scale(0.2, 0.2);transform: scale(0.2, 0.2);}}@keyframes el_BcVYMHRrL2P_v8X0QviS6_Animation{20%{-webkit-transform: scale(0.2, 0.2);transform: scale(0.2, 0.2);}57.78%{-webkit-transform: scale(1, 1);transform: scale(1, 1);}66.67%{-webkit-transform: scale(0.6, 0.6);transform: scale(0.6, 0.6);}100%{-webkit-transform: scale(1, 1);transform: scale(1, 1);}0%{-webkit-transform: scale(0.2, 0.2);transform: scale(0.2, 0.2);}}@-webkit-keyframes el_agETjWqJ0Hy_EDUJJ47gK_Animation{26.67%{-webkit-transform: scale(0.2, 0.2);transform: scale(0.2, 0.2);}43.33%{-webkit-transform: scale(1, 1);transform: scale(1, 1);}78.89%{-webkit-transform: scale(0.6, 0.6);transform: scale(0.6, 0.6);}100%{-webkit-transform: scale(1, 1);transform: scale(1, 1);}0%{-webkit-transform: scale(0.2, 0.2);transform: scale(0.2, 0.2);}}@keyframes el_agETjWqJ0Hy_EDUJJ47gK_Animation{26.67%{-webkit-transform: scale(0.2, 0.2);transform: scale(0.2, 0.2);}43.33%{-webkit-transform: scale(1, 1);transform: scale(1, 1);}78.89%{-webkit-transform: scale(0.6, 0.6);transform: scale(0.6, 0.6);}100%{-webkit-transform: scale(1, 1);transform: scale(1, 1);}0%{-webkit-transform: scale(0.2, 0.2);transform: scale(0.2, 0.2);}}#el_scx7NZgNr5d *{-webkit-animation-duration: 3s;animation-duration: 3s;-webkit-animation-iteration-count: infinite;animation-iteration-count: infinite;-webkit-animation-timing-function: cubic-bezier(0, 0, 1, 1);animation-timing-function: cubic-bezier(0, 0, 1, 1);}#el_Sq-IiTDZ5CS{-webkit-transform: translate(-149.293px, 1844.263px);transform: translate(-149.293px, 1844.263px);}#el_IG-ZzKig1ur{-webkit-transform: translate(656px, -1485px);transform: translate(656px, -1485px);}#el_Rym0ySRh1wj{-webkit-transform: translate(-493px, -102px);transform: translate(-493px, -102px);}#el_Lg7o9QtkQDh{fill: #fff;-webkit-transform: translate(148.751px, -287.551px);transform: translate(148.751px, -287.551px);}#el_uM54021s_9l{stroke: none;}#el_aXIEY9tBwCw{stroke: none;fill: #707070;}#el_z3KKdvqd7Zn{fill: #fff;-webkit-transform: translate(-13.707px, -216.149px) rotate(-1deg);transform: translate(-13.707px, -216.149px) rotate(-1deg);}#el_shYsSrYK4GC{stroke: none;}#el_109spnTHdnM{stroke: none;fill: #707070;}#el_8_QAwLgJxCW{fill: none;stroke: #707070;stroke-width: 8px;-webkit-transform: translate(-461.5px, -172.5px);transform: translate(-461.5px, -172.5px);}#el_yq7BjD6DqSA{fill: none;stroke: #707070;stroke-width: 8px;-webkit-transform: translate(-421.5px, -172.5px);transform: translate(-421.5px, -172.5px);}#el_BcVYMHRrL2P{fill: none;stroke: #707070;stroke-width: 8px;-webkit-transform: translate(-385.5px, -172.5px);transform: translate(-385.5px, -172.5px);}#el_agETjWqJ0Hy{fill: none;stroke: #707070;stroke-width: 8px;-webkit-transform: translate(-343.5px, -172.5px);transform: translate(-343.5px, -172.5px);}#el_agETjWqJ0Hy_EDUJJ47gK{-webkit-animation-name: el_agETjWqJ0Hy_EDUJJ47gK_Animation;animation-name: el_agETjWqJ0Hy_EDUJJ47gK_Animation;-webkit-transform-origin: 50% 50%;transform-origin: 50% 50%;transform-box: fill-box;-webkit-transform: scale(0.2, 0.2);transform: scale(0.2, 0.2);}#el_BcVYMHRrL2P_v8X0QviS6{-webkit-animation-name: el_BcVYMHRrL2P_v8X0QviS6_Animation;animation-name: el_BcVYMHRrL2P_v8X0QviS6_Animation;-webkit-transform-origin: 50% 50%;transform-origin: 50% 50%;transform-box: fill-box;-webkit-transform: scale(0.2, 0.2);transform: scale(0.2, 0.2);}#el_yq7BjD6DqSA_tD0_67ljq{-webkit-animation-name: el_yq7BjD6DqSA_tD0_67ljq_Animation;animation-name: el_yq7BjD6DqSA_tD0_67ljq_Animation;-webkit-transform-origin: 50% 50%;transform-origin: 50% 50%;transform-box: fill-box;-webkit-transform: scale(0.2, 0.2);transform: scale(0.2, 0.2);}#el_8_QAwLgJxCW_OLZEiY7Cf{-webkit-animation-name: el_8_QAwLgJxCW_OLZEiY7Cf_Animation;animation-name: el_8_QAwLgJxCW_OLZEiY7Cf_Animation;-webkit-transform-origin: 50% 50%;transform-origin: 50% 50%;transform-box: fill-box;-webkit-transform: scale(0.2, 0.2);transform: scale(0.2, 0.2);}</style>
  <defs>
    
  </defs>
  <g id="el_Sq-IiTDZ5CS" data-name="组 19">
    <g id="el_IG-ZzKig1ur" data-name="组 12">
      <g id="el_Rym0ySRh1wj" data-name="组 11">
        <g id="el_Lg7o9QtkQDh">
          <path d="M 62.38166427612305 133.6060485839844 C 54.44537353515625 133.6060485839844 46.75193786621094 132.2180786132812 39.51508331298828 129.480712890625 C 32.54872131347656 126.8456954956055 26.29837417602539 123.0788421630859 20.93766593933105 118.2847671508789 C 15.60899257659912 113.5194625854492 11.43050098419189 107.9811325073242 8.518246650695801 101.8236083984375 C 5.520174026489258 95.48460388183594 4.00001049041748 88.75402069091797 4.00001049041748 81.81878662109375 C 4.00001049041748 71.46286010742188 7.437737941741943 61.46738815307617 13.94155597686768 52.9129524230957 C 17.09966468811035 48.75907897949219 20.91310119628906 45.03487777709961 25.27593803405762 41.84380722045898 C 27.83774566650391 39.97006607055664 30.56413078308105 38.29864883422852 33.42763900756836 36.84424591064453 C 33.16880035400391 39.42564010620117 33.03844833374023 42.02670669555664 33.03844833374023 44.6284065246582 C 33.03844833374023 54.68898773193359 34.94230270385742 64.45188140869141 38.69710159301758 73.64589691162109 C 42.32661056518555 82.53309631347656 47.5239372253418 90.51596832275391 54.14470291137695 97.37277221679688 C 60.77486419677734 104.2393341064453 68.499755859375 109.6321716308594 77.10475921630859 113.401496887207 C 85.24533081054688 116.9673614501953 93.84815216064453 118.9291534423828 102.7123336791992 119.2450408935547 C 98.71492004394531 122.6328735351562 94.18437957763672 125.523193359375 89.29697418212891 127.7815551757812 C 85.22948455810547 129.6610260009766 80.91428375244141 131.1095886230469 76.47124481201172 132.0869750976562 C 71.88932037353516 133.0949554443359 67.14891815185547 133.6060485839844 62.38166427612305 133.6060485839844 Z" id="el_uM54021s_9l"/>
          <path d="M 62.38166046142578 129.6060485839844 C 66.86038970947266 129.6060485839844 71.31163787841797 129.1263885498047 75.61181640625 128.1803894042969 C 79.77342987060547 127.264892578125 83.81329345703125 125.9090270996094 87.619140625 124.1504592895508 C 89.01545715332031 123.505256652832 90.37961578369141 122.805419921875 91.70800018310547 122.0539169311523 C 86.15625762939453 121.025993347168 80.73799133300781 119.3598937988281 75.49981689453125 117.0653915405273 C 66.41456604003906 113.0856857299805 58.26152420043945 107.3949356079102 51.26720428466797 100.151252746582 C 44.29172897338867 92.92713928222656 38.8166618347168 84.51828002929688 34.99400329589844 75.15823364257812 C 31.04218292236328 65.48178100585938 29.03845596313477 55.21007537841797 29.03845596313477 44.62841415405273 C 29.03845596313477 44.44548797607422 29.0390682220459 44.26294708251953 29.0402946472168 44.08002853393555 C 28.56695747375488 44.40373992919922 28.09932708740234 44.73450469970703 27.63736534118652 45.07239151000977 C 23.58656883239746 48.03518676757812 20.04997825622559 51.48764419555664 17.12577438354492 55.33384704589844 C 11.15563774108887 63.18634796142578 8.000000953674316 72.34468841552734 8.000000953674316 81.81877899169922 C 8.000000953674316 88.15800476074219 9.390955924987793 94.31320953369141 12.13420581817627 100.1134185791016 C 14.81679725646973 105.7853469848633 18.67579650878906 110.8958892822266 23.60409164428711 115.3031463623047 C 28.5965690612793 119.7678909301758 34.42593383789062 123.279167175293 40.93025207519531 125.7394180297852 C 47.71329498291016 128.3051147460938 54.93059158325195 129.6060485839844 62.38166046142578 129.6060485839844 M 62.38166046142578 137.6060485839844 C 53.960205078125 137.6060485839844 45.7906379699707 136.1310577392578 38.09993362426758 133.2220306396484 C 30.67154693603516 130.4122314453125 24.00020599365234 126.3898010253906 18.27120590209961 121.2663955688477 C 12.54213809967041 116.1430282592773 8.044182777404785 110.1769180297852 4.902274131774902 103.5337982177734 C 1.649365067481995 96.65602874755859 1.428777522960445e-06 89.35007476806641 1.428777522960445e-06 81.81877899169922 C 1.428777522960445e-06 70.5810546875 3.719842433929443 59.74843978881836 10.75734233856201 50.49202728271484 C 14.14945602416992 46.03039169311523 18.2397289276123 42.03446197509766 22.91450119018555 38.61525726318359 C 27.62409210205078 35.17059707641602 32.84913635253906 32.36889266967773 38.44449996948242 30.28796005249023 C 37.51238632202148 34.970458984375 37.03845596313477 39.79459762573242 37.03845596313477 44.62841415405273 C 37.03845596313477 54.16789245605469 38.84241104125977 63.42198181152344 42.40018463134766 72.13357543945312 C 45.83663940429688 80.54800415039062 50.75618362426758 88.10488891601562 57.0222282409668 94.59429931640625 C 63.28822708129883 101.0837097167969 70.58495330810547 106.1786422729492 78.70968627929688 109.7375946044922 C 87.12134552001953 113.4221878051758 96.05675506591797 115.2904586791992 105.2677536010742 115.2904586791992 C 107.7233200073242 115.2904586791992 110.1998901367188 115.1536865234375 112.6286392211914 114.8839797973633 C 106.9459762573242 121.7784576416016 99.45759582519531 127.4929580688477 90.97482299804688 131.4126434326172 C 86.645751953125 133.4129791259766 82.05520629882812 134.9542388916016 77.33061218261719 135.9935760498047 C 72.46686553955078 137.0635528564453 67.43731689453125 137.6060485839844 62.38166046142578 137.6060485839844 Z" id="el_aXIEY9tBwCw"/>
        </g>
        <g id="el_z3KKdvqd7Zn" data-name="联合 11">
          <path d="M 192.057861328125 132.5427856445312 C 186.7384033203125 132.5427856445312 181.577392578125 131.4418182373047 176.7181701660156 129.2704925537109 C 172.0068664550781 127.1652526855469 167.7688598632812 124.145751953125 164.121826171875 120.2958831787109 L 161.6088714599609 117.6431198120117 L 158.7402038574219 119.9065551757812 C 153.6358032226562 123.93408203125 148.0056610107422 127.063117980957 142.0062255859375 129.2067565917969 C 135.8108978271484 131.4203796386719 129.3228912353516 132.5427856445312 122.7223968505859 132.5427856445312 C 107.333366394043 132.5427856445312 92.66896057128906 126.394416809082 81.43049621582031 115.2302551269531 L 78.08326721191406 111.9051818847656 L 75.35066223144531 115.7513198852539 C 73.53582763671875 118.3057174682617 71.44539642333984 120.6441497802734 69.13742828369141 122.7016220092773 C 66.82416534423828 124.7638549804688 64.29169464111328 126.5442199707031 61.61043167114258 127.9933166503906 C 58.88849639892578 129.46435546875 56.00649642944336 130.5971221923828 53.04449844360352 131.3601226806641 C 49.99803161621094 132.1448822021484 46.84769821166992 132.5427856445312 43.68099594116211 132.5427856445312 C 38.35126495361328 132.5427856445312 33.1807975769043 131.4375152587891 28.31323051452637 129.2576904296875 C 23.59383010864258 127.1442184448242 19.35073089599609 124.1137161254883 15.70186424255371 120.2503509521484 C 12.03773021697998 116.3708877563477 9.159564018249512 111.8496856689453 7.147230625152588 106.812385559082 C 5.058863639831543 101.5847549438477 3.999997138977051 96.0272216796875 3.999997138977051 90.29425048828125 C 3.999997138977051 84.56128692626953 5.058863639831543 79.0037841796875 7.147230625152588 73.77615356445312 C 9.159564018249512 68.73885345458984 12.03773021697998 64.2176513671875 15.70186424255371 60.33818435668945 C 19.35073089599609 56.47481918334961 23.59383010864258 53.44431686401367 28.31323051452637 51.33085250854492 C 33.1807975769043 49.15102005004883 38.35126495361328 48.04575347900391 43.68099594116211 48.04575347900391 C 49.17313003540039 48.04575347900391 54.48933029174805 49.21735000610352 59.48189544677734 51.52805328369141 L 63.68786239624023 53.47468566894531 L 64.99866485595703 49.0292854309082 C 66.90579986572266 42.56138610839844 69.76166534423828 36.47434997558594 73.48683166503906 30.93718528747559 C 77.15749359130859 25.48111915588379 81.58666229248047 20.68358612060547 86.65132904052734 16.67785263061523 C 91.76033020019531 12.63701820373535 97.39743041992188 9.497652053833008 103.4059982299805 7.34691858291626 C 109.6104278564453 5.12608528137207 116.1093978881836 4.00001859664917 122.7223968505859 4.00001859664917 C 129.1015014648438 4.00001859664917 135.3819580078125 5.049485206604004 141.3893585205078 7.119285106658936 C 147.2086029052734 9.124218940734863 152.6986236572266 12.05805206298828 157.7069702148438 15.83925151824951 C 162.6649627685547 19.58248519897461 167.0556335449219 24.08241844177246 170.7570343017578 29.21411895751953 C 174.5025939941406 34.40708541870117 177.4662017822266 40.14315032958984 179.5655364990234 46.2629508972168 L 180.7169647216797 49.6195182800293 L 184.1868286132812 48.87635040283203 C 186.7601013183594 48.32521820068359 189.4082946777344 48.04575347900391 192.057861328125 48.04575347900391 C 197.3876037597656 48.04575347900391 202.5580596923828 49.15102005004883 207.4256591796875 51.33085250854492 C 212.1450653076172 53.44431686401367 216.3881378173828 56.47481918334961 220.0370330810547 60.33818435668945 C 223.7011260986328 64.2176513671875 226.5793304443359 68.73885345458984 228.5916290283203 73.77615356445312 C 230.6799926757812 79.0037841796875 231.7388610839844 84.56128692626953 231.7388610839844 90.29425048828125 C 231.7388610839844 96.02725219726562 230.6799926757812 101.5847549438477 228.5916290283203 106.812385559082 C 226.5793304443359 111.8496856689453 223.7011260986328 116.3708877563477 220.0370330810547 120.2503509521484 C 216.3881378173828 124.1137161254883 212.1450653076172 127.1442184448242 207.4256591796875 129.2576904296875 C 202.5580596923828 131.4375152587891 197.3876037597656 132.5427856445312 192.057861328125 132.5427856445312 Z" id="el_shYsSrYK4GC"/>
          <path d="M 192.0578460693359 128.5427703857422 C 211.7324371337891 128.5427703857422 227.7388610839844 111.3845748901367 227.7388610839844 90.29427337646484 C 227.7388610839844 69.20396423339844 211.7324371337891 52.04576873779297 192.0578460693359 52.04576873779297 C 189.6892700195312 52.04576873779297 187.3229370117188 52.29538345336914 185.0245513916016 52.78761672973633 L 178.0848541259766 54.27396392822266 L 175.7819671630859 47.56088638305664 C 167.6647796630859 23.89830780029297 146.3417816162109 8.000000953674316 122.7223892211914 8.000000953674316 C 97.92669677734375 8.000000953674316 76.27112579345703 24.94303894042969 68.83535003662109 50.16061782836914 L 66.21373748779297 59.05138397216797 L 57.80181503295898 55.15811538696289 C 53.33962249755859 53.09292221069336 48.58869934082031 52.04576873779297 43.68100738525391 52.04576873779297 C 24.00642967224121 52.04576873779297 8.000007629394531 69.20396423339844 8.000007629394531 90.29427337646484 C 8.000007629394531 111.3845748901367 24.00642967224121 128.5427703857422 43.68100738525391 128.5427703857422 C 54.91362380981445 128.5427703857422 65.26828002929688 123.0360412597656 72.08988952636719 113.4346160888672 L 77.55508422851562 105.7422714233398 L 84.24954223632812 112.392463684082 C 94.73350524902344 122.8071517944336 108.3967742919922 128.5427703857422 122.7223892211914 128.5427703857422 C 134.9003143310547 128.5427703857422 146.4983215332031 124.4705352783203 156.2625122070312 116.7663497924805 L 161.9997711181641 112.2394638061523 L 167.0257415771484 117.5449981689453 C 173.7440490722656 124.6370391845703 182.6339721679688 128.5427703857422 192.0578460693359 128.5427703857422 M 192.0578460693359 136.5427703857422 C 180.0191955566406 136.5427703857422 169.1189727783203 131.3873138427734 161.2179260253906 123.0467681884766 C 150.4747009277344 131.5234680175781 137.1508178710938 136.5427703857422 122.7223892211914 136.5427703857422 C 105.6601257324219 136.5427703857422 90.14458465576172 129.5249176025391 78.61146545410156 118.0680389404297 C 70.64112091064453 129.2863464355469 57.96070098876953 136.5427703857422 43.68100738525391 136.5427703857422 C 19.5566234588623 136.5427703857422 7.465069302270422e-06 115.8366546630859 7.465069302270422e-06 90.29427337646484 C 7.465069302270422e-06 64.75188446044922 19.5566234588623 44.04576873779297 43.68100738525391 44.04576873779297 C 49.89616012573242 44.04576873779297 55.80946731567383 45.42073059082031 61.16196823120117 47.89799880981445 C 69.34623718261719 20.14211654663086 93.81216430664062 5.774865030616638e-07 122.7223892211914 5.774865030616638e-07 C 150.6033477783203 5.774865030616638e-07 174.3517761230469 18.73673057556152 183.34912109375 44.96503829956055 C 186.1629333496094 44.36238479614258 189.0761566162109 44.04576873779297 192.0578460693359 44.04576873779297 C 216.1822357177734 44.04576873779297 235.7388610839844 64.75188446044922 235.7388610839844 90.29427337646484 C 235.7388610839844 115.8366546630859 216.1822357177734 136.5427703857422 192.0578460693359 136.5427703857422 Z" id="el_109spnTHdnM"/>
        </g>
      </g>
      <g id="el_8_QAwLgJxCW_OLZEiY7Cf" data-animator-group="true" data-animator-type="2"><line id="el_8_QAwLgJxCW" data-name="直线 67" x1="19" y2="17"/></g>
      <g id="el_yq7BjD6DqSA_tD0_67ljq" data-animator-group="true" data-animator-type="2"><line id="el_yq7BjD6DqSA" data-name="直线 68" x1="18" y2="17"/></g>
      <g id="el_BcVYMHRrL2P_v8X0QviS6" data-animator-group="true" data-animator-type="2"><line id="el_BcVYMHRrL2P" data-name="直线 69" x1="16" y2="17"/></g>
      <g id="el_agETjWqJ0Hy_EDUJJ47gK" data-animator-group="true" data-animator-type="2"><line id="el_agETjWqJ0Hy" data-name="直线 70" x1="19" y2="17"/></g>
    </g>
  </g>
<script>(function(){var a=document.querySelector('#el_scx7NZgNr5d'),b=a.querySelectorAll('style'),c=function(d){b.forEach(function(f){var g=f.textContent;g&amp;&amp;(f.textContent=g.replace(/transform-box:[^;\r\n]*/gi,'transform-box: '+d))})};c('initial'),window.requestAnimationFrame(function(){return c('fill-box')})})();</script></svg>