<svg xmlns="http://www.w3.org/2000/svg" viewBox="0 0 206.976 213.883" class="moon w-128">
  <defs>
    <style>
      .cls-1 {
        fill: #fff;
      }

      .cls-2, .cls-3 {
        stroke: none;
      }

      .cls-3 {
        fill: #707070;
      }
    </style>
  </defs>
  <g id="moon" class="cls-1 moon" transform="matrix(-1, -0.017, 0.017, -1, 283.957, 215.29)">
    <path class="cls-2 moon" d="M 211.8096313476562 203.9722137451172 C 213.6258392333984 199.1739349365234 215.1096649169922 194.2494812011719 216.2422943115234 189.25341796875 C 218.0722351074219 181.1814575195312 219.0000915527344 172.853271484375 219.0000915527344 164.5001831054688 C 219.0000915527344 156.9377746582031 218.2379760742188 149.3787841796875 216.7349090576172 142.0331573486328 C 215.2695617675781 134.8722839355469 213.0831146240234 127.8286285400391 210.2362976074219 121.0978622436523 C 207.44140625 114.4900741577148 203.9824066162109 108.1172180175781 199.955322265625 102.1563034057617 C 195.9669342041016 96.2528076171875 191.3869171142578 90.70175170898438 186.3424377441406 85.65731048583984 C 181.2979431152344 80.61277770996094 175.7469024658203 76.03277587890625 169.8435516357422 72.04450988769531 C 163.8825836181641 68.01742553710938 157.5097351074219 64.55839538574219 150.9019927978516 61.76354217529297 C 144.1711120605469 58.91666030883789 137.1274719238281 56.73019027709961 129.9667053222656 55.26489639282227 C 122.6210861206055 53.76180648803711 115.0620574951172 52.99969100952148 107.4995880126953 52.99969100952148 C 101.0347137451172 52.99969100952148 94.59877777099609 53.55415344238281 88.27449035644531 54.65273666381836 C 91.66278076171875 48.92256927490234 95.60668182373047 43.52175903320312 100.0549697875977 38.52692413330078 C 106.3658218383789 31.44066047668457 113.612174987793 25.26027679443359 121.5926742553711 20.1574535369873 C 129.6925201416016 14.97830677032471 138.4572906494141 10.96977710723877 147.6434936523438 8.243188858032227 C 157.1295013427734 5.427600860595703 167.0065612792969 3.999983310699463 177.0002899169922 3.999983310699463 C 183.9912261962891 3.999983310699463 190.9766387939453 4.704042434692383 197.7625274658203 6.092630386352539 C 204.3738861083984 7.445512771606445 210.8769683837891 9.464159965515137 217.0911407470703 12.09257125854492 C 223.1935272216797 14.6736307144165 229.0794982910156 17.86845397949219 234.5855865478516 21.58833694458008 C 240.04052734375 25.27360153198242 245.1702270507812 29.50595474243164 249.8322296142578 34.16789627075195 C 254.4941711425781 38.82986450195312 258.7265625 43.95951461791992 262.411865234375 49.41439437866211 C 266.1317138671875 54.92048263549805 269.3265991210938 60.80648422241211 271.9077758789062 66.90889739990234 C 274.5362854003906 73.12351226806641 276.5549621582031 79.62666320800781 277.90771484375 86.23760223388672 C 279.2963256835938 93.02345275878906 280.0003967285156 100.0089797973633 280.0003967285156 107.0000991821289 C 280.0003967285156 118.6577453613281 278.0691223144531 130.0948944091797 274.2601318359375 140.9938049316406 C 270.5782470703125 151.5291595458984 265.2202758789062 161.3568878173828 258.3350830078125 170.2039794921875 C 251.5176086425781 178.9640655517578 243.3861999511719 186.5307159423828 234.1667327880859 192.6936950683594 C 227.1670074462891 197.3727874755859 219.6745300292969 201.1504364013672 211.8096313476562 203.9722137451172 Z"/>
    <path class="cls-3 moon" d="M 218.3698272705078 196.9731750488281 C 223.0706329345703 194.8079223632812 227.6053314208984 192.2683715820312 231.9437713623047 189.3682403564453 C 240.8068695068359 183.4434814453125 248.6241302490234 176.1691589355469 255.1784057617188 167.7473449707031 C 261.7962341308594 159.2437286376953 266.94580078125 149.7985534667969 270.4841003417969 139.6741333007812 C 274.1444396972656 129.2004547119141 276.0003967285156 118.2073059082031 276.0003967285156 107.0000915527344 C 276.0003967285156 100.2778396606445 275.3236694335938 93.56212615966797 273.9889221191406 87.03952026367188 C 272.6890563964844 80.68708801269531 270.7493286132812 74.43837738037109 268.2237548828125 68.46712493896484 C 265.7431945800781 62.60258865356445 262.6726684570312 56.94569778442383 259.0973815917969 51.65366363525391 C 255.5545959472656 46.40969848632812 251.4857025146484 41.47826766967773 247.0037994384766 36.99634170532227 C 242.5219116210938 32.51444625854492 237.5904541015625 28.44562530517578 232.3463745117188 24.90283966064453 C 227.0541229248047 21.32744789123535 221.3972625732422 18.25694847106934 215.5328826904297 15.77659034729004 C 209.5619812011719 13.25105476379395 203.3133392333984 11.31137657165527 196.9605865478516 10.01141166687012 C 190.4381561279297 8.676733016967773 183.7225494384766 7.999983310699463 177.0003051757812 7.999983310699463 C 167.3921966552734 7.999983310699463 157.8980865478516 9.371983528137207 148.7816314697266 12.07787609100342 C 139.9545593261719 14.69784069061279 131.5318450927734 18.55001831054688 123.7474822998047 23.52741241455078 C 116.0755920410156 28.43294715881348 109.1093063354492 34.37451934814453 103.0421295166016 41.18723297119141 C 100.6687240600586 43.85223388671875 98.44461059570312 46.63753509521484 96.37848663330078 49.53015899658203 C 100.0669021606445 49.17711639404297 103.7785873413086 48.99969863891602 107.4995880126953 48.99969863891602 C 115.3308792114258 48.99969863891602 123.1596603393555 49.78912734985352 130.7685546875 51.34609222412109 C 138.1878356933594 52.8642692565918 145.4859466552734 55.12973403930664 152.4601898193359 58.07951736450195 C 159.3058776855469 60.97501754760742 165.9078826904297 64.55837249755859 172.082763671875 68.73001861572266 C 178.1969146728516 72.86066436767578 183.9461975097656 77.60419464111328 189.1709136962891 82.82887268066406 C 194.3954162597656 88.05337524414062 199.1389465332031 93.80266571044922 203.2698059082031 99.91709136962891 C 207.4414520263672 106.091911315918 211.0247650146484 112.6938781738281 213.9203338623047 119.5396957397461 C 216.8700561523438 126.513801574707 219.1354827880859 133.8118743896484 220.6537017822266 141.2312622070312 C 222.2106628417969 148.8401641845703 223.0000915527344 156.6689453125 223.0000915527344 164.5001983642578 C 223.0000915527344 173.1503753662109 222.0389099121094 181.7760925292969 220.143310546875 190.1377716064453 C 219.6230773925781 192.4325408935547 219.0314331054688 194.7123718261719 218.3698272705078 196.9731750488281 M 204.7523803710938 210.3659820556641 L 204.7532653808594 210.3640594482422 C 208.0721282958984 203.3394775390625 210.6250915527344 195.9392700195312 212.3412628173828 188.3690490722656 C 214.1055603027344 180.5867309570312 215.0000915527344 172.5560913085938 215.0000915527344 164.5001983642578 C 215.0000915527344 157.2064056396484 214.2652740478516 149.9171905517578 212.8160858154297 142.8350219726562 C 211.4037322998047 135.9329833984375 209.2962646484375 129.1437683105469 206.5522613525391 122.6560211181641 C 203.8579864501953 116.2860870361328 200.5232696533203 110.1423416137695 196.6408081054688 104.3955154418945 C 192.7950897216797 98.70316314697266 188.3786315917969 93.35030364990234 183.5140533447266 88.48573303222656 C 178.6494445800781 83.62116241455078 173.2966613769531 79.20469665527344 167.6043090820312 75.35901641845703 C 161.8573455810547 71.47644805908203 155.7135925292969 68.14176940917969 149.3437652587891 65.44755554199219 C 142.8560943603516 62.70355606079102 136.0669097900391 60.59605407714844 129.1647644042969 59.18369674682617 C 122.0826263427734 57.73451995849609 114.7934112548828 56.99969863891602 107.4995880126953 56.99969863891602 C 98.41165924072266 56.99969863891602 89.38327026367188 58.13566207885742 80.66509246826172 60.37605667114258 C 84.96855163574219 51.50101852416992 90.48766326904297 43.25534057617188 97.06787872314453 35.86666107177734 C 103.6223754882812 28.50676918029785 111.1487350463867 22.08762550354004 119.437873840332 16.78744697570801 C 127.8533401489258 11.40651893615723 136.9601593017578 7.24166202545166 146.5053100585938 4.408555030822754 C 156.3610534667969 1.483233451843262 166.6210479736328 -1.660156340221874e-05 177.0003051757812 -1.660156340221874e-05 C 184.2601318359375 -1.660156340221874e-05 191.5153350830078 0.7313762307167053 198.5644073486328 2.173840522766113 C 205.4343719482422 3.579626321792603 212.1919403076172 5.677268981933594 218.6493377685547 8.408555030822754 C 224.9895172119141 11.09016227722168 231.1046295166016 14.40934085845947 236.8248443603516 18.27383995056152 C 242.4906311035156 22.10155487060547 247.8185882568359 26.4974479675293 252.6606292724609 31.33944702148438 C 257.5025939941406 36.18144607543945 261.8985290527344 41.50934219360352 265.7263488769531 47.17516326904297 C 269.5907897949219 52.89526748657227 272.9100036621094 59.01041030883789 275.5917663574219 65.35066223144531 C 278.3230895996094 71.80834197998047 280.4207763671875 78.56594848632812 281.8265075683594 85.43572998046875 C 283.2689819335938 92.48484039306641 284.0003967285156 99.74012756347656 284.0003967285156 107.0000915527344 C 284.0003967285156 119.108268737793 281.9937438964844 130.9893798828125 278.0361938476562 142.3134460449219 C 274.2106628417969 153.2597351074219 268.6443481445312 163.4699859619141 261.4917907714844 172.6606597900391 C 254.4110870361328 181.7589416503906 245.9655609130859 189.6178741455078 236.3896942138672 196.0190887451172 C 226.66162109375 202.5220489501953 216.0179443359375 207.348876953125 204.7544403076172 210.3654479980469 L 204.7523803710938 210.3659820556641 Z"/>
  </g>
</svg>
